<?xml version="1.0"?>
<!-- Created with Inkscape (http://www.inkscape.org/) -->
<svg xmlns:rdf="http://www.w3.org/1999/02/22-rdf-syntax-ns#" xmlns="http://www.w3.org/2000/svg" xmlns:cc="http://creativecommons.org/ns#" xmlns:xlink="http://www.w3.org/1999/xlink" xmlns:dc="http://purl.org/dc/elements/1.1/" xmlns:svg="http://www.w3.org/2000/svg" xmlns:inkscape="http://www.inkscape.org/namespaces/inkscape" xmlns:sodipodi="http://sodipodi.sourceforge.net/DTD/sodipodi-0.dtd" id="svg2" viewBox="0 0 1633.9 441.51" version="1.1" inkscape:version="0.91 r13725" xmlns:ns1="http://sozi.baierouge.fr">
  <defs id="defs4">
    <linearGradient id="linearGradient13026" y2="-11.676" gradientUnits="userSpaceOnUse" x2="11.625" y1="305.67" x1="11.625">
      <stop id="stop13022" stop-color="#0F0" offset="0"/>
      <stop id="stop13024" stop-color="#F00" offset="1"/>
    </linearGradient>
  </defs>
  <metadata id="metadata7">
    <rdf:RDF>
      <cc:Work rdf:about="">
        <dc:format>image/svg+xml</dc:format>
        <dc:type rdf:resource="http://purl.org/dc/dcmitype/StillImage"/>
        <dc:title/>
      </cc:Work>
    </rdf:RDF>
  </metadata>
  <style>
    .li { 
      stroke-linecap:round;
    }
    .da {
      stroke-dasharray:100,100;
    }
  </style>
  <g id="layer1" transform="translate(393.1817,1349.1067)">
    <path id="rect5356" style="enable-background:accumulate;color:#000000;" fill="#000" d="m-393.18-1349.1,1633.9,0,0,441.51-1633.9,0z"/>
    <path id="rect3031" class="li da" style="color:#000000;enable-background:accumulate;" d="M12.125,11.469v27.156h43.937v-27.156h-43.937zm55.937,0v27.156h43.908v-27.156h-43.908zm55.908,0v27.156h43.94v-27.156h-43.94zm55.94,0v27.156h43.9v-27.156h-43.9zm55.9,0v27.156h43.91v-27.156h-43.91zm55.91,0v27.156h43.94v-27.156h-43.94zm55.94,0v27.156h43.9v-27.156h-43.9zm55.9,0v27.156h43.91v-27.156h-43.91zm55.91,0v27.156h43.94v-27.156h-43.94zm55.94,0v27.156h43.9v-27.156h-43.9zm55.9,0v27.156h43.94v-27.156h-43.94zm55.94,0v27.156h43.91v-27.156h-43.91zm55.91,0v27.156h43.9v-27.156h-43.9zm55.9,0v27.156h43.94v-27.156h-43.94zm55.94,0v27.156h43.91v-27.156h-43.91zm55.91,0v27.156h43.9v-27.156h-43.9zm55.9,0v27.156h43.94v-27.156h-43.94zm55.94,0v27.156h43.95v-27.156h-43.95zm55.95,0v27.156h43.9v-27.156h-43.9zm55.9,0v27.156h43.9v-27.156h-43.9zm55.9,0v27.156h43.9v-27.156h-43.9zm55.9,0v27.156h43.9v-27.156h-43.9zm55.9,0v27.156h43.9v-27.156h-43.9zm55.9,0v27.156h44v-27.156h-44zm56,0v27.156h43.9v-27.156h-43.9zm55.9,0v27.156h43.9v-27.156h-43.9zm55.9,0v27.156h43.9v-27.156h-43.9zm55.9,0v27.156h43.9v-27.156h-43.9zm55.9,0v27.156h44v-27.156h-44zm-1565.7,39.156v27.125h43.937v-27.125h-43.937zm55.937,0v27.125h43.908v-27.125h-43.908zm55.908,0v27.125h43.94v-27.125h-43.94zm55.94,0v27.125h43.9v-27.125h-43.9zm55.9,0v27.125h43.91v-27.125h-43.91zm55.91,0v27.125h43.94v-27.125h-43.94zm55.94,0v27.125h43.9v-27.125h-43.9zm55.9,0v27.125h43.91v-27.125h-43.91zm55.91,0v27.125h43.94v-27.125h-43.94zm55.94,0v27.125h43.9v-27.125h-43.9zm55.9,0v27.125h43.94v-27.125h-43.94zm55.94,0v27.125h43.91v-27.125h-43.91zm55.91,0v27.125h43.9v-27.125h-43.9zm55.9,0v27.125h43.94v-27.125h-43.94zm55.94,0v27.125h43.91v-27.125h-43.91zm55.91,0v27.125h43.9v-27.125h-43.9zm55.9,0v27.125h43.94v-27.125h-43.94zm55.94,0v27.125h43.95v-27.125h-43.95zm55.95,0v27.125h43.9v-27.125h-43.9zm55.9,0v27.125h43.9v-27.125h-43.9zm55.9,0v27.125h43.9v-27.125h-43.9zm55.9,0v27.125h43.9v-27.125h-43.9zm55.9,0v27.125h43.9v-27.125h-43.9zm55.9,0v27.125h44v-27.125h-44zm56,0v27.125h43.9v-27.125h-43.9zm55.9,0v27.125h43.9v-27.125h-43.9zm55.9,0v27.125h43.9v-27.125h-43.9zm55.9,0v27.125h43.9v-27.125h-43.9zm55.9,0v27.125h44v-27.125h-44zm-1565.7,39.125v27.16h43.937v-27.16h-43.937zm55.937,0v27.16h43.908v-27.16h-43.908zm55.908,0v27.16h43.94v-27.16h-43.94zm55.94,0v27.16h43.9v-27.16h-43.9zm55.9,0v27.16h43.91v-27.16h-43.91zm55.91,0v27.16h43.94v-27.16h-43.94zm55.94,0v27.16h43.9v-27.16h-43.9zm55.9,0v27.16h43.91v-27.16h-43.91zm55.91,0v27.16h43.94v-27.16h-43.94zm55.94,0v27.16h43.9v-27.16h-43.9zm55.9,0v27.16h43.94v-27.16h-43.94zm55.94,0v27.16h43.91v-27.16h-43.91zm55.91,0v27.16h43.9v-27.16h-43.9zm55.9,0v27.16h43.94v-27.16h-43.94zm55.94,0v27.16h43.91v-27.16h-43.91zm55.91,0v27.16h43.9v-27.16h-43.9zm55.9,0v27.16h43.94v-27.16h-43.94zm55.94,0v27.16h43.95v-27.16h-43.95zm55.95,0v27.16h43.9v-27.16h-43.9zm55.9,0v27.16h43.9v-27.16h-43.9zm55.9,0v27.16h43.9v-27.16h-43.9zm55.9,0v27.16h43.9v-27.16h-43.9zm55.9,0v27.16h43.9v-27.16h-43.9zm55.9,0v27.16h44v-27.16h-44zm56,0v27.16h43.9v-27.16h-43.9zm55.9,0v27.16h43.9v-27.16h-43.9zm55.9,0v27.16h43.9v-27.16h-43.9zm55.9,0v27.16h43.9v-27.16h-43.9zm55.9,0v27.16h44v-27.16h-44zm-1565.7,39.16v27.12h43.937v-27.12h-43.937zm55.937,0v27.12h43.908v-27.12h-43.908zm55.908,0v27.12h43.94v-27.12h-43.94zm55.94,0v27.12h43.9v-27.12h-43.9zm55.9,0v27.12h43.91v-27.12h-43.91zm55.91,0v27.12h43.94v-27.12h-43.94zm55.94,0v27.12h43.9v-27.12h-43.9zm55.9,0v27.12h43.91v-27.12h-43.91zm55.91,0v27.12h43.94v-27.12h-43.94zm55.94,0v27.12h43.9v-27.12h-43.9zm55.9,0v27.12h43.94v-27.12h-43.94zm55.94,0v27.12h43.91v-27.12h-43.91zm55.91,0v27.12h43.9v-27.12h-43.9zm55.9,0v27.12h43.94v-27.12h-43.94zm55.94,0v27.12h43.91v-27.12h-43.91zm55.91,0v27.12h43.9v-27.12h-43.9zm55.9,0v27.12h43.94v-27.12h-43.94zm55.94,0v27.12h43.95v-27.12h-43.95zm55.95,0v27.12h43.9v-27.12h-43.9zm55.9,0v27.12h43.9v-27.12h-43.9zm55.9,0v27.12h43.9v-27.12h-43.9zm55.9,0v27.12h43.9v-27.12h-43.9zm55.9,0v27.12h43.9v-27.12h-43.9zm55.9,0v27.12h44v-27.12h-44zm56,0v27.12h43.9v-27.12h-43.9zm55.9,0v27.12h43.9v-27.12h-43.9zm55.9,0v27.12h43.9v-27.12h-43.9zm55.9,0v27.12h43.9v-27.12h-43.9zm55.9,0v27.12h44v-27.12h-44zm-1565.7,39.12v27.16h43.937v-27.16h-43.937zm55.937,0v27.16h43.908v-27.16h-43.908zm55.908,0v27.16h43.94v-27.16h-43.94zm55.94,0v27.16h43.9v-27.16h-43.9zm55.9,0v27.16h43.91v-27.16h-43.91zm55.91,0v27.16h43.94v-27.16h-43.94zm55.94,0v27.16h43.9v-27.16h-43.9zm55.9,0v27.16h43.91v-27.16h-43.91zm55.91,0v27.16h43.94v-27.16h-43.94zm55.94,0v27.16h43.9v-27.16h-43.9zm55.9,0v27.16h43.94v-27.16h-43.94zm55.94,0v27.16h43.91v-27.16h-43.91zm55.91,0v27.16h43.9v-27.16h-43.9zm55.9,0v27.16h43.94v-27.16h-43.94zm55.94,0v27.16h43.91v-27.16h-43.91zm55.91,0v27.16h43.9v-27.16h-43.9zm55.9,0v27.16h43.94v-27.16h-43.94zm55.94,0v27.16h43.95v-27.16h-43.95zm55.95,0v27.16h43.9v-27.16h-43.9zm55.9,0v27.16h43.9v-27.16h-43.9zm55.9,0v27.16h43.9v-27.16h-43.9zm55.9,0v27.16h43.9v-27.16h-43.9zm55.9,0v27.16h43.9v-27.16h-43.9zm55.9,0v27.16h44v-27.16h-44zm56,0v27.16h43.9v-27.16h-43.9zm55.9,0v27.16h43.9v-27.16h-43.9zm55.9,0v27.16h43.9v-27.16h-43.9zm55.9,0v27.16h43.9v-27.16h-43.9zm55.9,0v27.16h44v-27.16h-44zm-1565.7,39.16v27.12h43.937v-27.12h-43.937zm55.937,0v27.12h43.908v-27.12h-43.908zm55.908,0v27.12h43.94v-27.12h-43.94zm55.94,0v27.12h43.9v-27.12h-43.9zm55.9,0v27.12h43.91v-27.12h-43.91zm55.91,0v27.12h43.94v-27.12h-43.94zm55.94,0v27.12h43.9v-27.12h-43.9zm55.9,0v27.12h43.91v-27.12h-43.91zm55.91,0v27.12h43.94v-27.12h-43.94zm55.94,0v27.12h43.9v-27.12h-43.9zm55.9,0v27.12h43.94v-27.12h-43.94zm55.94,0v27.12h43.91v-27.12h-43.91zm55.91,0v27.12h43.9v-27.12h-43.9zm55.9,0v27.12h43.94v-27.12h-43.94zm55.94,0v27.12h43.91v-27.12h-43.91zm55.91,0v27.12h43.9v-27.12h-43.9zm55.9,0v27.12h43.94v-27.12h-43.94zm55.94,0v27.12h43.95v-27.12h-43.95zm55.95,0v27.12h43.9v-27.12h-43.9zm55.9,0v27.12h43.9v-27.12h-43.9zm55.9,0v27.12h43.9v-27.12h-43.9zm55.9,0v27.12h43.9v-27.12h-43.9zm55.9,0v27.12h43.9v-27.12h-43.9zm55.9,0v27.12h44v-27.12h-44zm56,0v27.12h43.9v-27.12h-43.9zm55.9,0v27.12h43.9v-27.12h-43.9zm55.9,0v27.12h43.9v-27.12h-43.9zm55.9,0v27.12h43.9v-27.12h-43.9zm55.9,0v27.12h44v-27.12h-44zm-1565.7,39.12v27.16h43.937v-27.16h-43.937zm55.937,0v27.16h43.908v-27.16h-43.908zm55.908,0v27.16h43.94v-27.16h-43.94zm55.94,0v27.16h43.9v-27.16h-43.9zm55.9,0v27.16h43.91v-27.16h-43.91zm55.91,0v27.16h43.94v-27.16h-43.94zm55.94,0v27.16h43.9v-27.16h-43.9zm55.9,0v27.16h43.91v-27.16h-43.91zm55.91,0v27.16h43.94v-27.16h-43.94zm55.94,0v27.16h43.9v-27.16h-43.9zm55.9,0v27.16h43.94v-27.16h-43.94zm55.94,0v27.16h43.91v-27.16h-43.91zm55.91,0v27.16h43.9v-27.16h-43.9zm55.9,0v27.16h43.94v-27.16h-43.94zm55.94,0v27.16h43.91v-27.16h-43.91zm55.91,0v27.16h43.9v-27.16h-43.9zm55.9,0v27.16h43.94v-27.16h-43.94zm55.94,0v27.16h43.95v-27.16h-43.95zm55.95,0v27.16h43.9v-27.16h-43.9zm55.9,0v27.16h43.9v-27.16h-43.9zm55.9,0v27.16h43.9v-27.16h-43.9zm55.9,0v27.16h43.9v-27.16h-43.9zm55.9,0v27.16h43.9v-27.16h-43.9zm55.9,0v27.16h44v-27.16h-44zm56,0v27.16h43.9v-27.16h-43.9zm55.9,0v27.16h43.9v-27.16h-43.9zm55.9,0v27.16h43.9v-27.16h-43.9zm55.9,0v27.16h43.9v-27.16h-43.9zm55.9,0v27.16h44v-27.16h-44zm-1565.7,39.16v27.15h43.937v-27.15h-43.937zm55.937,0v27.15h43.908v-27.15h-43.908zm55.908,0v27.15h43.94v-27.15h-43.94zm55.94,0v27.15h43.9v-27.15h-43.9zm55.9,0v27.15h43.91v-27.15h-43.91zm55.91,0v27.15h43.94v-27.15h-43.94zm55.94,0v27.15h43.9v-27.15h-43.9zm55.9,0v27.15h43.91v-27.15h-43.91zm55.91,0v27.15h43.94v-27.15h-43.94zm55.94,0v27.15h43.9v-27.15h-43.9zm55.9,0v27.15h43.94v-27.15h-43.94zm55.94,0v27.15h43.91v-27.15h-43.91zm55.91,0v27.15h43.9v-27.15h-43.9zm55.9,0v27.15h43.94v-27.15h-43.94zm55.94,0v27.15h43.91v-27.15h-43.91zm55.91,0v27.15h43.9v-27.15h-43.9zm55.9,0v27.15h43.94v-27.15h-43.94zm55.94,0v27.15h43.95v-27.15h-43.95zm55.95,0v27.15h43.9v-27.15h-43.9zm55.9,0v27.15h43.9v-27.15h-43.9zm55.9,0v27.15h43.9v-27.15h-43.9zm55.9,0v27.15h43.9v-27.15h-43.9zm55.9,0v27.15h43.9v-27.15h-43.9zm55.9,0v27.15h44v-27.15h-44zm56,0v27.15h43.9v-27.15h-43.9zm55.9,0v27.15h43.9v-27.15h-43.9zm55.9,0v27.15h43.9v-27.15h-43.9zm55.9,0v27.15h43.9v-27.15h-43.9zm55.9,0v27.15h44v-27.15h-44zm-1565.7,39.15v27.13h43.937v-27.13h-43.937zm55.937,0v27.13h43.908v-27.13h-43.908zm55.908,0v27.13h43.94v-27.13h-43.94zm55.94,0v27.13h43.9v-27.13h-43.9zm55.9,0v27.13h43.91v-27.13h-43.91zm55.91,0v27.13h43.94v-27.13h-43.94zm55.94,0v27.13h43.9v-27.13h-43.9zm55.9,0v27.13h43.91v-27.13h-43.91zm55.91,0v27.13h43.94v-27.13h-43.94zm55.94,0v27.13h43.9v-27.13h-43.9zm55.9,0v27.13h43.94v-27.13h-43.94zm55.94,0v27.13h43.91v-27.13h-43.91zm55.91,0v27.13h43.9v-27.13h-43.9zm55.9,0v27.13h43.94v-27.13h-43.94zm55.94,0v27.13h43.91v-27.13h-43.91zm55.91,0v27.13h43.9v-27.13h-43.9zm55.9,0v27.13h43.94v-27.13h-43.94zm55.94,0v27.13h43.95v-27.13h-43.95zm55.95,0v27.13h43.9v-27.13h-43.9zm55.9,0v27.13h43.9v-27.13h-43.9zm55.9,0v27.13h43.9v-27.13h-43.9zm55.9,0v27.13h43.9v-27.13h-43.9zm55.9,0v27.13h43.9v-27.13h-43.9zm55.9,0v27.13h44v-27.13h-44zm56,0v27.13h43.9v-27.13h-43.9zm55.9,0v27.13h43.9v-27.13h-43.9zm55.9,0v27.13h43.9v-27.13h-43.9zm55.9,0v27.13h43.9v-27.13h-43.9zm55.9,0v27.13h44v-27.13h-44zm-1565.7,39.13v27.16h43.937v-27.16h-43.937zm55.937,0v27.16h43.908v-27.16h-43.908zm55.908,0v27.16h43.94v-27.16h-43.94zm55.94,0v27.16h43.9v-27.16h-43.9zm55.9,0v27.16h43.91v-27.16h-43.91zm55.91,0v27.16h43.94v-27.16h-43.94zm55.94,0v27.16h43.9v-27.16h-43.9zm55.9,0v27.16h43.91v-27.16h-43.91zm55.91,0v27.16h43.94v-27.16h-43.94zm55.94,0v27.16h43.9v-27.16h-43.9zm55.9,0v27.16h43.94v-27.16h-43.94zm55.94,0v27.16h43.91v-27.16h-43.91zm55.91,0v27.16h43.9v-27.16h-43.9zm55.9,0v27.16h43.94v-27.16h-43.94zm55.94,0v27.16h43.91v-27.16h-43.91zm55.91,0v27.16h43.9v-27.16h-43.9zm55.9,0v27.16h43.94v-27.16h-43.94zm55.94,0v27.16h43.95v-27.16h-43.95zm55.95,0v27.16h43.9v-27.16h-43.9zm55.9,0v27.16h43.9v-27.16h-43.9zm55.9,0v27.16h43.9v-27.16h-43.9zm55.9,0v27.16h43.9v-27.16h-43.9zm55.9,0v27.16h43.9v-27.16h-43.9zm55.9,0v27.16h44v-27.16h-44zm56,0v27.16h43.9v-27.16h-43.9zm55.9,0v27.16h43.9v-27.16h-43.9zm55.9,0v27.16h43.9v-27.16h-43.9zm55.9,0v27.16h43.9v-27.16h-43.9zm55.9,0v27.16h44v-27.16h-44zm-1565.7,39.16v27.12h43.937v-27.12h-43.937zm55.937,0v27.12h43.908v-27.12h-43.908zm55.908,0v27.12h43.94v-27.12h-43.94zm55.94,0v27.12h43.9v-27.12h-43.9zm55.9,0v27.12h43.91v-27.12h-43.91zm55.91,0v27.12h43.94v-27.12h-43.94zm55.94,0v27.12h43.9v-27.12h-43.9zm55.9,0v27.12h43.91v-27.12h-43.91zm55.91,0v27.12h43.94v-27.12h-43.94zm55.94,0v27.12h43.9v-27.12h-43.9zm55.9,0v27.12h43.94v-27.12h-43.94zm55.94,0v27.12h43.91v-27.12h-43.91zm55.91,0v27.12h43.9v-27.12h-43.9zm55.9,0v27.12h43.94v-27.12h-43.94zm55.94,0v27.12h43.91v-27.12h-43.91zm55.91,0v27.12h43.9v-27.12h-43.9zm55.9,0v27.12h43.94v-27.12h-43.94zm55.94,0v27.12h43.95v-27.12h-43.95zm55.95,0v27.12h43.9v-27.12h-43.9zm55.9,0v27.12h43.9v-27.12h-43.9zm55.9,0v27.12h43.9v-27.12h-43.9zm55.9,0v27.12h43.9v-27.12h-43.9zm55.9,0v27.12h43.9v-27.12h-43.9zm55.9,0v27.12h44v-27.12h-44zm56,0v27.12h43.9v-27.12h-43.9zm55.9,0v27.12h43.9v-27.12h-43.9zm55.9,0v27.12h43.9v-27.12h-43.9zm55.9,0v27.12h43.9v-27.12h-43.9zm55.9,0v27.12h44v-27.12h-44z" transform="translate(-393.1817,-1349.1067)" stroke="url(#linearGradient13026)" stroke-miterlimit="4" stroke-dasharray="none" stroke-width="3" fill="none">
      <animate attributeName="stroke-dashoffset" from="200" to="0" dur="1s" repeatCount="indefinite"/>
      <animate attributeName="fill" attributeType="XML" from="#000000" to="#008000" dur="0.9s" repeatCount="indefinite"/>
    </path>
  </g>
</svg>
