<svg viewBox="0 0 1000 1000" xmlns="http://www.w3.org/2000/svg"><path d="M143 0C68 0 0 68 0 143v714c0 75 68 143 143 143h714c75 0 143-68 143-143V143c0-75-68-143-143-143zm0 75h714c38 0 68 30 68 68v714c0 38-30 68-68 68H143c-38 0-68-30-68-68V143c0-38 30-68 68-68z" fill="#244696"/><path d="M440 744c0-38 30-60 60-60 38 0 60 30 60 60 0 38-30 60-60 60-38 0-60-30-60-60z" fill="#244696"><animate id="p1" attributeName="fill" attributeType="XML" begin="1s;p4.end+1s" dur=".25s" from="transparent" to="#244696"/></path><path d="m351 573 59 59s25-38 90-38 90 38 90 38l59-59s-50-62-149-62c-98 0-149 62-149 62z" fill="#244696"><animate id="p2" attributeName="fill" attributeType="XML" begin="p1.end-.5;" dur=".5s" from="transparent" to="#244696"/></path><path d="m234 456 59 59s81-86 208-86c126 0 208 86 208 86l59-59S656 346 502 346 236 456 236 456z" fill="#244696"><animate id="p3" attributeName="fill" attributeType="XML" begin="p2.end-.75;" dur=".75s" from="transparent" to="#244696"/></path><path d="M116 338s128-158 384-158 384 158 384 158l-59 59S697 263 500 263 175 397 175 397z" fill="#244696"><animate id="p4" attributeName="fill" attributeType="XML" begin="p3.end-1s;" dur="1s" from="transparent" to="#244696"/></path></svg>