<?xml version="1.0" standalone="no"?>
<!DOCTYPE svg PUBLIC "-//W3C//DTD SVG 20010904//EN"
 "http://www.w3.org/TR/2001/REC-SVG-20010904/DTD/svg10.dtd">
<svg version="1.0" xmlns="http://www.w3.org/2000/svg"
 width="700.000000pt" height="700.000000pt" viewBox="0 0 700.000000 700.000000"
 preserveAspectRatio="xMidYMid meet">
<metadata>
Created by potrace 1.11, written by Peter Selinger 2001-2013
</metadata>
<g transform="translate(0.000000,700.000000) scale(0.100000,-0.100000)"
fill="#000000" stroke="none">
<path d="M430 6981 c-220 -60 -383 -235 -420 -455 -7 -42 -10 -1007 -8 -3066
3 -2800 4 -3008 20 -3053 32 -91 83 -172 148 -237 74 -75 160 -124 264 -151
68 -18 190 -19 3058 -19 3246 0 3059 -3 3177 54 157 75 263 203 312 376 18 62
18 181 18 3065 1 3318 6 3056 -65 3196 -71 143 -239 269 -394 298 -37 7 -1057
10 -3050 10 -2820 -1 -2999 -2 -3060 -18z m5708 -529 c-13 -15 -64 -72 -113
-127 -49 -55 -94 -105 -100 -111 -5 -6 -23 -26 -39 -45 -17 -19 -86 -97 -156
-174 -69 -77 -139 -155 -155 -174 -49 -55 -75 -84 -120 -131 l-42 -45 -1918 1
-1918 0 -19 25 c-11 13 -50 58 -87 99 -62 69 -310 346 -385 430 -64 73 -201
226 -224 252 l-24 26 2662 0 2662 0 -24 -26z m-5423 -463 c77 -68 142 -126
145 -129 3 -3 43 -39 90 -81 47 -41 155 -138 240 -214 85 -76 157 -140 159
-142 3 -2 5 -201 5 -443 l1 -440 -235 0 c-133 0 -251 -5 -273 -11 -48 -13
-102 -60 -129 -113 -22 -41 -22 -43 -22 -906 0 -939 -2 -910 56 -975 58 -67
66 -69 347 -75 l255 -5 0 -438 1 -438 -30 -24 c-16 -13 -46 -38 -65 -57 -20
-18 -71 -64 -114 -103 -44 -38 -84 -75 -90 -80 -6 -6 -54 -48 -106 -95 -52
-46 -111 -98 -130 -116 -105 -93 -169 -151 -205 -182 -22 -19 -52 -46 -67 -60
l-26 -24 0 2662 0 2662 26 -24 c15 -14 90 -81 167 -149z m5763 -2484 c0 -1460
-3 -2655 -7 -2655 -4 0 -16 8 -27 18 -10 9 -82 73 -159 142 -77 69 -145 130
-151 135 -6 6 -29 26 -50 45 -21 19 -84 75 -139 124 -55 49 -137 123 -182 164
-46 41 -90 80 -99 87 -16 11 -17 52 -18 441 -1 236 0 435 2 442 3 9 61 12 242
12 212 0 243 2 282 19 54 23 113 88 125 139 22 92 -25 197 -107 239 -27 13
-143 43 -290 74 -135 28 -247 53 -249 55 -6 6 -7 1014 -1 1024 3 5 84 25 180
45 375 79 389 83 435 153 32 49 44 114 31 172 -14 58 -84 133 -141 149 -24 6
-136 11 -275 11 l-235 0 1 441 c0 384 2 443 15 453 9 6 53 45 99 86 95 86 79
72 195 175 50 44 106 94 125 111 63 57 89 80 162 146 167 149 233 208 235 208
0 0 1 -1195 1 -2655z m-1183 1413 l1 -378 -491 -1 c-269 0 -499 -2 -510 -4
-11 -2 -36 -7 -55 -11 -19 -3 -48 -8 -65 -11 -16 -2 -46 -8 -65 -13 -19 -5
-111 -23 -205 -40 -224 -42 -203 -38 -345 -65 -69 -13 -136 -26 -150 -29 -14
-2 -74 -14 -135 -26 -60 -11 -155 -30 -210 -40 -55 -10 -217 -41 -360 -69
-143 -27 -274 -52 -292 -54 l-32 -5 1 97 c0 136 -21 184 -107 240 l-40 26
-265 3 -266 3 2 377 c1 207 2 377 3 377 0 1 808 1 1794 0 l1792 0 0 -377z m1
-1418 l0 -441 -31 6 c-16 2 -39 7 -50 9 -11 3 -108 23 -215 46 -107 23 -238
50 -290 62 -52 11 -106 22 -120 24 -14 2 -36 7 -50 10 -14 3 -32 7 -40 9 -8 2
-71 15 -140 30 -69 15 -136 29 -150 31 -14 3 -131 28 -260 55 -387 82 -601
127 -675 143 -38 8 -68 15 -65 16 11 4 40 10 110 25 59 13 71 15 88 19 9 3 64
14 122 26 58 12 114 24 125 26 11 3 31 7 45 10 14 3 99 21 190 40 91 20 176
38 189 40 24 5 336 71 376 79 28 6 115 24 145 30 14 3 41 8 60 12 19 4 37 8
40 8 3 1 14 4 25 7 11 4 36 9 55 13 19 3 139 27 265 54 127 27 235 50 240 50
8 1 11 -139 11 -439z m-2861 -680 c22 -5 56 -12 75 -15 29 -5 87 -15 110 -20
3 -1 25 -5 50 -9 25 -5 54 -10 65 -13 11 -2 31 -6 45 -9 14 -2 81 -15 150 -29
69 -13 233 -45 365 -70 132 -25 251 -47 265 -50 14 -3 39 -7 55 -10 17 -3 41
-8 55 -10 59 -12 77 -15 105 -20 17 -3 44 -8 60 -12 17 -3 37 -7 45 -8 8 -1
76 -14 150 -29 74 -14 146 -28 160 -31 14 -3 39 -8 55 -11 51 -12 66 -12 565
-13 l486 -1 -1 -377 0 -378 -1795 -1 -1796 0 1 372 c0 205 2 375 6 378 3 3
114 6 246 6 145 1 256 6 277 12 51 16 111 70 130 118 11 27 17 76 18 141 1 54
4 99 7 99 4 0 24 -5 46 -10z m3001 -1484 c7 -10 32 -39 56 -65 24 -25 97 -107
163 -181 66 -74 122 -137 125 -140 3 -3 43 -48 90 -100 46 -52 86 -97 89 -100
3 -3 35 -39 71 -80 36 -41 70 -79 75 -85 6 -5 21 -22 34 -37 l24 -27 -2657 0
c-1461 1 -2656 3 -2656 6 0 6 85 104 204 237 134 150 154 171 282 316 71 80
140 157 154 171 14 14 39 43 57 65 l32 39 1921 -1 c1844 0 1923 -1 1936 -18z"/>
</g>
</svg>
