<svg xmlns="http://www.w3.org/2000/svg" xmlns:xlink="http://www.w3.org/1999/xlink" width="686.013" height="269.39"><defs><linearGradient id="a"><stop offset="0" stop-color="#d0d0d0"/><stop offset=".5" stop-color="#d0d0d0"/><stop offset="1" stop-color="#fff"/></linearGradient><radialGradient cx="136.141" cy="475.641" r="24.047" fx="136.141" fy="475.641" id="bb" xlink:href="#a" gradientUnits="userSpaceOnUse" gradientTransform="matrix(1 0 0 .67251 0 155.765)" spreadMethod="pad"/><radialGradient cx="179.625" cy="464.781" r="14.531" fx="179.625" fy="464.781" id="ba" xlink:href="#a" gradientUnits="userSpaceOnUse" gradientTransform="matrix(1 0 0 .92473 0 34.984)" spreadMethod="pad"/><radialGradient cx="222.094" cy="454.328" r="23.906" fx="222.094" fy="454.328" id="aZ" xlink:href="#a" gradientUnits="userSpaceOnUse" gradientTransform="matrix(1 0 0 .6438 0 161.836)" spreadMethod="pad"/><radialGradient cx="130.625" cy="450.875" r="20.125" fx="130.625" fy="450.875" id="aY" xlink:href="#a" gradientUnits="userSpaceOnUse" gradientTransform="matrix(1 0 0 .7205 0 126.021)" spreadMethod="pad"/><radialGradient cx="169.438" cy="441.484" r="14.063" fx="169.438" fy="441.484" id="aX" xlink:href="#a" gradientUnits="userSpaceOnUse" gradientTransform="matrix(1 0 0 .90556 0 41.696)" spreadMethod="pad"/><radialGradient cx="202.094" cy="433.625" r="14.188" fx="202.094" fy="433.625" id="aW" xlink:href="#a" gradientUnits="userSpaceOnUse" gradientTransform="matrix(1 0 0 .88106 0 51.577)" spreadMethod="pad"/><radialGradient cx="234.141" cy="425.906" r="14.297" fx="234.141" fy="425.906" id="aV" xlink:href="#a" gradientUnits="userSpaceOnUse" gradientTransform="matrix(1 0 0 .85683 0 60.977)" spreadMethod="pad"/><radialGradient cx="137.906" cy="424.609" r="27.375" fx="137.906" fy="424.609" id="aU" xlink:href="#a" gradientUnits="userSpaceOnUse" gradientTransform="matrix(1 0 0 .5645 0 184.918)" spreadMethod="pad"/><radialGradient cx="265.594" cy="418.328" r="14.406" fx="265.594" fy="418.328" id="aT" xlink:href="#a" gradientUnits="userSpaceOnUse" gradientTransform="matrix(1 0 0 .83623 0 68.511)" spreadMethod="pad"/><radialGradient cx="184" cy="413.719" r="13.719" fx="184" fy="413.719" id="aS" xlink:href="#a" gradientUnits="userSpaceOnUse" gradientTransform="matrix(1 0 0 .86788 0 54.66)" spreadMethod="pad"/><radialGradient cx="296.5" cy="410.891" r="14.5" fx="296.5" fy="410.891" id="aR" xlink:href="#a" gradientUnits="userSpaceOnUse" gradientTransform="matrix(1 0 0 .81573 0 75.714)" spreadMethod="pad"/><radialGradient cx="215.453" cy="406.359" r="13.828" fx="215.453" fy="406.359" id="aQ" xlink:href="#a" gradientUnits="userSpaceOnUse" gradientTransform="matrix(1 0 0 .84633 0 62.446)" spreadMethod="pad"/><radialGradient cx="342.422" cy="425.031" r="93.734" fx="342.422" fy="425.031" id="aP" xlink:href="#a" gradientUnits="userSpaceOnUse" gradientTransform="matrix(1 0 0 .33872 0 281.063)" spreadMethod="pad"/><radialGradient cx="326.859" cy="403.594" r="14.578" fx="326.859" fy="403.594" id="aO" xlink:href="#a" gradientUnits="userSpaceOnUse" gradientTransform="matrix(1 0 0 .79743 0 81.757)" spreadMethod="pad"/><radialGradient cx="130.922" cy="402.953" r="22.047" fx="130.922" fy="402.953" id="aN" xlink:href="#a" gradientUnits="userSpaceOnUse" gradientTransform="matrix(1 0 0 .6173 0 154.213)" spreadMethod="pad"/><radialGradient cx="246.359" cy="399.141" r="13.922" fx="246.359" fy="399.141" id="aM" xlink:href="#a" gradientUnits="userSpaceOnUse" gradientTransform="matrix(1 0 0 .82492 0 69.883)" spreadMethod="pad"/><radialGradient cx="356.672" cy="396.406" r="14.672" fx="356.672" fy="396.406" id="aL" xlink:href="#a" gradientUnits="userSpaceOnUse" gradientTransform="matrix(1 0 0 .77742 0 88.231)" spreadMethod="pad"/><radialGradient cx="453.047" cy="397" r="17.891" fx="453.047" fy="397" id="aK" xlink:href="#a" gradientUnits="userSpaceOnUse" gradientTransform="matrix(1 0 0 .67424 0 129.328)" spreadMethod="pad"/><radialGradient cx="170.984" cy="393.781" r="13.297" fx="170.984" fy="393.781" id="aJ" xlink:href="#a" gradientUnits="userSpaceOnUse" gradientTransform="matrix(1 0 0 .85311 0 57.841)" spreadMethod="pad"/><radialGradient cx="276.703" cy="392.047" r="14.016" fx="276.703" fy="392.047" id="aI" xlink:href="#a" gradientUnits="userSpaceOnUse" gradientTransform="matrix(1 0 0 .80602 0 76.05)" spreadMethod="pad"/><radialGradient cx="385.969" cy="389.359" r="14.75" fx="385.969" fy="389.359" id="aH" xlink:href="#a" gradientUnits="userSpaceOnUse" gradientTransform="matrix(1 0 0 .75953 0 93.628)" spreadMethod="pad"/><radialGradient cx="487.672" cy="388.406" r="17.922" fx="487.672" fy="388.406" id="aG" xlink:href="#a" gradientUnits="userSpaceOnUse" gradientTransform="matrix(1 0 0 .65911 0 132.404)" spreadMethod="pad"/><radialGradient cx="201.797" cy="386.766" r="13.391" fx="201.797" fy="386.766" id="aF" xlink:href="#a" gradientUnits="userSpaceOnUse" gradientTransform="matrix(1 0 0 .83197 0 64.987)" spreadMethod="pad"/><radialGradient cx="306.547" cy="385.063" r="14.109" fx="306.547" fy="385.063" id="aE" xlink:href="#a" gradientUnits="userSpaceOnUse" gradientTransform="matrix(1 0 0 .78627 0 82.3)" spreadMethod="pad"/><radialGradient cx="120.875" cy="383.109" r="12.75" fx="120.875" fy="383.109" id="aD" xlink:href="#a" gradientUnits="userSpaceOnUse" gradientTransform="matrix(1 0 0 .86642 0 51.175)" spreadMethod="pad"/><radialGradient cx="414.766" cy="382.438" r="14.828" fx="414.766" fy="382.438" id="aC" xlink:href="#a" gradientUnits="userSpaceOnUse" gradientTransform="matrix(1 0 0 .74394 0 97.927)" spreadMethod="pad"/><radialGradient cx="232.078" cy="379.891" r="13.484" fx="232.078" fy="379.891" id="aB" xlink:href="#a" gradientUnits="userSpaceOnUse" gradientTransform="matrix(1 0 0 .81228 0 71.312)" spreadMethod="pad"/><radialGradient cx="521.578" cy="380" r="17.953" fx="521.578" fy="380" id="aA" xlink:href="#a" gradientUnits="userSpaceOnUse" gradientTransform="matrix(1 0 0 .64404 0 135.265)" spreadMethod="pad"/><radialGradient cx="335.859" cy="378.219" r="14.203" fx="335.859" fy="378.219" id="az" xlink:href="#a" gradientUnits="userSpaceOnUse" gradientTransform="matrix(1 0 0 .76788 0 87.793)" spreadMethod="pad"/><radialGradient cx="151.703" cy="376.297" r="12.859" fx="151.703" fy="376.297" id="ay" xlink:href="#a" gradientUnits="userSpaceOnUse" gradientTransform="matrix(1 0 0 .84447 0 58.525)" spreadMethod="pad"/><radialGradient cx="443.063" cy="375.625" r="14.906" fx="443.063" fy="375.625" id="ax" xlink:href="#a" gradientUnits="userSpaceOnUse" gradientTransform="matrix(1 0 0 .72746 0 102.372)" spreadMethod="pad"/><radialGradient cx="261.844" cy="373.141" r="13.594" fx="261.844" fy="373.141" id="aw" xlink:href="#a" gradientUnits="userSpaceOnUse" gradientTransform="matrix(1 0 0 .79195 0 77.63)" spreadMethod="pad"/><radialGradient cx="364.672" cy="371.469" r="14.266" fx="364.672" fy="371.469" id="av" xlink:href="#a" gradientUnits="userSpaceOnUse" gradientTransform="matrix(1 0 0 .75137 0 92.359)" spreadMethod="pad"/><radialGradient cx="554.781" cy="371.75" r="17.969" fx="554.781" fy="371.75" id="au" xlink:href="#a" gradientUnits="userSpaceOnUse" gradientTransform="matrix(1 0 0 .62957 0 137.71)" spreadMethod="pad"/><radialGradient cx="182.031" cy="369.594" r="12.969" fx="182.031" fy="369.594" id="at" xlink:href="#a" gradientUnits="userSpaceOnUse" gradientTransform="matrix(1 0 0 .82169 0 65.903)" spreadMethod="pad"/><radialGradient cx="470.875" cy="368.922" r="14.969" fx="470.875" fy="368.922" id="as" xlink:href="#a" gradientUnits="userSpaceOnUse" gradientTransform="matrix(1 0 0 .71086 0 106.672)" spreadMethod="pad"/><radialGradient cx="291.094" cy="366.484" r="13.656" fx="291.094" fy="366.484" id="ar" xlink:href="#a" gradientUnits="userSpaceOnUse" gradientTransform="matrix(1 0 0 .7746 0 82.606)" spreadMethod="pad"/><radialGradient cx="393" cy="364.859" r="14.344" fx="393" fy="364.859" id="aq" xlink:href="#a" gradientUnits="userSpaceOnUse" gradientTransform="matrix(1 0 0 .7353 0 96.58)" spreadMethod="pad"/><radialGradient cx="119.563" cy="361.641" r="12.25" fx="119.563" fy="361.641" id="ap" xlink:href="#a" gradientUnits="userSpaceOnUse" gradientTransform="matrix(1 0 0 .63903 0 130.541)" spreadMethod="pad"/><radialGradient cx="589.734" cy="363.078" r="15.672" fx="589.734" fy="363.078" id="ao" xlink:href="#a" gradientUnits="userSpaceOnUse" gradientTransform="matrix(1 0 0 .669 0 120.181)" spreadMethod="pad"/><radialGradient cx="211.844" cy="363" r="13.063" fx="211.844" fy="363" id="an" xlink:href="#a" gradientUnits="userSpaceOnUse" gradientTransform="matrix(1 0 0 .80383 0 71.21)" spreadMethod="pad"/><radialGradient cx="319.844" cy="359.938" r="13.75" fx="319.844" fy="359.938" id="am" xlink:href="#a" gradientUnits="userSpaceOnUse" gradientTransform="matrix(1 0 0 .75682 0 87.53)" spreadMethod="pad"/><radialGradient cx="420.859" cy="358.344" r="14.422" fx="420.859" fy="358.344" id="al" xlink:href="#a" gradientUnits="userSpaceOnUse" gradientTransform="matrix(1 0 0 .7194 0 100.554)" spreadMethod="pad"/><radialGradient cx="615.875" cy="356.594" r="15.719" fx="615.875" fy="356.594" id="ak" xlink:href="#a" gradientUnits="userSpaceOnUse" gradientTransform="matrix(1 0 0 .65606 0 122.646)" spreadMethod="pad"/><radialGradient cx="241.125" cy="356.531" r="13.156" fx="241.125" fy="356.531" id="aj" xlink:href="#a" gradientUnits="userSpaceOnUse" gradientTransform="matrix(1 0 0 .78385 0 77.065)" spreadMethod="pad"/><radialGradient cx="348.141" cy="353.516" r="13.828" fx="348.141" fy="353.516" id="ai" xlink:href="#a" gradientUnits="userSpaceOnUse" gradientTransform="matrix(1 0 0 .74011 0 91.874)" spreadMethod="pad"/><radialGradient cx="448.234" cy="351.938" r="14.484" fx="448.234" fy="351.938" id="ah" xlink:href="#a" gradientUnits="userSpaceOnUse" gradientTransform="matrix(1 0 0 .70334 0 104.404)" spreadMethod="pad"/><radialGradient cx="179.109" cy="348.844" r="12.234" fx="179.109" fy="348.844" id="ag" xlink:href="#a" gradientUnits="userSpaceOnUse" gradientTransform="matrix(1 0 0 .61814 0 133.211)" spreadMethod="pad"/><radialGradient cx="521.813" cy="356.828" r="38.125" fx="521.813" fy="356.828" id="af" xlink:href="#a" gradientUnits="userSpaceOnUse" gradientTransform="matrix(1 0 0 .41598 0 208.393)" spreadMethod="pad"/><radialGradient cx="641.578" cy="350.219" r="15.766" fx="641.578" fy="350.219" id="ae" xlink:href="#a" gradientUnits="userSpaceOnUse" gradientTransform="matrix(1 0 0 .6442 0 124.607)" spreadMethod="pad"/><radialGradient cx="269.953" cy="350.141" r="13.234" fx="269.953" fy="350.141" id="ad" xlink:href="#a" gradientUnits="userSpaceOnUse" gradientTransform="matrix(1 0 0 .76623 0 81.851)" spreadMethod="pad"/><radialGradient cx="375.969" cy="347.188" r="13.906" fx="375.969" fy="347.188" id="ac" xlink:href="#a" gradientUnits="userSpaceOnUse" gradientTransform="matrix(1 0 0 .7236 0 95.964)" spreadMethod="pad"/><radialGradient cx="475.172" cy="345.641" r="14.547" fx="475.172" fy="345.641" id="ab" xlink:href="#a" gradientUnits="userSpaceOnUse" gradientTransform="matrix(1 0 0 .6885 0 107.665)" spreadMethod="pad"/><radialGradient cx="208.156" cy="342.594" r="12.25" fx="208.156" fy="342.594" id="aa" xlink:href="#a" gradientUnits="userSpaceOnUse" gradientTransform="matrix(1 0 0 .60714 0 134.59)" spreadMethod="pad"/><radialGradient cx="298.297" cy="343.891" r="13.328" fx="298.297" fy="343.891" id="Z" xlink:href="#a" gradientUnits="userSpaceOnUse" gradientTransform="matrix(1 0 0 .74912 0 86.275)" spreadMethod="pad"/><radialGradient cx="403.328" cy="340.969" r="13.984" fx="403.328" fy="340.969" id="Y" xlink:href="#a" gradientUnits="userSpaceOnUse" gradientTransform="matrix(1 0 0 .70838 0 99.433)" spreadMethod="pad"/><radialGradient cx="501.672" cy="339.453" r="14.609" fx="501.672" fy="339.453" id="X" xlink:href="#a" gradientUnits="userSpaceOnUse" gradientTransform="matrix(1 0 0 .67487 0 110.368)" spreadMethod="pad"/><radialGradient cx="236.719" cy="336.453" r="12.25" fx="236.719" fy="336.453" id="W" xlink:href="#a" gradientUnits="userSpaceOnUse" gradientTransform="matrix(1 0 0 .59821 0 135.182)" spreadMethod="pad"/><radialGradient cx="326.172" cy="337.719" r="13.391" fx="326.172" fy="337.719" id="V" xlink:href="#a" gradientUnits="userSpaceOnUse" gradientTransform="matrix(1 0 0 .73279 0 90.242)" spreadMethod="pad"/><radialGradient cx="602.203" cy="337.313" r="15.234" fx="602.203" fy="337.313" id="U" xlink:href="#a" gradientUnits="userSpaceOnUse" gradientTransform="matrix(1 0 0 .6441 0 120.049)" spreadMethod="pad"/><radialGradient cx="684.359" cy="339.688" r="27.703" fx="684.359" fy="339.688" id="T" xlink:href="#a" gradientUnits="userSpaceOnUse" gradientTransform="matrix(1 0 0 .4625 0 182.584)" spreadMethod="pad"/><radialGradient cx="430.234" cy="334.859" r="14.047" fx="430.234" fy="334.859" id="S" xlink:href="#a" gradientUnits="userSpaceOnUse" gradientTransform="matrix(1 0 0 .693 0 102.804)" spreadMethod="pad"/><radialGradient cx="264.828" cy="330.406" r="12.234" fx="264.828" fy="330.406" id="R" xlink:href="#a" gradientUnits="userSpaceOnUse" gradientTransform="matrix(1 0 0 .59004 0 135.454)" spreadMethod="pad"/><radialGradient cx="353.594" cy="331.656" r="13.469" fx="353.594" fy="331.656" id="Q" xlink:href="#a" gradientUnits="userSpaceOnUse" gradientTransform="matrix(1 0 0 .71694 0 93.88)" spreadMethod="pad"/><radialGradient cx="721.125" cy="330.5" r="15.875" fx="721.125" fy="330.5" id="P" xlink:href="#a" gradientUnits="userSpaceOnUse" gradientTransform="matrix(1 0 0 .6063 0 130.118)" spreadMethod="pad"/><radialGradient cx="456.719" cy="328.828" r="14.094" fx="456.719" fy="328.828" id="O" xlink:href="#a" gradientUnits="userSpaceOnUse" gradientTransform="matrix(1 0 0 .6796 0 105.356)" spreadMethod="pad"/><radialGradient cx="380.578" cy="325.688" r="13.547" fx="380.578" fy="325.688" id="N" xlink:href="#a" gradientUnits="userSpaceOnUse" gradientTransform="matrix(1 0 0 .70127 0 97.293)" spreadMethod="pad"/><radialGradient cx="657.172" cy="324.094" r="15.328" fx="657.172" fy="324.094" id="M" xlink:href="#a" gradientUnits="userSpaceOnUse" gradientTransform="matrix(1 0 0 .61774 0 123.889)" spreadMethod="pad"/><radialGradient cx="307.422" cy="321.25" r="12.234" fx="307.422" fy="321.25" id="L" xlink:href="#a" gradientUnits="userSpaceOnUse" gradientTransform="matrix(1 0 0 .57471 0 136.624)" spreadMethod="pad"/><radialGradient cx="482.781" cy="322.906" r="14.156" fx="482.781" fy="322.906" id="K" xlink:href="#a" gradientUnits="userSpaceOnUse" gradientTransform="matrix(1 0 0 .66667 0 107.635)" spreadMethod="pad"/><radialGradient cx="407.125" cy="319.813" r="13.594" fx="407.125" fy="319.813" id="J" xlink:href="#a" gradientUnits="userSpaceOnUse" gradientTransform="matrix(1 0 0 .68736 0 99.987)" spreadMethod="pad"/><radialGradient cx="681.453" cy="318.25" r="15.359" fx="681.453" fy="318.25" id="I" xlink:href="#a" gradientUnits="userSpaceOnUse" gradientTransform="matrix(1 0 0 .6063 0 125.293)" spreadMethod="pad"/><radialGradient cx="334.406" cy="315.438" r="12.219" fx="334.406" fy="315.438" id="H" xlink:href="#a" gradientUnits="userSpaceOnUse" gradientTransform="matrix(1 0 0 .56522 0 137.147)" spreadMethod="pad"/><radialGradient cx="520.578" cy="324.156" r="26.234" fx="520.578" fy="324.156" id="G" xlink:href="#a" gradientUnits="userSpaceOnUse" gradientTransform="matrix(1 0 0 .71828 0 91.32)" spreadMethod="pad"/><radialGradient cx="433.266" cy="314.047" r="13.672" fx="433.266" fy="314.047" id="F" xlink:href="#a" gradientUnits="userSpaceOnUse" gradientTransform="matrix(1 0 0 .67314 0 102.648)" spreadMethod="pad"/><radialGradient cx="705.359" cy="312.484" r="15.391" fx="705.359" fy="312.484" id="E" xlink:href="#a" gradientUnits="userSpaceOnUse" gradientTransform="matrix(1 0 0 .59594 0 126.263)" spreadMethod="pad"/><radialGradient cx="360.953" cy="309.734" r="12.203" fx="360.953" fy="309.734" id="D" xlink:href="#a" gradientUnits="userSpaceOnUse" gradientTransform="matrix(1 0 0 .55698 0 137.22)" spreadMethod="pad"/><radialGradient cx="458.984" cy="308.344" r="13.734" fx="458.984" fy="308.344" id="C" xlink:href="#a" gradientUnits="userSpaceOnUse" gradientTransform="matrix(1 0 0 .65984 0 104.886)" spreadMethod="pad"/><radialGradient cx="552.313" cy="307.094" r="14.313" fx="552.313" fy="307.094" id="B" xlink:href="#a" gradientUnits="userSpaceOnUse" gradientTransform="matrix(1 0 0 .631 0 113.316)" spreadMethod="pad"/><radialGradient cx="737.266" cy="315.938" r="24.891" fx="737.266" fy="315.938" id="A" xlink:href="#a" gradientUnits="userSpaceOnUse" gradientTransform="matrix(1 0 0 .7445 0 80.72)" spreadMethod="pad"/><radialGradient cx="387.094" cy="304.109" r="12.188" fx="387.094" fy="304.109" id="z" xlink:href="#a" gradientUnits="userSpaceOnUse" gradientTransform="matrix(1 0 0 .55 0 136.85)" spreadMethod="pad"/><radialGradient cx="643.078" cy="306.391" r="14.859" fx="643.078" fy="306.391" id="y" xlink:href="#a" gradientUnits="userSpaceOnUse" gradientTransform="matrix(1 0 0 .60673 0 120.494)" spreadMethod="pad"/><radialGradient cx="576.875" cy="301.516" r="14.344" fx="576.875" fy="301.516" id="x" xlink:href="#a" gradientUnits="userSpaceOnUse" gradientTransform="matrix(1 0 0 .61983 0 114.628)" spreadMethod="pad"/><radialGradient cx="666.906" cy="300.813" r="14.906" fx="666.906" fy="300.813" id="w" xlink:href="#a" gradientUnits="userSpaceOnUse" gradientTransform="matrix(1 0 0 .59539 0 121.712)" spreadMethod="pad"/><radialGradient cx="426.734" cy="295.578" r="12.172" fx="426.734" fy="295.578" id="v" xlink:href="#a" gradientUnits="userSpaceOnUse" gradientTransform="matrix(1 0 0 .53787 0 136.596)" spreadMethod="pad"/><radialGradient cx="497.969" cy="299.797" r="26.781" fx="497.969" fy="299.797" id="u" xlink:href="#a" gradientUnits="userSpaceOnUse" gradientTransform="matrix(1 0 0 .43699 0 168.789)" spreadMethod="pad"/><radialGradient cx="601.047" cy="296.031" r="14.391" fx="601.047" fy="296.031" id="t" xlink:href="#a" gradientUnits="userSpaceOnUse" gradientTransform="matrix(1 0 0 .60803 0 116.034)" spreadMethod="pad"/><radialGradient cx="690.344" cy="295.328" r="14.938" fx="690.344" fy="295.328" id="s" xlink:href="#a" gradientUnits="userSpaceOnUse" gradientTransform="matrix(1 0 0 .58473 0 122.641)" spreadMethod="pad"/><radialGradient cx="451.844" cy="290.188" r="12.156" fx="451.844" fy="290.188" id="r" xlink:href="#a" gradientUnits="userSpaceOnUse" gradientTransform="matrix(1 0 0 .52956 0 136.515)" spreadMethod="pad"/><radialGradient cx="541.016" cy="290.203" r="13.891" fx="541.016" fy="290.203" id="q" xlink:href="#a" gradientUnits="userSpaceOnUse" gradientTransform="matrix(1 0 0 .6198 0 110.336)" spreadMethod="pad"/><radialGradient cx="629.656" cy="289.531" r="14.438" fx="629.656" fy="289.531" id="p" xlink:href="#a" gradientUnits="userSpaceOnUse" gradientTransform="matrix(1 0 0 .59524 0 117.191)" spreadMethod="pad"/><radialGradient cx="476.594" cy="284.859" r="12.156" fx="476.594" fy="284.859" id="o" xlink:href="#a" gradientUnits="userSpaceOnUse" gradientTransform="matrix(1 0 0 .52314 0 135.84)" spreadMethod="pad"/><radialGradient cx="565.094" cy="284.875" r="13.938" fx="565.094" fy="284.875" id="n" xlink:href="#a" gradientUnits="userSpaceOnUse" gradientTransform="matrix(1 0 0 .60762 0 111.778)" spreadMethod="pad"/><radialGradient cx="653.031" cy="284.219" r="14.469" fx="653.031" fy="284.219" id="m" xlink:href="#a" gradientUnits="userSpaceOnUse" gradientTransform="matrix(1 0 0 .58531 0 117.862)" spreadMethod="pad"/><radialGradient cx="500.969" cy="279.625" r="12.125" fx="500.969" fy="279.625" id="l" xlink:href="#a" gradientUnits="userSpaceOnUse" gradientTransform="matrix(1 0 0 .51546 0 135.488)" spreadMethod="pad"/><radialGradient cx="588.797" cy="279.641" r="13.984" fx="588.797" fy="279.641" id="k" xlink:href="#a" gradientUnits="userSpaceOnUse" gradientTransform="matrix(1 0 0 .59777 0 112.481)" spreadMethod="pad"/><radialGradient cx="676.047" cy="278.984" r="14.516" fx="676.047" fy="278.984" id="j" xlink:href="#a" gradientUnits="userSpaceOnUse" gradientTransform="matrix(1 0 0 .57374 0 118.921)" spreadMethod="pad"/><radialGradient cx="529.781" cy="273.422" r="12.125" fx="529.781" fy="273.422" id="i" xlink:href="#a" gradientUnits="userSpaceOnUse" gradientTransform="matrix(1 0 0 .50644 0 134.95)" spreadMethod="pad"/><radialGradient cx="706.313" cy="282.094" r="23.188" fx="706.313" fy="282.094" id="h" xlink:href="#a" gradientUnits="userSpaceOnUse" gradientTransform="matrix(1 0 0 .72642 0 77.177)" spreadMethod="pad"/><radialGradient cx="616.844" cy="273.422" r="14.031" fx="616.844" fy="273.422" id="g" xlink:href="#a" gradientUnits="userSpaceOnUse" gradientTransform="matrix(1 0 0 .58463 0 113.57)" spreadMethod="pad"/><radialGradient cx="553.375" cy="268.359" r="12.094" fx="553.375" fy="268.359" id="f" xlink:href="#a" gradientUnits="userSpaceOnUse" gradientTransform="matrix(1 0 0 .5 0 134.18)" spreadMethod="pad"/><radialGradient cx="639.781" cy="268.359" r="14.063" fx="639.781" fy="268.359" id="e" xlink:href="#a" gradientUnits="userSpaceOnUse" gradientTransform="matrix(1 0 0 .57444 0 114.202)" spreadMethod="pad"/><radialGradient cx="576.609" cy="263.359" r="12.078" fx="576.609" fy="263.359" id="d" xlink:href="#a" gradientUnits="userSpaceOnUse" gradientTransform="matrix(1 0 0 .49288 0 133.554)" spreadMethod="pad"/><radialGradient cx="662.375" cy="263.359" r="14.094" fx="662.375" fy="263.359" id="c" xlink:href="#a" gradientUnits="userSpaceOnUse" gradientTransform="matrix(1 0 0 .5643 0 114.745)" spreadMethod="pad"/><radialGradient cx="684.656" cy="258.438" r="14.125" fx="684.656" fy="258.438" id="b" xlink:href="#a" gradientUnits="userSpaceOnUse" gradientTransform="matrix(1 0 0 .55531 0 114.925)" spreadMethod="pad"/></defs><path fill="#ac9393" d="M0 0h686.013v269.39H0z"/><path d="M578.713 19.977l13.214 14.936 2.745-8.097-10.71-11.911z" fill="#535353"/><path d="M591.927 34.913l21.81-4.927-1.53-7.088-17.535 3.918z" fill="#5a5a5a"/><path d="M556.632 24.834l12.816 15.157 2.667-8.136-10.39-12.087z" fill="#505050"/><path d="M569.448 39.99l22.134-4.999-1.672-7.111-17.795 3.975z" fill="#5c5c5c"/><path d="M592.128 35.155l28.53 32.25 2.261-7.93-26.345-29.346z" fill="#4f4f4f"/><path d="M534.229 29.763l12.404 15.381 2.586-8.173-10.057-12.268z" fill="#4e4e4e"/><path d="M546.633 45.144l22.465-5.074-1.816-7.135-18.063 4.036z" fill="#5d5d5d"/><path d="M569.654 40.234l13.414 15.864 2.79-8.253-10.878-12.656z" fill="#525252"/><path d="M583.068 56.098l22.546-5.235-1.627-7.182-18.128 4.164z" fill="#595959"/><path d="M620.658 67.406l22.621-5.404-.348-7.257-20.012 4.73z" fill="#545454"/><path d="M473.935 27.344l7.28 10.107 2.644-7.607-5.903-8.06z" fill="#474747"/><path d="M481.216 37.45l22.69-4.962-1.791-6.597-18.256 3.953z" fill="#5d5d5d"/><path d="M511.496 34.764l11.98 15.611 2.501-8.212-9.713-12.452z" fill="#4b4b4b"/><path d="M523.475 50.375l22.804-5.15-1.966-7.158-18.336 4.096z" fill="#5f5f5f"/><path d="M546.832 45.391l12.989 16.105 2.706-8.292-10.534-12.85z" fill="#505050"/><path d="M559.82 61.496l22.892-5.315-1.778-7.205-18.407 4.228z" fill="#5b5b5b"/><path d="M583.283 56.353l14.056 16.623 2.923-8.374-11.402-13.265z" fill="#545454"/><path d="M597.339 72.976l22.972-5.488-1.576-7.252-18.473 4.366z" fill="#585858"/><path d="M450.842 32.31l6.987 10.256 2.542-7.637-5.666-8.181z" fill="#444"/><path d="M457.829 42.566l23.028-5.037-1.957-6.612-18.53 4.012z" fill="#5e5e5e"/><path d="M620.89 67.668l31.372 35.464 2.545-8.135-28.989-32.292z" fill="#515151"/><path d="M483.687 40.882l11.45 15.895 2.397-8.259-9.285-12.68z" fill="#484848"/><path d="M427.407 37.348l6.685 10.41 2.437-7.668-5.42-8.304z" fill="#414141"/><path d="M495.136 56.777l23.22-5.245-2.15-7.186-18.672 4.172z" fill="#606060"/><path d="M523.667 50.626l12.548 16.351 2.62-8.332L528.657 45.6z" fill="#4d4d4d"/><path d="M434.092 47.759l23.373-5.113-2.127-6.628-18.81 4.072z" fill="#606060"/><path d="M536.215 66.977l23.244-5.397-1.932-7.228-18.692 4.293z" fill="#5d5d5d"/><path d="M652.262 103.132l23.49-5.953-.161-7.396-20.784 5.214z" fill="#4f4f4f"/><path d="M560.029 61.755l13.614 16.88 2.836-8.413-11.044-13.472z" fill="#515151"/><path d="M573.643 78.636l23.333-5.574-1.733-7.274-18.764 4.434z" fill="#595959"/><path d="M612.308 90.68l23.415-5.759-1.519-7.32-18.83 4.582z" fill="#555"/><path d="M597.564 73.243l14.744 17.437 3.067-8.497-11.965-13.919z" fill="#555"/><path d="M460.201 46.05l10.993 16.135 2.307-8.297-8.916-12.874z" fill="#454545"/><path d="M398.773 43.505l6.308 10.6 2.307-7.706-5.116-8.455z" fill="#3d3d3d"/><path d="M471.194 62.185l23.576-5.325-2.309-7.209-18.96 4.237z" fill="#626262"/><path d="M405.08 54.104l23.8-5.205-2.339-6.646-19.153 4.146z" fill="#616161"/><path d="M495.32 57.032l11.997 16.655 2.511-8.38-9.732-13.29z" fill="#4a4a4a"/><path d="M536.416 67.24l13.157 17.145 2.747-8.453-10.676-13.685z" fill="#4f4f4f"/><path d="M507.317 73.687l23.68-5.498-2.125-7.255-19.044 4.374z" fill="#5e5e5e"/><path d="M549.573 84.385l23.701-5.661-1.893-7.297-19.061 4.505z" fill="#5a5a5a"/><path d="M628.03 109.273l23.872-6.05-1.453-7.387-19.2 4.816zM573.862 78.907l14.286 17.715 2.976-8.537-11.594-14.142z" fill="#535353"/><path d="M436.362 51.294l10.52 16.383 2.213-8.337-8.533-13.072z" fill="#424242"/><path d="M612.545 90.96l15.485 18.313 3.22-8.621-12.57-14.623z" fill="#575757"/><path d="M588.148 96.622l23.79-5.851-1.68-7.342-19.134 4.656z" fill="#565656"/><path d="M374.56 48.712l5.983 10.76 2.195-7.736-4.854-8.585z" fill="#393939"/><path d="M380.543 59.472l24.162-5.286-2.52-6.66-19.447 4.21z" fill="#626262"/><path d="M446.882 67.677l23.94-5.408-2.472-7.23-19.255 4.301z" fill="#636363"/><path d="M471.37 62.444l11.523 16.914 2.417-8.418-9.349-13.5z" fill="#474747"/><path d="M349.98 53.997l5.648 10.924 2.078-7.766-4.581-8.717z" fill="#363636"/><path d="M482.893 79.358l24.05-5.584-2.289-7.278-19.344 4.444z" fill="#606060"/><path d="M355.628 64.921l24.533-5.366-2.707-6.675-19.748 4.275z" fill="#636363"/><path d="M549.785 84.66l13.812 18 2.882-8.578-11.21-14.37z" fill="#505050"/><path d="M563.597 102.66l24.175-5.946-1.848-7.364-19.445 4.732z" fill="#585858"/><path d="M325.038 59.36l5.301 11.093 1.958-7.797-4.301-8.852z" fill="#323232"/><path d="M330.34 70.453l24.9-5.447-2.898-6.69-20.045 4.34z" fill="#646464"/><path d="M447.05 67.94l11.032 17.18 2.32-8.46-8.951-13.711z" fill="#444"/><path d="M315.936 73.603l-5.102-11.19-2.188-4.477 4.082 8.957z" fill="#010101"/><path d="M389.588 80.619l51.931-11.73-3.324-7.114-45.951 10.267z" fill="#666"/><path d="M380.213 63.646l9.375 16.973 2.656-8.577-7.617-13.54z" fill="#3f3f3f"/><path d="M458.082 85.12l24.43-5.673-2.458-7.3-19.652 4.514z" fill="#616161"/><path d="M578.336 121.867l49.305-12.496-2.13-7.28-43.625 10.942z" fill="#555"/><path d="M285.675 67.824l4.743 11.361 1.764-7.844-3.848-9.068z" fill="#2d2d2d"/><path d="M290.014 79.273l-4.736-11.364-2.463-4.458 3.785 9.098z" fill="#050505"/><path d="M20.32 124.88l.585 13.257.32-8.135-.477-10.592z" fill="#060606"/><path d="M290.418 79.185l25.518-5.582-3.208-6.71-20.546 4.448z" fill="#666"/><path d="M259.727 73.403l4.366 11.54 1.634-7.875-3.543-9.211zM50.698 131.62l-1.078-13.04-5.181-4.229.798 10.453z" fill="#292929"/><path d="M263.683 85.033l-4.36-11.543-2.745-4.436 3.477 9.242z" fill="#090909"/><path d="M355.148 69.16l8.848 17.24 1.882-8.468-7.18-13.76z" fill="#373737"/><path d="M563.819 102.949l14.517 18.918 3.55-8.834-11.795-15.105z" fill="#555"/><path d="M233.373 79.07l3.976 11.723 1.5-7.906-3.228-9.358z" fill="#252525"/><path d="M236.933 90.884l-3.97-11.726-3.037-4.413 3.16 9.39zM79.344 112.19l1.57 12.82.663-8.074-1.276-10.242z" fill="#0e0e0e"/><path d="M264.093 84.943l25.921-5.67-3.414-6.724-20.873 4.52zM20.905 138.137l29.793-6.517-5.46-6.816-24.012 5.198z" fill="#666"/><path d="M206.602 84.826l3.575 11.91 1.36-7.936-2.903-9.51zM109.726 118.709l-2.03-12.616-4.479-4.293 1.576 10.11z" fill="#202020"/><path d="M108.138 105.998l2.036 12.613.826-8.045-1.655-10.074z" fill="#121212"/><path d="M363.996 86.4l25.2-5.693-3.044-7.304-20.274 4.53z" fill="#676767"/><path d="M194.7 100.122l-3.343-12.018-3.505-4.376 2.648 9.627z" fill="#151515"/><path d="M138.515 112.412L136.033 100l-4.145-4.322 1.945 9.945z" fill="#1c1c1c"/><path d="M136.467 99.907l2.489 12.408.982-8.014-2.021-9.91z" fill="#161616"/><path d="M164.343 93.913l2.927 12.209 1.134-7.984-2.376-9.75z" fill="#1b1b1b"/><path d="M166.836 106.217l-2.92-12.213-3.82-4.349 2.302 9.784z" fill="#181818"/><path d="M237.35 90.793l26.333-5.76-3.628-6.737-21.206 4.591z" fill="#666"/><path d="M403.598 77.76l10.131 17.658 3.135-6.702-9.071-15.553z" fill="#3e3e3e"/><path d="M329.692 74.761l8.304 17.512 1.774-8.508-6.739-13.979z" fill="#343434"/><path d="M210.177 96.737l26.756-5.853-3.847-6.749-21.55 4.665zM80.914 125.01l28.812-6.301-4.933-6.8-23.216 5.027zM110.174 118.61l28.341-6.198-4.682-6.79L111 110.567zM167.27 106.122l27.43-6-4.2-6.767-22.096 4.783zM138.956 112.315l27.88-6.098-4.438-6.778-22.46 4.862z" fill="#676767"/><path d="M337.996 92.273l25.602-5.784-3.23-7.326-20.598 4.602z" fill="#686868"/><path d="M495.364 97.665l12.705 18.65 2.664-8.666-10.315-14.895z" fill="#4a4a4a"/><path d="M303.837 80.45l7.74 17.79 1.663-8.548-6.283-14.203z" fill="#303030"/><path d="M311.166 98.333l-7.731-17.795-2.067-3.827 6.184 14.252z" fill="#040404"/><path d="M413.73 95.418l8.288-1.925 1.894-6.4-7.048 1.623z" fill="#4e4e4e"/><path d="M508.07 116.315l25.056-6.162-2.235-7.41-20.158 4.906z" fill="#5c5c5c"/><path d="M378.217 83.495l9.593 17.94 2.035-8.568-7.787-14.324z" fill="#3a3a3a"/><path d="M21.075 142.657l.928 20.994.305-8.96-.756-16.78z" fill="#060606"/><path d="M533.728 110.352l13.9 19.297 2.907-8.752-11.288-15.415z" fill="#4f4f4f"/><path d="M547.628 129.649l25.166-6.378-2.013-7.452-20.246 5.078z" fill="#585858"/><path d="M277.586 86.225l7.158 18.076 1.546-8.587-5.812-14.434z" fill="#2c2c2c"/><path d="M284.326 104.396l-7.15-18.081-2.376-3.793 5.709 14.483z" fill="#080808"/><path d="M311.577 98.24l26.014-5.876-3.419-7.348-20.932 4.676z" fill="#696969"/><path d="M387.81 101.436l25.522-5.926-2.952-7.36-20.535 4.717z" fill="#656565"/><path d="M52.743 156.707l-1.707-20.642-5.233-3.459 1.264 16.554z" fill="#2a2a2a"/><path d="M51.502 135.963l1.718 20.636.464-8.917-1.398-16.493z" fill="#0a0a0a"/><path d="M422.018 93.493l10.987 18.736.664-8.713-9.757-16.423z" fill="#353535"/><path d="M250.903 92.095l6.556 18.37 1.427-8.63-5.323-14.668z" fill="#282828"/><path d="M257.034 110.56l-6.547-18.374-2.696-3.757 5.218 14.72z" fill="#0c0c0c"/><path d="M352.433 89.321l9.035 18.231 1.925-8.61-7.335-14.557z" fill="#373737"/><path d="M83.432 149.775l-2.47-20.293-4.836-3.508 1.889 16.272z" fill="#262626"/><path d="M81.42 129.381l2.482 20.288.616-8.876-2.02-16.212z" fill="#0e0e0e"/><path d="M433.005 112.23l31.27-7.47-4.028-7.52-26.578 6.276z" fill="#656565"/><path d="M284.744 104.301l26.422-5.968-3.614-7.37-21.262 4.75z" fill="#6a6a6a"/><path d="M223.79 98.06l5.934 18.67 1.304-8.67-4.819-14.91z" fill="#242424"/><path d="M229.292 116.827l-5.923-18.675-3.026-3.72 4.71 14.963z" fill="#111"/><path d="M113.598 142.96l-3.21-19.952-4.45-3.554 2.493 15.996z" fill="#222"/><path d="M110.84 122.909l3.22 19.947.763-8.834-2.618-15.939z" fill="#121212"/><path d="M196.24 104.12l5.289 18.978 1.175-8.71-4.296-15.158z" fill="#1f1f1f"/><path d="M201.09 123.198l-5.28-18.983-3.364-3.681 4.183 15.211z" fill="#151515"/><path d="M22.003 163.65l30.74-6.943-5.676-7.547-24.759 5.531z" fill="#6a6a6a"/><path d="M143.255 136.262l-3.923-19.622-4.077-3.598 3.076 15.728z" fill="#1e1e1e"/><path d="M139.775 116.543l3.934 19.616.905-8.793-3.196-15.672z" fill="#171717"/><path d="M168.238 110.281l4.623 19.293 1.043-8.751-3.756-15.412z" fill="#1b1b1b"/><path d="M172.415 129.675l-4.613-19.298-3.715-3.64 3.638 15.466z" fill="#191919"/><path d="M361.468 107.552l25.938-6.022-3.142-7.381-20.871 4.794z" fill="#666"/><path d="M257.459 110.465l26.867-6.07-3.817-7.39-21.623 4.83z" fill="#6a6a6a"/><path d="M508.273 116.615l13.366 19.62 2.801-8.793-10.855-15.675z" fill="#4c4c4c"/><path d="M326.236 95.241l8.458 18.528 1.81-8.65-6.867-14.796z" fill="#333"/><path d="M334.277 113.866l-8.448-18.533-1.858-3.737 6.766 14.848z" fill="#010101"/><path d="M521.64 136.235l25.59-6.485-2.2-7.473-20.59 5.165z" fill="#595959"/><path d="M396.402 99.764l10.266 18.756 2.174-8.68-8.335-14.98z" fill="#3d3d3d"/><path d="M53.22 156.599l30.212-6.824-5.417-7.53-24.331 5.437zM229.724 116.73l27.31-6.17-4.025-7.411-21.981 4.911zM83.902 149.669l29.696-6.708-5.167-7.51-23.913 5.342z" fill="#6b6b6b"/><path d="M406.668 118.52l25.946-6.197-2.894-7.418-20.878 4.934z" fill="#626262"/><path d="M334.694 113.769l26.364-6.121-3.338-7.402-21.216 4.873z" fill="#676767"/><path d="M201.529 123.098l27.763-6.271-4.24-7.432-22.348 4.993z" fill="#6b6b6b"/><path d="M299.617 101.257l7.86 18.832 1.691-8.691-6.383-15.041z" fill="#2f2f2f"/><path d="M307.053 120.187l-7.85-18.837-2.176-3.7 6.278 15.094z" fill="#060606"/><path d="M114.06 142.856l29.195-6.594-4.924-7.492-23.508 5.252z" fill="#6b6b6b"/><path d="M22.018 163.989l.978 22.154.106-9.039-.793-17.718z" fill="#040404"/><path d="M172.861 129.574l28.229-6.376-4.461-7.453-22.725 5.078zM143.709 136.159l28.706-6.484-4.69-7.472-23.11 5.163z" fill="#6b6b6b"/><path d="M370.19 105.853l9.69 19.066 2.06-8.722-7.87-15.229z" fill="#393939"/><path d="M272.564 107.37l7.242 19.144 1.568-8.732-5.882-15.292z" fill="#2b2b2b"/><path d="M279.375 126.614l-7.232-19.149-2.504-3.66 5.773 15.346z" fill="#0a0a0a"/><path d="M482.396 122.982l12.811 19.952 2.692-8.835-10.407-15.942z" fill="#484848"/><path d="M307.477 120.089l26.8-6.223-3.54-7.422-21.569 4.954z" fill="#676767"/><path d="M71.874 174.794l-2.243-21.565-4.919-3.372 1.702 17.3z" fill="#272727"/><path d="M70.134 153.115l2.257 21.56.574-9.024-1.836-17.236z" fill="#0d0d0d"/><path d="M495.207 142.934l26.028-6.596-2.393-7.492-20.943 5.253z" fill="#5b5b5b"/><path d="M245.067 113.584l6.602 19.463 1.44-8.773-5.362-15.549z" fill="#272727"/><path d="M379.88 124.92l26.378-6.302-3.091-7.437-21.228 5.016z" fill="#636363"/><path d="M251.23 133.149l-6.591-19.468-2.843-3.619 5.25 15.604z" fill="#0e0e0e"/><path d="M103.108 167.542l-3.035-21.192-4.71-3.381 2.343 17z" fill="#242424"/><path d="M100.539 146.244l3.046 21.187.732-8.981-2.477-16.937z" fill="#111"/><path d="M217.115 119.9l5.94 19.791 1.309-8.815-4.826-15.812z" fill="#232323"/><path d="M222.609 139.795l-5.93-19.796-3.19-3.575 4.709 15.869z" fill="#131313"/><path d="M343.547 112.042l9.094 19.383 1.941-8.763-7.385-15.484z" fill="#353535"/><path d="M279.806 126.514l27.247-6.327-3.748-7.443-21.93 5.038z" fill="#686868"/><path d="M133.767 160.423l-3.797-20.83-4.312-3.432 2.967 16.706z" fill="#202020"/><path d="M130.428 139.49l3.808 20.824.885-8.94-3.097-16.644z" fill="#161616"/><path d="M188.71 126.32l5.254 20.126 1.172-8.856-4.27-16.083z" fill="#1e1e1e"/><path d="M193.511 146.55l-5.243-20.13-3.554-3.53 4.149 16.14z" fill="#171717"/><path d="M163.897 153.427l-4.533-20.476-3.927-3.482 3.569 16.42z" fill="#1c1c1c"/><path d="M159.814 132.85l4.544 20.47 1.031-8.898-3.693-16.36z" fill="#1a1a1a"/><path d="M22.996 186.143l48.878-11.349-5.46-7.638-43.312 9.948z" fill="#686868"/><path d="M402.929 142.173l73.586-18.097-3.125-7.34-67.743 16.486z" fill="#606060"/><path d="M251.669 133.047l27.706-6.433-3.963-7.463-22.302 5.123z" fill="#696969"/><path d="M352.641 131.425l26.821-6.406-3.294-7.458-21.586 5.101z" fill="#656565"/><path d="M72.39 174.674l30.718-7.132-5.402-7.574-24.74 5.683z" fill="#696969"/><path d="M316.465 118.333l8.476 19.709 1.819-8.805-6.885-15.746z" fill="#323232"/><path d="M324.51 138.145l-8.466-19.714-2.03-3.586 6.777 15.803z" fill="#040404"/><path d="M392.449 122.26l10.48 19.913 2.718-8.95-8.522-15.907z" fill="#404040"/><path d="M223.054 139.691l28.177-6.542-4.185-7.483-22.682 5.21z" fill="#696969"/><path d="M103.585 167.431l30.182-7.008-5.142-7.556-24.308 5.583z" fill="#6a6a6a"/><path d="M23.012 186.5l1.035 23.415.773-9.321-.854-18.728z" fill="#090909"/><path d="M193.964 146.446l28.645-6.651-4.411-7.502-23.062 5.297zM134.236 160.314l29.661-6.887-4.891-7.538-23.885 5.486z" fill="#6a6a6a"/><path d="M444.885 132.212l11.988 20.437 3.128-9.044-9.751-16.327z" fill="#484848"/><path d="M164.358 153.32l29.153-6.77-4.648-7.52-23.474 5.392z" fill="#6a6a6a"/><path d="M288.933 124.729l7.836 20.042 1.691-8.846-6.366-16.015z" fill="#2d2d2d"/><path d="M456.873 152.649l32.524-8.243-3.222-7.366-26.174 6.565z" fill="#5d5d5d"/><path d="M324.941 138.042l27.276-6.515-3.503-7.478-21.954 5.188z" fill="#666"/><path d="M296.33 144.876l-7.826-20.048-2.37-3.54 6.254 16.072z" fill="#090909"/><path d="M365.397 128.724l9.866 20.253 2.102-8.872-8.016-16.185z" fill="#393939"/><path d="M260.938 131.232l7.173 20.385 1.559-8.888-5.829-16.29z" fill="#292929"/><path d="M267.664 151.723l-7.162-20.39-2.722-3.494 5.712 16.35z" fill="#0d0d0d"/><path d="M84.857 195.39l-2.646-22.641-5.508-3.069 2.01 18.178z" fill="#2b2b2b"/><path d="M82.574 172.665l2.655 22.636.659-9.14-2.162-18.104z" fill="#0e0e0e"/><path d="M296.769 144.771l27.741-6.626-3.72-7.497-22.33 5.277z" fill="#666"/><path d="M232.469 137.845l6.486 20.736 1.422-8.929-5.271-16.574z" fill="#252525"/><path d="M238.5 158.69l-6.475-20.742-3.084-3.445 5.15 16.635z" fill="#121212"/><path d="M116.594 187.809l-3.466-22.242-4.664-3.226 2.69 17.85z" fill="#242424"/><path d="M113.603 165.457l3.478 22.235.823-9.096-2.83-17.782z" fill="#131313"/><path d="M375.263 148.977l27.242-6.7-3.213-7.508-21.927 5.336z" fill="#626262"/><path d="M203.513 144.571l5.774 21.097 1.281-8.971-4.693-16.864z" fill="#202020"/><path d="M208.825 165.778l-5.762-21.102-3.46-3.394 4.568 16.927z" fill="#171717"/><path d="M147.886 180.334l-4.259-21.852-4.25-3.284 3.34 17.534z" fill="#202020"/><path d="M144.094 158.374l4.271 21.846.981-9.055-3.473-17.468z" fill="#171717"/><path d="M174.06 151.413l5.036 21.466 1.133-9.012-4.094-17.162z" fill="#1c1c1c"/><path d="M178.625 172.992l-5.024-21.472-3.848-3.34 3.964 17.226z" fill="#1b1b1b"/><path d="M24.047 209.915l60.81-14.525-6.144-7.532-53.893 12.736z" fill="#676767"/><path d="M411.977 140.308l11.246 20.868 2.995-9.098-9.15-16.673z" fill="#444"/><path d="M337.901 135.295l9.23 20.6 1.975-8.913-7.5-16.464z" fill="#353535"/><path d="M268.11 151.617l28.22-6.74-3.942-7.517-22.718 5.37z" fill="#676767"/><path d="M346.694 156.003l-9.22-20.606-1.822-3.464 7.388 16.525z" fill="#030303"/><path d="M423.223 161.176l33.229-8.42-3.49-7.386-26.744 6.708z" fill="#5e5e5e"/><path d="M238.955 158.581l28.71-6.858-4.173-7.534-23.115 5.463zM85.23 195.3l31.364-7.491-5.44-7.618-25.266 5.97z" fill="#676767"/><path d="M347.132 155.895l27.7-6.812-3.428-7.528-22.298 5.427z" fill="#636363"/><path d="M24.063 210.293l1.095 24.785-.327-9.181-.878-19.846z"/><path d="M309.924 141.98l8.57 20.958 1.845-8.956-6.965-16.751z" fill="#313131"/><path d="M209.287 165.668l29.213-6.978-4.41-7.552-23.522 5.559z" fill="#686868"/><path d="M318.049 163.047l-8.56-20.963-2.172-3.413 6.85 16.814z" fill="#070707"/><path d="M117.081 187.692l30.805-7.358-5.17-7.602-24.812 5.864zM179.096 172.88l29.73-7.102-4.655-7.57-23.942 5.659zM148.365 180.22l30.26-7.228-4.908-7.586-24.37 5.759z" fill="#686868"/><path d="M378.393 148.571l10.472 21.313 2.852-9.153-8.522-17.03z" fill="#3f3f3f"/><path d="M281.48 148.777l7.887 21.324 1.707-8.997-6.41-17.047z" fill="#2c2c2c"/><path d="M288.914 170.213l-7.876-21.33-2.536-3.36 6.29 17.11z" fill="#0c0c0c"/><path d="M388.425 169.995l-10.462-21.318-1.978-3.211 8.386 17.108z" fill="#030303"/><path d="M69.544 224.162l-2.31-24.186-4.807-3.074 1.751 19.42z" fill="#272727"/><path d="M318.495 162.938l28.199-6.935-3.654-7.545-22.7 5.524z" fill="#646464"/><path d="M67.783 199.845l2.325 24.179.596-9.291-1.894-19.349z" fill="#0c0c0c"/><path d="M388.865 169.884l33.928-8.598-3.765-7.405-27.311 6.85z" fill="#5f5f5f"/><path d="M252.53 155.696l7.178 21.7 1.567-9.04-5.836-17.35z" fill="#282828"/><path d="M259.246 177.509l-7.166-21.706-2.911-3.305 5.71 17.415z" fill="#101010"/><path d="M102.667 216.017l-3.197-23.744-4.994-2.992 2.464 19.067z" fill="#272727"/><path d="M99.962 192.155l3.21 23.737.776-9.25-2.614-18.991z" fill="#111"/><path d="M223.089 162.731l6.44 22.086 1.42-9.08-5.238-17.661z" fill="#242424"/><path d="M25.158 235.078l44.386-10.916-5.366-7.84-39.347 9.575zM289.367 170.101l28.682-7.054-3.882-7.562-23.093 5.62z" fill="#656565"/><path d="M229.06 184.933l-6.43-22.092-3.3-3.248 5.109 17.727z" fill="#151515"/><path d="M135.147 208.029l-4.05-23.314-4.55-3.06 3.162 18.719z" fill="#232323"/><path d="M131.58 184.6l4.064 23.307.944-9.207-3.307-18.646z" fill="#161616"/><path d="M193.128 169.891l5.678 22.482 1.267-9.123-4.618-17.98z" fill="#1f1f1f"/><path d="M198.328 192.49l-5.667-22.487-3.702-3.188 4.483 18.049z" fill="#1a1a1a"/><path d="M167.018 200.19l-4.873-22.895-4.117-3.125 3.835 18.379z" fill="#1e1e1e"/><path d="M162.62 177.182l4.886 22.889 1.11-9.166-3.975-18.308z" fill="#1b1b1b"/><path d="M344.087 157.012l9.659 21.772 2.706-9.207-7.864-17.401z" fill="#3b3b3b"/><path d="M353.282 178.901l-9.648-21.777-1.775-3.3 7.734 17.473z" fill="#030303"/><path d="M259.708 177.395l29.206-7.182-4.122-7.58-23.517 5.723zM70.108 224.024l32.559-8.007-5.727-7.669-26.236 6.385z" fill="#666"/><path d="M353.746 178.784l34.679-8.789-4.054-7.421-27.919 7.003z" fill="#616161"/><path d="M25.176 235.478l1.161 26.28.135-9.416-.943-21.048z" fill="#040404"/><path d="M229.53 184.817l29.716-7.308-4.367-7.596-23.93 5.823zM103.173 215.892l31.974-7.863-5.438-7.655-25.76 6.269zM198.806 192.373l30.254-7.44-4.621-7.613-24.366 5.93zM135.644 207.907l31.374-7.716-5.155-7.642-25.275 6.15zM167.506 200.07l30.822-7.58-4.886-7.626-24.826 6.041z" fill="#666"/><path d="M79.52 248.28l-2.655-25.52-5.254-2.751 2.017 20.506z" fill="#2a2a2a"/><path d="M77.379 222.634l2.67 25.513.67-9.41-2.176-20.426z" fill="#0e0e0e"/><path d="M113.405 239.693l-3.585-25.04-4.992-2.78 2.773 20.12z" fill="#272727"/><path d="M110.324 214.528l3.599 25.034.634-9.313-2.925-20.042z" fill="#111"/><path d="M26.337 261.759l53.184-13.479-5.893-7.765-47.156 11.827z" fill="#626262"/><path d="M164.566 226.727l-4.953-24.326-4.065-2.949 3.898 19.538z" fill="#1e1e1e"/><path d="M160.103 202.28l4.966 24.32 1.107-9.298-4.042-19.463z" fill="#1a1a1a"/><path d="M80.049 248.147l33.356-8.454-5.804-7.7-26.882 6.743zM165.07 226.6L353.281 178.9l-3.689-7.604-183.417 46.005z" fill="#636363"/><path d="M113.923 239.562l50.643-12.835-5.12-7.737-44.889 11.259z" fill="#646464"/><path d="M601.252 11.122l-17.281 3.781 10.687 11.906 17.563-3.906-10.97-11.781zm-22 4.812l-17.531 3.844 10.406 12.063 17.781-3.969-10.656-11.938zm-83.219 2l-18.062 3.844 5.875 8.063 18.28-3.938-6.093-7.969zm60.938 2.875l-17.813 3.907 10.063 12.25 18.062-4.032-10.312-12.125zm-83.938 2.032l-18.312 3.906 5.656 8.187 18.531-4.03-5.875-8.063zm61.281 2.906l-18.062 3.969 9.719 12.437 18.343-4.094-10-12.312zm81.625.031l-19.375 4.344 26.344 29.344 20.031-4.719-27-28.969zM449.721 27.81l-18.625 3.97 5.437 8.312 18.813-4.063-5.625-8.219zm143.125 3.375l-17.875 4 10.875 12.657 18.156-4.157-11.156-12.5zm-86.22.625l-18.374 4.032 9.281 12.687 18.688-4.187-9.594-12.532zm-85.405 2.094l-18.938 4.031 5.094 8.47 19.156-4.157-5.312-8.344zm148.906 2.375l-18.125 4.063 10.531 12.875 18.406-4.25-10.812-12.688zm-86.875.656l-18.656 4.094 8.906 12.844 18.969-4.219-9.22-12.719zm-86.125 2.094l-19.25 4.125 4.875 8.594 19.437-4.219-5.062-8.5zm149.937 2.438l-18.406 4.125 10.188 13.062 18.687-4.312-10.469-12.875zm-87.562.656l-18.938 4.156 8.532 13.063 19.25-4.313-8.844-12.906zm-86.844 2.156l-19.531 4.156 4.594 8.72 19.718-4.282-4.78-8.594zm234.406 2.844l-18.218 4.219 11.406 13.25 18.469-4.344-11.657-13.125zm-88.218.687l-18.75 4.22 9.718 13.28 19.063-4.375-10.031-13.125zm-89 .813l-45.22 9.875 7.626 13.531 45.937-10.25-8.343-13.156zm-82.032.937l-19.812 4.25 4.281 8.844 20.063-4.344-4.532-8.75zm236.094 2.907l-18.469 4.281 11.032 13.469 18.78-4.438-11.343-13.312zm-88.906.687l-19.031 4.281 9.343 13.5 19.344-4.437-9.656-13.344zm65.406 4.75l-18.75 4.344 10.656 13.687 19.063-4.5-10.969-13.53zm-251.75.031l-20.312 4.344 3.843 9.063 20.532-4.438-4.063-8.969zm337.25 0l-20.094 4.782 29 32.28 20.782-5.218-29.688-31.844zm-175.125.657l-19.344 4.343 8.97 13.72 19.655-4.5-9.28-13.563zm-92.156 1.218l-19.938 4.375 7.188 13.75 20.281-4.53-7.531-13.595zm-95.813 3.657l-20.625 4.406 3.532 9.187 20.875-4.5-3.782-9.093zm339.157.375l-18.563 4.437 11.969 13.906 18.812-4.593-12.218-13.75zm-268.688 1.53l-20.25 4.407 6.75 14 20.594-4.625-7.094-13.781zm87.031.47l-32.53 7.312 9.093 15.563 7.031-1.625 9.75 16.437 26.594-6.281-19.938-31.406zm-183.75 3.218l-20.937 4.47 3.219 9.343 21.218-4.563-3.5-9.25zm341.813.407l-18.844 4.468 11.594 14.157 19.125-4.657-11.875-13.968zm-270.844 1.53l-20.562 4.5 6.28 14.188 20.907-4.656-6.625-14.031zm74.719 3l-20.188 4.532 7.782 14.344 20.53-4.719-8.124-14.156zm-172.313.75l-21.312 4.532 2.906 9.531 21.563-4.687-3.157-9.375zm344.47.407l-19.126 4.563 11.188 14.375 19.468-4.75-11.53-14.188zm-273.032 1.563l-20.906 4.562 5.812 14.438 21.281-4.75-6.187-14.25zm75.187 3.062l-20.5 4.594 7.344 14.562 20.844-4.78-7.688-14.376zm261.032 1.625l-18.907 4.625 12.563 14.625 19.187-4.812-12.843-14.438zm-362.782 1.125l-21.25 4.625 5.313 14.688 21.625-4.844-5.688-14.469zm-86.968 1.188l-21.813 4.687 2.375 9.75 22.094-4.812-2.656-9.625zm162.625 1.937l-20.844 4.656 6.875 14.813 21.219-4.875-7.25-14.594zm262.562 1.75l-42.937 10.531 11.78 15.094 43.626-10.937-12.469-14.688zm-92.781.625l-19.844 4.719 10.313 14.906 20.156-4.906-10.625-14.719zm-272.469.406l-21.562 4.72 4.812 14.905 21.969-4.906-5.219-14.719zm-87.687 1.22l-22.188 4.75 2.031 9.905 22.47-4.875-2.313-9.78zm260.937.468l-20.531 4.75 8.344 14.969 20.875-4.938-8.688-14.781zm-97.062 1.469l-21.188 4.781 6.375 15.031 21.594-4.969-6.781-14.843zm-103.625 2.843l-21.938 4.782 4.281 15.187 22.375-5-4.718-14.969zm-88.47 1.25l-22.53 4.813 1.656 10.062 22.844-4.937-1.97-9.938zm263.063.47l-20.875 4.812 7.875 15.218 21.22-5-8.22-15.03zm-97.906 1.5l-21.531 4.843 5.875 15.281 21.937-5.031-6.28-15.094zm-104.594 2.874l-22.28 4.875 3.75 15.406 22.718-5.062-4.188-15.219zm366.72.063l-19.907 4.906 11.281 15.406 20.25-5.094-11.625-15.218zm-95.47.906l-66.562 15.812 8.531 15.907 67.719-16.469-9.688-15.25zm-360.468.312l-22.907 4.875 1.25 10.25 23.22-5.03-1.563-10.095zm265.187.47l-21.219 4.905 7.407 15.47 21.562-5.095-7.75-15.28zm-98.781 1.53l-21.875 4.907 5.344 15.562 22.312-5.125-5.781-15.344zm-105.531 2.938l-22.688 4.937 3.219 15.688 23.094-5.156-3.625-15.469zm369.75.062l-20.25 4.97 10.843 15.655 20.594-5.156-11.187-15.469zm-192.407 1.688l-21.562 5 6.875 15.75 21.969-5.188-7.282-15.562zm-99.656 1.562l-22.25 5 4.844 15.813 22.656-5.219-5.25-15.594zm-106.531 2.97l-23.031 5.062 2.593 15.937 23.532-5.25-3.094-15.75zm372.844.093l-20.594 5.031 10.406 15.938 20.938-5.25-10.75-15.72zM44.439 114.34l-23.687 5.062.469 10.594 24.03-5.188-.812-10.468zm269.563.5l-21.906 5.062 6.375 16.031 22.312-5.28-6.781-15.813zm-100.5 1.593l-22.625 5.063 4.25 16.094 23.062-5.313-4.687-15.844zm177.375 2.375l-21.531 5.125 8.03 16.157 21.907-5.313-8.406-15.969zm-284.938.657l-23.437 5.125 2.031 16.187 23.906-5.312-2.5-16zm370.032 1.5l-25.72 6.312 9.75 16.313 26.188-6.563-10.218-16.062zm-189.844.312l-22.281 5.156 5.812 16.282 22.719-5.344-6.25-16.094zm-101.406 1.625l-23.032 5.156 3.688 16.375 23.5-5.406-4.156-16.125zm178.78 2.406l-21.905 5.22 7.5 16.468 22.312-5.438-7.906-16.25zm-287.374.657l-23.844 5.218 1.406 16.5 24.313-5.437-1.875-16.281zm181.656 1.875l-22.687 5.25 5.28 16.562 23.126-5.469-5.719-16.343zm185.563 1.125l-26.282 6.437 9.157 16.688 26.75-6.719-9.625-16.406zm-287.907.5l-23.406 5.25 3.094 16.656 23.875-5.469-3.563-16.437zm180.22 2.468l-22.282 5.282 6.969 16.781 22.687-5.531-7.375-16.532zm-289.845.657l-24.25 5.312.75 16.781 24.75-5.53-1.25-16.563zm183.125 1.906l-23.062 5.344 4.687 16.843 23.532-5.53-5.157-16.657zm-103.28 1.656l-23.813 5.375 2.468 16.906 24.313-5.562-2.969-16.719zm284.343.969l-26.813 6.594 8.532 17.031 27.312-6.875-9.031-16.75zm-102.688 1.562l-22.656 5.375 6.406 17.032 23.094-5.594-6.844-16.813zm-107.718 2.594l-23.47 5.438 4.095 17.156 23.937-5.656-4.562-16.938zm-104.22 1.688l-24.25 5.437 1.845 17.25 24.75-5.687-2.344-17zm280.595 2.5l-27.375 6.718 7.843 17.407 27.938-7.032-8.406-17.093zm-97.47.062l-23.062 5.469 5.844 17.344 23.5-5.719-6.281-17.094zm-108.75 2.656l-23.874 5.5 3.469 17.47 24.375-5.75-3.97-17.22zm-105.03 1.688l-42.407 9.5.782 17.719 43.312-9.938-1.687-17.281zm184.437 2.625l-23.437 5.594 5.218 17.656 23.938-5.844-5.719-17.406zm92.688 1.312l-179.72 44.032 4.063 19.468 183.407-46-7.75-17.5zm-202.47 1.375l-24.312 5.625 2.844 17.782 24.813-5.844-3.344-17.563zm79.97 4.407l-23.907 5.687 4.625 17.969 24.375-5.938-5.093-17.718zm-110.875 2.75l-24.75 5.718 2.156 18.094 25.281-5.969-2.687-17.843zm80.5 4.468l-24.344 5.782 4 18.312 24.812-6.031-4.468-18.063zm-112.282 2.875l-52.718 12.188.843 18.719 53.907-12.719-2.032-18.188zm81.344 4.5l-24.75 5.875 3.313 18.625 25.28-6.125-3.843-18.375zm-31.5 7.47l-25.187 6 2.593 19 25.782-6.282-3.188-18.719zm-32.062 7.624l-25.657 6.094 1.875 19.375 26.25-6.406-2.468-19.063zm-32.032 7.625l-38.5 9.156.907 19.844 39.343-9.594-1.75-19.406zm93.094 2.563l-43.906 10.75 2.937 20.031 44.875-11.25-3.906-19.531zm-50.719 12.406l-26.28 6.437 2.187 20.438 26.875-6.75-2.782-20.125zm-33.218 8.125l-46.063 11.312.938 21.032 47.156-11.813-2.031-20.531z" fill="#ccc"/><path d="M687.813 250.594l-17.282 3.781 10.688 11.906 17.562-3.906-10.968-11.781z" fill="url(#b)" transform="translate(-86.56 -239.472)"/><path d="M665.813 255.406l-17.532 3.844 10.407 12.063 17.78-3.97-10.655-11.937z" fill="url(#c)" transform="translate(-86.56 -239.472)"/><path d="M582.594 257.406l-18.063 3.844 5.875 8.063 18.282-3.938-6.094-7.969z" fill="url(#d)" transform="translate(-86.56 -239.472)"/><path d="M643.531 260.281l-17.812 3.906 10.062 12.25 18.063-4.03-10.313-12.126z" fill="url(#e)" transform="translate(-86.56 -239.472)"/><path d="M559.594 262.313l-18.313 3.906 5.657 8.187 18.53-4.031-5.874-8.063z" fill="url(#f)" transform="translate(-86.56 -239.472)"/><path d="M620.875 265.219l-18.063 3.969 9.72 12.437 18.343-4.094-10-12.312z" fill="url(#g)" transform="translate(-86.56 -239.472)"/><path d="M702.5 265.25l-19.375 4.344 26.344 29.344 20.031-4.72-27-28.968z" fill="url(#h)" transform="translate(-86.56 -239.472)"/><path d="M536.281 267.281l-18.625 3.969 5.438 8.313 18.812-4.063-5.625-8.219z" fill="url(#i)" transform="translate(-86.56 -239.472)"/><path d="M679.406 270.656l-17.875 4 10.875 12.656 18.157-4.156-11.157-12.5z" fill="url(#j)" transform="translate(-86.56 -239.472)"/><path d="M593.188 271.281l-18.375 4.031 9.28 12.688 18.688-4.188-9.593-12.53z" fill="url(#k)" transform="translate(-86.56 -239.472)"/><path d="M507.781 273.375l-18.937 4.031 5.094 8.469 19.156-4.156-5.313-8.344z" fill="url(#l)" transform="translate(-86.56 -239.472)"/><path d="M656.688 275.75l-18.125 4.063 10.53 12.875 18.407-4.25-10.813-12.688z" fill="url(#m)" transform="translate(-86.56 -239.472)"/><path d="M569.813 276.406l-18.657 4.094 8.907 12.844 18.968-4.219-9.218-12.719z" fill="url(#n)" transform="translate(-86.56 -239.472)"/><path d="M483.688 278.5l-19.25 4.125 4.875 8.594L488.75 287l-5.063-8.5z" fill="url(#o)" transform="translate(-86.56 -239.472)"/><path d="M633.625 280.938l-18.406 4.125 10.187 13.062 18.688-4.313-10.469-12.875z" fill="url(#p)" transform="translate(-86.56 -239.472)"/><path d="M546.063 281.594l-18.938 4.156 8.531 13.063 19.25-4.313-8.843-12.906z" fill="url(#q)" transform="translate(-86.56 -239.472)"/><path d="M459.219 283.75l-19.531 4.156 4.593 8.719L464 292.344l-4.781-8.594z" fill="url(#r)" transform="translate(-86.56 -239.472)"/><path d="M693.625 286.594l-18.219 4.219 11.407 13.25 18.468-4.344-11.656-13.125z" fill="url(#s)" transform="translate(-86.56 -239.472)"/><path d="M605.406 287.281l-18.75 4.219 9.719 13.281 19.063-4.375-10.032-13.125z" fill="url(#t)" transform="translate(-86.56 -239.472)"/><path d="M516.406 288.094l-45.218 9.875 7.625 13.531 45.937-10.25-8.344-13.156z" fill="url(#u)" transform="translate(-86.56 -239.472)"/><path d="M434.375 289.031l-19.813 4.25 4.282 8.844 20.062-4.344-4.531-8.75z" fill="url(#v)" transform="translate(-86.56 -239.472)"/><path d="M670.469 291.938L652 296.217l11.031 13.47 18.782-4.438-11.344-13.313z" fill="url(#w)" transform="translate(-86.56 -239.472)"/><path d="M581.563 292.625l-19.032 4.281 9.344 13.5 19.344-4.437-9.657-13.344z" fill="url(#x)" transform="translate(-86.56 -239.472)"/><path d="M646.969 297.375l-18.75 4.344 10.656 13.687 19.063-4.5-10.97-13.531z" fill="url(#y)" transform="translate(-86.56 -239.472)"/><path d="M395.219 297.406l-20.313 4.344 3.844 9.063 20.531-4.438-4.062-8.969z" fill="url(#z)" transform="translate(-86.56 -239.472)"/><path d="M732.469 297.406l-20.094 4.781 29 32.282 20.781-5.219-29.687-31.844z" fill="url(#A)" transform="translate(-86.56 -239.472)"/><path d="M557.344 298.063L538 302.406l8.969 13.719 19.656-4.5-9.281-13.563z" fill="url(#B)" transform="translate(-86.56 -239.472)"/><path d="M465.188 299.281l-19.938 4.375 7.188 13.75 20.28-4.531-7.53-13.594z" fill="url(#C)" transform="translate(-86.56 -239.472)"/><path d="M369.375 302.938l-20.625 4.406 3.531 9.187 20.875-4.5-3.781-9.094z" fill="url(#D)" transform="translate(-86.56 -239.472)"/><path d="M708.531 303.313l-18.562 4.437 11.968 13.906 18.813-4.594-12.219-13.75z" fill="url(#E)" transform="translate(-86.56 -239.472)"/><path d="M439.844 304.844l-20.25 4.406 6.75 14 20.594-4.625-7.094-13.781z" fill="url(#F)" transform="translate(-86.56 -239.472)"/><path d="M526.875 305.313l-32.531 7.312 9.094 15.563 7.03-1.625 9.75 16.437 26.595-6.281-19.938-31.406z" fill="url(#G)" transform="translate(-86.56 -239.472)"/><path d="M343.125 308.531L322.187 313l3.22 9.344 21.218-4.563-3.5-9.25z" fill="url(#H)" transform="translate(-86.56 -239.472)"/><path d="M684.938 308.938l-18.844 4.468 11.593 14.156 19.125-4.656-11.875-13.969z" fill="url(#I)" transform="translate(-86.56 -239.472)"/><path d="M414.094 310.469l-20.563 4.5 6.281 14.187 20.907-4.656-6.625-14.031z" fill="url(#J)" transform="translate(-86.56 -239.472)"/><path d="M488.813 313.469L468.625 318l7.781 14.344 20.531-4.719-8.125-14.156z" fill="url(#K)" transform="translate(-86.56 -239.472)"/><path d="M316.5 314.219l-21.313 4.531 2.907 9.531 21.562-4.687-3.156-9.375z" fill="url(#L)" transform="translate(-86.56 -239.472)"/><path d="M660.969 314.625l-19.125 4.563 11.187 14.375 19.469-4.75-11.531-14.188z" fill="url(#M)" transform="translate(-86.56 -239.472)"/><path d="M387.938 316.188l-20.907 4.562 5.813 14.438 21.281-4.75-6.188-14.25z" fill="url(#N)" transform="translate(-86.56 -239.472)"/><path d="M463.125 319.25l-20.5 4.594 7.344 14.562 20.844-4.781-7.688-14.375z" fill="url(#O)" transform="translate(-86.56 -239.472)"/><path d="M724.156 320.875L705.25 325.5l12.563 14.625L737 335.312l-12.844-14.437z" fill="url(#P)" transform="translate(-86.56 -239.472)"/><path d="M361.375 322l-21.25 4.625 5.313 14.688 21.625-4.844L361.375 322z" fill="url(#Q)" transform="translate(-86.56 -239.472)"/><path d="M274.406 323.188l-21.812 4.687 2.375 9.75 22.094-4.813-2.657-9.625z" fill="url(#R)" transform="translate(-86.56 -239.472)"/><path d="M437.031 325.125l-20.844 4.656 6.875 14.813 21.22-4.875-7.25-14.594z" fill="url(#S)" transform="translate(-86.56 -239.472)"/><path d="M699.594 326.875l-42.938 10.531 11.782 15.094 43.625-10.938-12.47-14.687z" fill="url(#T)" transform="translate(-86.56 -239.472)"/><path d="M606.813 327.5l-19.844 4.719 10.312 14.906 20.157-4.906-10.625-14.719z" fill="url(#U)" transform="translate(-86.56 -239.472)"/><path d="M334.344 327.906l-21.563 4.719 4.813 14.906 21.969-4.906-5.22-14.719z" fill="url(#V)" transform="translate(-86.56 -239.472)"/><path d="M246.656 329.125l-22.187 4.75 2.031 9.906 22.469-4.875-2.313-9.781z" fill="url(#W)" transform="translate(-86.56 -239.472)"/><path d="M507.594 329.594l-20.531 4.75 8.343 14.969 20.875-4.938-8.687-14.781z" fill="url(#X)" transform="translate(-86.56 -239.472)"/><path d="M410.531 331.063l-21.187 4.78 6.375 15.032 21.594-4.969-6.782-14.844z" fill="url(#Y)" transform="translate(-86.56 -239.472)"/><path d="M306.906 333.906l-21.937 4.781 4.281 15.188 22.375-5-4.719-14.969z" fill="url(#Z)" transform="translate(-86.56 -239.472)"/><path d="M218.438 335.156l-22.532 4.813 1.656 10.062 22.844-4.937-1.969-9.938z" fill="url(#aa)" transform="translate(-86.56 -239.472)"/><path d="M481.5 335.625l-20.875 4.813 7.875 15.218 21.219-5-8.219-15.031z" fill="url(#ab)" transform="translate(-86.56 -239.472)"/><path d="M383.594 337.125l-21.531 4.844 5.875 15.281 21.937-5.031-6.281-15.094z" fill="url(#ac)" transform="translate(-86.56 -239.472)"/><path d="M279 340l-22.281 4.875 3.75 15.406 22.719-5.062L279 340z" fill="url(#ad)" transform="translate(-86.56 -239.472)"/><path d="M645.719 340.063l-19.907 4.906 11.282 15.406 20.25-5.094-11.625-15.219z" fill="url(#ae)" transform="translate(-86.56 -239.472)"/><path d="M550.25 340.969l-66.563 15.812 8.532 15.906 67.719-16.468-9.688-15.25z" fill="url(#af)" transform="translate(-86.56 -239.472)"/><path d="M189.781 341.281l-22.906 4.875 1.25 10.25 23.219-5.031-1.563-10.094z" fill="url(#ag)" transform="translate(-86.56 -239.472)"/><path d="M454.969 341.75l-21.219 4.906 7.406 15.469 21.563-5.094-7.75-15.281z" fill="url(#ah)" transform="translate(-86.56 -239.472)"/><path d="M356.188 343.281l-21.875 4.906 5.343 15.563 22.313-5.125-5.781-15.344z" fill="url(#ai)" transform="translate(-86.56 -239.472)"/><path d="M250.656 346.219l-22.687 4.937 3.219 15.688 23.093-5.156-3.625-15.47z" fill="url(#aj)" transform="translate(-86.56 -239.472)"/><path d="M620.406 346.281l-20.25 4.969L611 366.906l20.594-5.156-11.188-15.469z" fill="url(#ak)" transform="translate(-86.56 -239.472)"/><path d="M428 347.969l-21.563 5 6.875 15.75 21.97-5.188L428 347.97z" fill="url(#al)" transform="translate(-86.56 -239.472)"/><path d="M328.344 349.531l-22.25 5 4.844 15.813 22.656-5.219-5.25-15.594z" fill="url(#am)" transform="translate(-86.56 -239.472)"/><path d="M221.813 352.5l-23.032 5.063 2.594 15.937 23.531-5.25-3.094-15.75z" fill="url(#an)" transform="translate(-86.56 -239.472)"/><path d="M594.656 352.594l-20.593 5.031 10.406 15.938 20.937-5.25-10.75-15.72z" fill="url(#ao)" transform="translate(-86.56 -239.472)"/><path d="M131 353.813l-23.688 5.062.47 10.594 24.03-5.188-.812-10.469z" fill="url(#ap)" transform="translate(-86.56 -239.472)"/><path d="M400.563 354.313l-21.907 5.062 6.375 16.031 22.313-5.281-6.781-15.813z" fill="url(#aq)" transform="translate(-86.56 -239.472)"/><path d="M300.063 355.906l-22.625 5.063 4.25 16.094 23.062-5.313-4.688-15.844z" fill="url(#ar)" transform="translate(-86.56 -239.472)"/><path d="M477.438 358.281l-21.532 5.125 8.031 16.156 21.907-5.312-8.406-15.969z" fill="url(#as)" transform="translate(-86.56 -239.472)"/><path d="M192.5 358.938l-23.438 5.125 2.032 16.187L195 374.937l-2.5-16z" fill="url(#at)" transform="translate(-86.56 -239.472)"/><path d="M562.531 360.438l-25.718 6.312 9.75 16.313 26.187-6.563-10.219-16.063z" fill="url(#au)" transform="translate(-86.56 -239.472)"/><path d="M372.688 360.75l-22.282 5.156 5.813 16.281 22.719-5.343-6.25-16.094z" fill="url(#av)" transform="translate(-86.56 -239.472)"/><path d="M271.281 362.375l-23.031 5.156 3.688 16.375 23.5-5.406-4.157-16.125z" fill="url(#aw)" transform="translate(-86.56 -239.472)"/><path d="M450.063 364.781L428.156 370l7.5 16.469 22.313-5.438-7.906-16.25z" fill="url(#ax)" transform="translate(-86.56 -239.472)"/><path d="M162.688 365.438l-23.844 5.218 1.406 16.5 24.313-5.437-1.875-16.281z" fill="url(#ay)" transform="translate(-86.56 -239.472)"/><path d="M344.344 367.313l-22.688 5.25 5.281 16.562 23.125-5.469-5.718-16.344z" fill="url(#az)" transform="translate(-86.56 -239.472)"/><path d="M529.906 368.438l-26.281 6.437 9.156 16.688 26.75-6.72-9.625-16.406z" fill="url(#aA)" transform="translate(-86.56 -239.472)"/><path d="M242 368.938l-23.406 5.25 3.094 16.656 23.875-5.469L242 368.937z" fill="url(#aB)" transform="translate(-86.56 -239.472)"/><path d="M422.219 371.406l-22.281 5.281 6.968 16.782 22.688-5.531-7.375-16.532z" fill="url(#aC)" transform="translate(-86.56 -239.472)"/><path d="M132.375 372.063l-24.25 5.312.75 16.781 24.75-5.531-1.25-16.563z" fill="url(#aD)" transform="translate(-86.56 -239.472)"/><path d="M315.5 373.969l-23.063 5.344 4.688 16.843 23.531-5.531-5.156-16.656z" fill="url(#aE)" transform="translate(-86.56 -239.472)"/><path d="M212.219 375.625L188.406 381l2.469 16.906 24.313-5.562-2.97-16.719z" fill="url(#aF)" transform="translate(-86.56 -239.472)"/><path d="M496.563 376.594l-26.813 6.594 8.531 17.03 27.313-6.874-9.031-16.75z" fill="url(#aG)" transform="translate(-86.56 -239.472)"/><path d="M393.875 378.156l-22.656 5.375 6.406 17.031 23.094-5.593-6.844-16.813z" fill="url(#aH)" transform="translate(-86.56 -239.472)"/><path d="M286.156 380.75l-23.469 5.438 4.094 17.156 23.938-5.656-4.563-16.938z" fill="url(#aI)" transform="translate(-86.56 -239.472)"/><path d="M181.938 382.438l-24.25 5.437 1.843 17.25 24.75-5.688-2.344-17z" fill="url(#aJ)" transform="translate(-86.56 -239.472)"/><path d="M462.531 384.938l-27.375 6.718L443 409.062l27.938-7.03-8.407-17.094z" fill="url(#aK)" transform="translate(-86.56 -239.472)"/><path d="M365.063 385L342 390.469l5.844 17.344 23.5-5.72L365.063 385z" fill="url(#aL)" transform="translate(-86.56 -239.472)"/><path d="M256.313 387.656l-23.875 5.5 3.468 17.469 24.375-5.75-3.969-17.219z" fill="url(#aM)" transform="translate(-86.56 -239.472)"/><path d="M151.281 389.344l-42.406 9.5.781 17.719 43.313-9.938-1.688-17.281z" fill="url(#aN)" transform="translate(-86.56 -239.472)"/><path d="M335.719 391.969l-23.438 5.594 5.219 17.656 23.938-5.844-5.72-17.406z" fill="url(#aO)" transform="translate(-86.56 -239.472)"/><path d="M428.406 393.281l-179.719 44.031 4.063 19.47 183.406-46-7.75-17.5z" fill="url(#aP)" transform="translate(-86.56 -239.472)"/><path d="M225.938 394.656l-24.313 5.625 2.844 17.781 24.812-5.843-3.344-17.563z" fill="url(#aQ)" transform="translate(-86.56 -239.472)"/><path d="M305.906 399.063L282 404.75l4.625 17.969L311 416.78l-5.094-17.719z" fill="url(#aR)" transform="translate(-86.56 -239.472)"/><path d="M195.031 401.813l-24.75 5.718 2.156 18.094 25.282-5.969-2.688-17.844z" fill="url(#aS)" transform="translate(-86.56 -239.472)"/><path d="M275.531 406.281l-24.344 5.781 4 18.313L280 424.344l-4.469-18.063z" fill="url(#aT)" transform="translate(-86.56 -239.472)"/><path d="M163.25 409.156l-52.719 12.188.844 18.719 53.906-12.72-2.031-18.187z" fill="url(#aU)" transform="translate(-86.56 -239.472)"/><path d="M244.594 413.656l-24.75 5.875 3.312 18.625 25.281-6.125-3.843-18.375z" fill="url(#aV)" transform="translate(-86.56 -239.472)"/><path d="M213.094 421.125l-25.188 6 2.594 19 25.781-6.281-3.187-18.719z" fill="url(#aW)" transform="translate(-86.56 -239.472)"/><path d="M181.031 428.75l-25.656 6.094 1.875 19.375 26.25-6.406-2.469-19.063z" fill="url(#aX)" transform="translate(-86.56 -239.472)"/><path d="M149 436.375l-38.5 9.156.906 19.844 39.344-9.594-1.75-19.406z" fill="url(#aY)" transform="translate(-86.56 -239.472)"/><path d="M242.094 438.938l-43.906 10.75 2.937 20.03L246 458.469l-3.906-19.53z" fill="url(#aZ)" transform="translate(-86.56 -239.472)"/><path d="M191.375 451.344l-26.281 6.437 2.187 20.438 26.875-6.75-2.781-20.125z" fill="url(#ba)" transform="translate(-86.56 -239.472)"/><path d="M158.156 459.469l-46.062 11.312.937 21.031L160.187 480l-2.03-20.531z" fill="url(#bb)" transform="translate(-86.56 -239.472)"/></svg>