<svg id="svg2" version="1.1" viewBox="0 0 5461 2880" xmlns="http://www.w3.org/2000/svg"><g id="g362" stroke-width="7"><g id="g245" color="#000000"><path id="path239" d="m3483 1482s12.29 203 12.29 304.6c0 101.6-11.57 203-12.29 304.6-0.73 101.6 9.4 203 7.95 304.6-1.45 101.7-16.64 304.6-16.64 304.6-0.82 15.1 10.76 27.3 24.11 27.3h98.89c13.35 0 24.22-12.18 24.11-27.31 0 0-15.19-202.9-16.63-304.6-1.46-101.6 8.67-203 7.95-304.6s-12.3-203-12.3-304.6c0-101.6 12.3-304.6 12.3-304.6-3.82-44.11-128-40.62-129.8 0z" fill="#ececec" overflow="visible" stroke="#221c24" stroke-linecap="round" stroke-linejoin="round"/><path id="path241" d="m3736 1271h-245.8c-13.36 0-197.7 26.64-197.7 41.76v28.99c0 15.12 184.4 41.77 197.7 41.77h245.8c13.36 0 24.11-12.18 24.11-27.3v-57.93c0-15.13-10.75-27.3-24.11-27.3z" fill="#453748" overflow="visible"/><path id="path243" d="m3592 1358h-90.23c-13.36 0-23.38 12.2-24.11 27.3l-4.34 90.07c-0.73 15.1 10.76 27.3 24.11 27.3h98.89c13.35 0 24.83-12.2 24.11-27.31l-4.35-90.06c-0.72-15.1-10.76-27.3-24.11-27.3z" fill="#453748" overflow="visible"/></g><g id="g251" color="#000000"><path id="path247" d="m2566 1335c1.81 0 3.62 0.05 5.4 0.1l-42.17 98.89c-2.59 6.05 0.05 11.89 4.91 15l21.43 33.69 36.83 18.95 25.6 0.99c-1.15-10.1 2.38-19.04 7.3-27.63l42.29-99.08c28.92 27.69 47.34 67.11 50.04 110.8 1.55 25.27-0.17 47.49-4.64 66.64 17.96 5.02 30.07 11.35 26.42 16.78 0 0-7.6 7.52-18.81 20.7 1.3 3.32 1.96 6.85 1.95 10.41 0 11.93-7.1 34.12-15.81 34.12-11.94-5.59-10.34-12.64-15.22-6.91-18.81 26.82-38.88 61.05-51.58 98.79-25.31 75.11-13.44 232.7-13.44 232.7-2.02 6.96-5.14 13.09-11.49 13.09h-91.56c-6.36 0-11.48-5.84-11.48-13.09v-249.8c0-28.08-35.15-101.8-61.87-146.2v-0.01c-18.13-25.17-28.77-55.38-28.77-89.64 0-83.72 60.94-139.1 144.6-139.1zm12.93 211.7c-3.46-0.1-6.96 2.11-8.64 5.78l-2.97 6.45 2.68 0.72c0.83 0.22 1.54 0.77 1.97 1.51s0.55 1.63 0.32 2.46l-2.94 11.01 12.96 6.01 3.32-12.41c0.22-0.83 0.77-1.54 1.51-1.97 0.75-0.43 1.64-0.55 2.47-0.32l5.33 1.44c0.83 0.22 1.54 0.76 1.97 1.51 0.43 0.74 0.55 1.63 0.33 2.46l-3.86 14.42 8.85 4.09 2.81-10.45c0.22-0.83 0.76-1.53 1.51-1.96 0.74-0.43 1.62-0.55 2.45-0.33l5.36 1.43c0.83 0.22 1.54 0.76 1.97 1.51s0.55 1.63 0.32 2.46l-3.35 12.47 10.33 4.78 3.18-11.88c0.22-0.84 0.76-1.55 1.51-1.98 0.74-0.43 1.63-0.55 2.46-0.32l5.34 1.42c0.83 0.22 1.54 0.77 1.97 1.51 0.44 0.75 0.55 1.64 0.33 2.47l-3.73 13.91 11.15 5.16 9.35-20.34c2.16-4.7 0.49-9.97-3.72-11.82l-69.68-30.56c-0.9-0.39-1.87-0.61-2.86-0.64zm-42.2 78.79-6.83 14.86c-2.15 4.69-0.51 9.96 3.71 11.8l69.68 30.57c4.22 1.84 9.34-0.43 11.5-5.14l6.04-13.14-1.86-0.86-2.03 7.6c-0.22 0.83-0.77 1.54-1.51 1.96-0.75 0.43-1.64 0.55-2.47 0.32l-5.35-1.42c-1.73-0.47-2.76-2.24-2.3-3.98l2.58-9.6-10.31-4.78-2.43 9.02c-0.46 1.73-2.24 2.76-3.97 2.3l-5.33-1.43c-0.84-0.22-1.55-0.77-1.98-1.51-0.44-0.75-0.55-1.64-0.33-2.47l2.96-11.04-8.85-4.09-1.89 7.07c-0.22 0.83-0.77 1.54-1.51 1.97-0.75 0.42-1.63 0.54-2.46 0.31l-5.35-1.42c-0.84-0.22-1.55-0.77-1.98-1.51-0.43-0.75-0.54-1.64-0.32-2.47l2.44-9.09-12.96-6.01-2.82 10.49c-0.47 1.74-2.23 2.75-3.98 2.29l-5.35-1.43c-0.83-0.22-1.54-0.77-1.96-1.51-0.43-0.75-0.54-1.64-0.32-2.46l3.35-12.51z" fill="#ececec" overflow="visible" stroke="#221c24" stroke-linecap="round" stroke-linejoin="round"/><path id="path249" d="m2498 1865c4.86 0.01 11.64 2.59 17.26 4.46l104.9 34.68c10 3.29 24.56 7.09 24.56 17.61-0.05 15.4 2.04 30.82-1.99 46.28-2.83 10.87-12.18 21.75-12.25 32.65-0.16 26.4 13.52 52.87 13.31 79.38-0.21 26.53-14.33 53.1-14.57 79.7s13.38 53.23 13.13 79.86c-0.26 26.63-14.37 53.26-14.61 79.86-0.23 26.6 13.44 53.18 13.25 79.71s-14.21 53.01-14.34 79.41c-0.12 26.41 13.67 52.73 13.64 78.95-0.04 27.57 0 55.01 0.09 82.31 0 31.7-16.91 60.98-44.36 76.83-27.44 15.84-61.26 15.84-88.71 0-27.44-15.85-44.35-45.13-44.35-76.83l31.48-720.4s0.22-7.4-0.19-10.28c-0.46-3.33-2.01-4.96-2.63-8.01-2-9.81 0-30.03 0-30.03 0-4.61 2.61-6.14 6.4-6.12zm53.65 760.5c-10.08 0-19.4 5.37-24.44 14.11-5.04 8.73-5.04 19.49 0 28.22s14.36 14.11 24.44 14.11c15.59 0 28.22-12.64 28.22-28.22 0-15.59-12.63-28.22-28.22-28.22z" fill="#453748" overflow="visible"/></g><path id="path253" d="m2228 1322c3.83 0.01 6.43 2.15 4.8 8.96l-16.73 86.69c5.74 19.93 36.39 34.44 53.35 37.31 17.54 2.97 56.86-1.75 60.83-15.26l15.76-81.57c1.94-9.56 8.09-8.9 12.72-0.95 12.95 23.54 17.9 52.07 19.77 78.94 1.61 23.21-2.74 43.07-24.76 81.53-22.03 38.46-40.46 79.8-40.46 117.4v866.7c0 37.43 37.19 101.6 37.92 138.2 0 31.93-17.04 61.44-44.69 77.41-27.66 15.97-61.74 15.97-89.39 0-27.66-15.97-44.7-45.48-44.7-77.41 4.66-47.05 43.62-105.4 43.62-138.2v-866.7c0-6.44-4.19-71.23-33.16-116.7-28.96-45.5-33.83-63.21-33.83-82.22 0-41.06 29.52-85.65 67.9-110.9 3.25-1.53 7.6-3.18 11-3.17zm35.13 1244c-8.43 0.1-7.74 7.83-15.86 10.11s-11.54-4.69-18.79-0.4c-7.25 4.31-2.77 10.66-8.67 16.69-5.89 6.03-12.35 1.7-16.48 9.05s2.93 10.62 0.84 18.79-9.84 7.66-9.74 16.1c0.1 8.42 7.83 7.71 10.11 15.84 2.28 8.11-4.69 11.53-0.38 18.8 4.29 7.25 10.64 2.77 16.67 8.65 6.04 5.9 1.72 12.36 9.08 16.49 7.34 4.13 10.6-2.92 18.76-0.84 8.18 2.09 7.66 9.84 16.1 9.74 8.43-0.09 7.73-7.83 15.84-10.11 8.12-2.28 11.55 4.7 18.81 0.4 7.24-4.3 2.77-10.65 8.67-16.68 5.89-6.03 12.35-1.71 16.48-9.06s-2.93-10.62-0.84-18.79 9.84-7.66 9.74-16.09-7.85-7.73-10.12-15.84c-2.28-8.12 4.69-11.54 0.38-18.8-4.29-7.25-10.64-2.79-16.67-8.68-6.04-5.88-1.71-12.33-9.07-16.46-7.35-4.13-10.61 2.91-18.78 0.82-8.17-2.08-7.65-9.83-16.08-9.73zm-235.2-905h-3.92s-9.92 12.82-9.92 15.18v466.3c0 1.13 0.45 2.22 1.25 3.02s1.89 1.25 3.02 1.25h15.22c1.13 0 2.22-0.45 3.02-1.25s1.25-1.89 1.25-3.02v-466.3c0-2.36-9.92-15.18-9.92-15.18z" color="#000000" fill="#ececec" overflow="visible" stroke="#221c24" stroke-linecap="round" stroke-linejoin="round"/><path id="path255" d="m2026 2127c14.88 0 44.4 4.73 44.4 4.73 3.08 0 5.57 4.88 5.74 11.06l0.12 0.04c3.61 0 8.45 22.24 8.45 22.24s1.71 21.88 0.52 32.77c-1.39 12.66-9.38 23.94-11.04 36.57-1.39 10.63 0.04 21.47 1.03 32.14 1.68 18.11 8.34 70.27 8.34 70.27 0.37 2.35 23.79 190.9 22.96 195.3 0 0 5.01 133.6-34.77 180-10.53 12.28-29.49 16.36-45.66 16.36-16.18 0-35.16-4.08-45.69-16.36-39.77-46.41-34.76-180-34.76-180-0.84-4.34 22.59-192.9 22.95-195.3 0 0 6.66-52.16 8.34-70.27 0.99-10.66 2.43-21.52 1.03-32.14-1.66-12.63-9.6-23.92-11.01-36.57-1.21-10.88 0.33-32.77 0.33-32.77s4.87-21.6 8.45-22.24l0.12-0.03c0.16-6.17 2.68-10.75 5.74-11.07 0 0 29.52-4.73 44.4-4.73z" color="#000000" fill="#453748" overflow="visible"/><path id="path257" d="m2038 1675v29.53l-7.86-32.16-2.05-12.55zm-11.87-15.18-0.87 11.77-4.67 31.38-1.56-29.04z" fill="#453748"/><g id="g27"><g id="g265" color="#000000"><path id="path259" d="m3876 765c0.59-0.023 1.19-0.017 1.78 0.019 5.9 0.341 11.25 3.57 14.3 8.629l15.22 24.45c0.18-3.103 2.03-5.497 4.12-5.381l25.74 1.454c2.11 0.117 3.66 2.705 3.48 5.808v0.446l17.88-22.58c3.92-5.164 10.33-7.806 16.75-6.907 6.42 0.9 11.85 5.2 14.2 11.24 2.35 6.043 1.25 12.88-2.87 17.89l-31.64 39.97c-3.58 4.524-9.13 7.043-14.89 6.767l-7.27 128.9c5.76 4.667 9.09 11.69 9.07 19.1v1355c0 8.87-4.65 16.61-11.66 20.94v23.88c0 13.62-7.25 24.59-16.26 24.59s-16.26-10.97-16.26-24.59v-23.88c-7.26-4.48-11.67-12.41-11.65-20.94v-1355c0-7.766 3.57-14.67 9.16-19.17l7.39-131c-5.61-0.487-10.67-3.586-13.65-8.367l-27.24-43.72c-3.48-5.398-3.8-12.24-0.84-17.94s8.74-9.376 15.15-9.641zm40.27 242.7c-0.92 4.05-4.52 6.91-8.67 6.91s-7.74-2.86-8.67-6.91c-0.98 2.82-0.54 5.93 1.19 8.36 1.72 2.43 4.51 3.88 7.49 3.89 2.98-0.01 5.77-1.45 7.49-3.89 1.72-2.43 2.16-5.55 1.17-8.36zm-2.46 1330c-3.02 0-5.84 1.47-7.58 3.93s-2.18 5.6-1.19 8.45c0.93-4.1 4.57-7.01 8.78-7.01 4.2 0 7.84 2.91 8.77 7.01 1-2.85 0.56-6-1.19-8.46-1.74-2.47-4.57-3.93-7.58-3.93z" fill="#ececec" overflow="visible" stroke="#221c24" stroke-linecap="round" stroke-linejoin="round"/><path id="path261" d="m3867 827.1 416.1 34.8c2.91 0.242 5.8 0.776 8.6 1.59 90.76 26.56 135.5 93.04 156.8 155.6 1.51 4.46 2.28 9.13 2.28 13.83v1214h-85.94v-1206c-16.03-45.18-34.81-74.85-93.53-93.03l-411.3-34.42s-4.13-3.131-5.29-5.352c-0.85-1.609-1-5.351-1-5.351l5.18-64.25s0.82-3.781 1.88-5.352c1.52-2.249 6.15-5.351 6.15-5.351z" fill="#453748" font-family="Sans" font-weight="400" overflow="visible" style="text-indent:0;text-transform:none"/><path id="path263" d="m4451 2246v259.5c0 112.2-72.83 123.5-72.83 123.5l-450.2 92.76c-107.5 28.82-125.4-50.06-125.4-122.1 0-191.2 193.3-268.3 316.2-304.3 153.1-53.33 246.2-49.32 246.2-49.32zm-165.7 59.96s-42.37-1.32-118.9 22.48c-58.37 17.13-241.5 70.39-241.5 159.7 0 34.22-0.51 64.99 50.59 51.3l314.2-65.56s34.62-5.38 34.62-58.68v-83.36c-5.75-18.27-18.71-26.93-38.97-25.88z" fill="#453748" font-family="Sans" font-weight="400" overflow="visible" style="text-indent:0;text-transform:none"/></g><g id="g271" color="#000000"><path id="path267" d="m1854 1645c1.04 0 2.04 0.42 2.77 1.15 0.74 0.74 1.15 1.74 1.15 2.78v80.55c0 2.18 5.63 3.79 5.74 8.07l12.78 492.9s-0.19 8.85 2.42 11.97c2.05 2.47 12.56 2.27 16.27 3.57 7.42 2.58 7.03 11.37 3.63 15.53-2.67 3.25-12.19 4.14-16.03 4.14h-3.24c1.22 32.77 6.76 167 17.86 241.9 0.65 4.41-0.17 8.66 0.62 13.04 0.77 4.31 3.96 13.04 3.96 13.04 2.47 57.15-2.14 124.7 0 181.8 0.27 7.22-11.2 13.05-21.79 13.05h-66.59c-10.6 0-22.06-5.83-21.79-13.05 2.14-57.15-2.48-124.7 0-181.8 0 0 3.19-8.73 3.96-13.04 0.79-4.38-0.04-8.63 0.61-13.04 11.1-74.97 16.64-209.1 17.87-241.9h-2.51c-4.04 0-13.9-0.74-16.74-4.14-3.46-4.13-3.79-12.95 3.62-15.53 3.71-1.3 14.23-1.1 16.29-3.57 2.62-3.12 2.39-11.97 2.39-11.97l12.79-492.9c0.11-4.28 5.74-5.89 5.74-8.07v-80.55c0-1.04 0.42-2.04 1.16-2.78 0.73-0.74 1.73-1.15 2.78-1.15z" fill="#453748" overflow="visible"/><path id="path269" d="m1854 1645c1.04 0 2.04 0.42 2.77 1.15 0.74 0.74 1.15 1.74 1.15 2.78v80.55c0.02 0.4 0.18 0.78 0.45 1.08h-23.04c0.27-0.3 0.43-0.68 0.45-1.08v-80.55c0-1.04 0.42-2.04 1.16-2.78 0.73-0.74 1.73-1.15 2.78-1.15z" fill="#ececec" overflow="visible" stroke="#221c24" stroke-linecap="round" stroke-linejoin="round"/></g><g id="g287" color="#000000"><path id="path273" d="m274.7 2043c0-10.57 9.278-19.08 20.8-19.08h116.4c11.52 0 20.8 8.51 20.8 19.08v14.16c0 10.57-9.278 19.08-20.8 19.08h-24.43v63.22h-64.32v-63.22h-27.71c-11.52 0-20.8-8.51-20.8-19.08zm396.3 242.7c24.46-14.82 11.23-30.13 77.21-47.38 13.67-3.56 55.55-17.25 92.66-18.28 127.5-3.56 257.9-7.64 401.5-31.35 19.62-3.25 31.76 0.05 44.21 4.06 9.26 2.98 48.93-0.53 38.37-8.8l-31.6-24.79c-10.55-8.28-192.1 5.87-201.8 5.08-122.7-10.15-245.8-31.18-368.2-22.27-132 9.58-138.2 0.87-182.5-0.81-7.669-1.26-6.021 2.49-5.187 8.32 13.34 89.77 50.23 185.8 135.4 136.2z" fill="#ececec" overflow="visible" stroke="#221c24" stroke-linecap="round" stroke-linejoin="round"/><path id="path275" d="m281.5 2296c0.155-75.72 0.378-136.6 0.378-211.4-8e-3 -1.51 0.585-2.96 1.649-4.04 1.064-1.07 2.511-1.68 4.022-1.68h6.089c1.511 0 2.958 0.61 4.022 1.68 1.063 1.08 1.657 2.53 1.649 4.04v8.16h180.4c4.838 0 8.726 3.88 8.726 8.73v54.17c19.8 5 49.86 10.57 68.4 27.12 41.49 37.01 129.3 125.6 214.1 125.6h353.2c140 0 224.5 28.16 224.5 137.9v274.2c0 4.83-3.89 8.72-8.73 8.72h-1049c-4.838 0-8.997-3.89-8.997-8.72 0-141.4-0.805-282.9-0.756-424.2zm358.7 214.9c0 43.95 50.68 79.33 113.6 79.33h348.5c62.94 0 113.6-35.39 113.6-79.33 0-43.96-50.68-79.35-113.6-79.35h-348.5c-62.94 0-113.6 35.39-113.6 79.35z" fill="#453748" overflow="visible"/><path id="path277" d="m1287 2637v48.03c0 13.42 7.83 24.22 17.57 24.22h41.15c9.74 0 17.58-10.8 17.58-24.22v-48.03c0-13.42-7.84-24.22-17.58-24.22h-41.15c-9.74 0-17.57 10.8-17.57 24.22zm-1005-535.7c0-4.83 3.878-8.73 8.715-8.73h163.2v160.8c0 13.42-5.187 24.22-11.61 24.22h-90.5c-6.438 0-25.04-14.33-29.61-26.94-16.7-46.15-33.52-81.93-40.18-131.4v-18.01z" fill="#ccc" overflow="visible"/><path id="path279" d="m582.1 2336c0.05-9.93 4.752-19.25 12.7-25.19 3.936-3.18 8.551-0.9 8.551-0.9v12.97c7.672-4.23 17.29-2.12 22.49 4.92v-16.3s4.887-1.97 8.086 0.79c6.852 5.98 10.8 14.61 10.84 23.71 0 11.19-5.972 21.54-15.67 27.13-9.695 5.6-21.64 5.6-31.33 0-9.695-5.59-15.67-15.94-15.67-27.13zm5.089 6.02v0.4c0.029 0.97 0.291 1.94 0.815 2.85l5.002 8.67c0.795 1.38 2.107 2.39 3.646 2.8s3.179 0.19 4.556-0.61l0.475-0.27c0.868-0.5 1.595-1.21 2.114-2.07-6.544-3.36-10.29-10.45-9.375-17.74-1.299-0.18-2.618 0.09-3.752 0.74l-0.475 0.28c-1.852 1.07-2.918 2.96-3.006 4.95zm35.18 10.12c0.396 1.57 1.41 2.91 2.811 3.72l0.485 0.27c1.376 0.8 3.014 1.02 4.551 0.61 1.538-0.41 2.848-1.42 3.641-2.8l5.012-8.67c0.799-1.38 1.016-3.02 0.603-4.56s-1.422-2.85-2.803-3.64l-0.466-0.28c-2.22-1.28-5.011-1.01-6.941 0.68 0.249 5.73-2.327 11.21-6.893 14.68zm-207.5 238c0.047 9.92 4.746 19.25 12.69 25.19 3.936 3.18 8.551 0.9 8.551 0.9v-12.97c7.672 4.23 17.29 2.12 22.49-4.93v16.31s4.876 1.97 8.085-0.79c6.853-5.98 10.8-14.62 10.84-23.71 0-11.19-5.972-21.54-15.67-27.13-9.695-5.6-21.64-5.6-31.33 0-9.695 5.59-15.67 15.94-15.67 27.13zm5.08-6.02c-0.045-1.14 0.234-2.26 0.804-3.25l5.013-8.67c0.795-1.38 2.107-2.39 3.646-2.8s3.178-0.2 4.556 0.6l0.465 0.28c0.875 0.5 1.608 1.21 2.133 2.07-6.548 3.35-10.3 10.44-9.385 17.74-1.299 0.17-2.618-0.09-3.752-0.74l-0.475-0.28c-1.786-1.03-2.922-2.89-3.005-4.95zm35.17-10.12c0.402-1.57 1.423-2.92 2.831-3.72l0.475-0.28c1.376-0.79 3.014-1.01 4.552-0.6 1.537 0.41 2.847 1.42 3.64 2.8l5.003 8.67c0.8 1.38 1.018 3.02 0.607 4.55-0.411 1.54-1.418 2.85-2.798 3.65l-0.465 0.28c-2.288 1.31-5.061 0.97-6.942-0.68 0.25-5.73-2.326-11.22-6.893-14.68zm798.9 4.52c0.05 9.92 4.75 19.24 12.7 25.18 3.93 3.17 8.55 0.9 8.55 0.9v-12.98c7.67 4.23 17.29 2.13 22.49-4.92v16.31s4.88 1.96 8.09-0.79c6.85-5.97 10.8-14.61 10.83-23.7 0-11.2-5.97-21.54-15.66-27.14-9.7-5.6-21.64-5.6-31.34 0-9.69 5.6-15.66 15.94-15.66 27.14zm5.09-6.03c-0.05-1.14 0.23-2.27 0.8-3.25l5.01-8.67c0.8-1.38 2.11-2.39 3.65-2.8 1.54-0.42 3.18-0.2 4.56 0.6l0.46 0.27c0.87 0.5 1.61 1.22 2.13 2.08-6.55 3.35-10.3 10.45-9.38 17.75-1.3 0.17-2.62-0.1-3.75-0.76l-0.49-0.28c-1.78-1.02-2.91-2.89-2.99-4.94zm35.17-10.12c0.4-1.58 1.42-2.92 2.83-3.73l0.48-0.27c1.37-0.8 3.01-1.02 4.55-0.6 1.54 0.41 2.85 1.42 3.64 2.8l5 8.68c0.8 1.37 1.01 3.01 0.6 4.54-0.41 1.54-1.41 2.85-2.79 3.64l-0.47 0.29c-2.28 1.31-5.06 0.96-6.94-0.68 0.25-5.72-2.32-11.21-6.89-14.67zm9.85-56.25c4.96 0 9.54-2.64 12.01-6.93 2.48-4.29 2.48-9.58 0-13.88-2.47-4.29-7.05-6.93-12.01-6.93s-9.54 2.64-12.02 6.93c-2.47 4.3-2.47 9.59 0 13.88 2.48 4.29 7.06 6.93 12.02 6.93zm-769.2 92.49c4.957 0 9.537-2.64 12.02-6.93s2.478-9.58 0-13.88c-2.478-4.29-7.058-6.93-12.02-6.93-4.956 0-9.536 2.64-12.02 6.93-2.478 4.3-2.478 9.59 0 13.88 2.479 4.29 7.059 6.93 12.02 6.93z" fill="#ececec" overflow="visible" stroke="#221c24" stroke-linecap="round" stroke-linejoin="round"/><path id="path281" d="m636.4 2728 5.604-37.86c0.466-3.13 5.332-8.02 8.386-7.23l51.95 13.49c3.054 0.79 5.681 2.53 5.681 5.68v25.92z" fill="#b3b3b3" overflow="visible"/><path id="path283" d="m1241 2385c3.7 0 7.11-1.97 8.96-5.17s1.85-7.14 0-10.34-5.26-5.17-8.96-5.17c-5.71 0-10.34 4.63-10.34 10.34s4.63 10.34 10.34 10.34z" fill="#ececec" overflow="visible" stroke="#221c24" stroke-linecap="round" stroke-linejoin="round"/><path id="path285" d="m1218 2148 14.61 226.1c0.09 1.51 0.77 2.92 1.91 3.92 1.13 1 2.62 1.51 4.13 1.41l3.27-0.2c1.52-0.1 2.92-0.81 3.92-1.95 0.99-1.14 1.49-2.64 1.38-4.15l-14.61-226.1c-0.09-1.51-0.78-2.92-1.91-3.92s-2.61-1.51-4.12-1.42l-3.28 0.22c-1.51 0.1-2.92 0.8-3.92 1.94-0.99 1.15-1.49 2.64-1.38 4.15z" fill="#b3b3b3" overflow="visible"/></g></g><g id="g295"><path id="path289" d="m5227 2483c-0.41 12.65-11.98 18.06-31.18 21.43l-45.34-25.5c-16.83-4.85-39.43-9.56-78.4 15.11-98.7 73.11-198.5 138.2-304.2 154.9-27.29 7.1-53.14 16.48-68.01 43.45l-16.25 31.08c-14.41 5.96-25.06 8-45.63-2.27-45.8-123.2-69.82-235.1-85.55-348.3-0.43-10.49-8.27-28.71-15.81-37.41l-27.44-25.03 213.3-323.6 329.3-60.79c62.15 138.4 102.6 230.6 175.1 555.8 0.01 0.41 0.01 0.82 0 1.24zm-170.5-203.2c-37.35-155.3-128.3-142.9-254.5-65.35-82.89 57.07-253.7 166.4-132.2 281.8 28 26.42 44.16 36.13 79.5 8.17 64.97-73.98 137.5-132 238-160.2 36.63-10.19 67.69-14.94 69.25-64.54z" fill="#453748"/><path id="path291" d="m5041 1928-318.5 58.77-213.3 323.6v-17.61h-4.99l-11.1-12.67 10.96-4.38-10.95-12.51 10.95-4.41-10.95-12.5 10.95-4.4-10.95-12.51 10.95-4.39-10.95-12.5 10.95-4.4-10.95-12.5 10.95-4.39-10.95-12.51 10.95-4.4-10.95-12.51 10.95-4.39-10.95-12.51 10.95-4.39-10.95-12.51 10.95-4.39-10.95-12.5 10.95-4.4-10.95-12.5 10.95-4.4-10.95-12.51 10.95-4.39-10.95-12.51 10.95-4.39-10.95-12.51 10.95-4.39-10.95-12.51 10.95-4.39-10.95-12.5 10.95-4.41-10.95-12.5 10.95-4.39-10.95-12.51 10.95-4.39-10.95-12.52 10.95-4.38-10.95-12.52 10.95-4.39-10.95-12.5 10.95-4.4-10.95-12.5 10.95-4.4-10.95-12.51 10.95-4.4-10.95-12.51 10.95-4.39-10.95-12.51 10.95-4.39-10.95-12.51 10.95-4.39-10.95-12.5 10.95-4.41-10.95-12.49 10.95-4.4-10.95-12.51 10.95-4.39-10.95-12.51 10.95-4.39-10.95-12.51 10.95-4.39-10.95-12.51 10.95-4.4-10.95-12.5 10.95-4.4-10.95-12.5 10.95-4.39-10.95-12.51 10.95-4.39-10.95-12.51 10.95-4.39-10.95-12.51 10.95-4.4-10.95-12.51 10.95-4.39-10.95-12.5 10.95-4.4-10.95-12.5 10.95-4.39-10.95-12.52 10.95-4.38-10.95-12.52 10.95-4.39-10.95-12.51 10.95-4.4-10.95-12.51 10.95-4.4-10.95-12.5 10.95-4.4-10.95-12.5 10.95-4.39-10.95-12.51 10.95-4.39-10.95-12.51 10.95-4.39-10.95-12.51 10.95-4.4-10.95-12.51 10.95-4.39-10.95-12.5 10.95-4.4-10.95-12.5 10.95-4.39-10.95-12.51 10.95-4.39-10.95-12.51 10.95-4.4-10.95-12.51 10.95-4.39-10.95-12.51 10.95-4.39-10.95-12.5 10.95-4.4-10.95-12.5 10.95-4.4-10.95-12.51 10.95-4.39-10.95-12.51 10.95-4.39-10.95-12.52 10.95-4.38-10.95-12.51 10.95-4.39-10.95-12.51 10.95-4.4-10.95-12.5 10.95-4.4-10.95-12.51 10.95-4.4-10.95-12.51 10.95-4.39-10.95-12.51 10.95-4.39-10.95-12.5 10.95-4.4-10.95-12.5 10.95-4.39-10.95-12.51 10.95-4.4-10.95-12.51 10.95-4.39-10.95-12.51 10.95-4.39-10.95-12.51 10.95-4.39-10.95-12.5 10.95-4.4-10.95-12.5 10.95-4.4-10.95-12.51 10.95-4.392-10.95-12.51 10.95-4.391-10.95-12.51 10.95-4.392-10.95-12.51 10.95-4.392-10.95-12.51 10.95-4.401-10.95-12.51 10.95-4.392-10.95-12.51 10.95-4.392-10.95-12.52 10.95-4.382-10.95-12.52 10.95-4.401-10.95-12.51 10.95-4.392-10.95-12.51 10.95-4.392-10.95-12.51 10.95-4.402-10.95-12.51 10.95-4.391-10.95-12.51 10.95-4.392-10.95-12.51 10.95-4.392-10.95-12.51 10.95-4.401-10.95-12.5 10.95-4.402-10.95-12.51 10.95-4.392-10.95-12.51 10.95-4.391-10.95-12.51 10.95-4.392-10.95-12.51 10.95-4.402-10.95-12.51 10.95-4.392-10.95-12.51 10.95-4.392-10.95-12.51 10.95-4.392-10.95-12.51 10.95-4.391-10.95-12.51 10.95-4.401-10.95-12.51 10.95-4.392-10.95-12.51 10.95-4.392-10.95-12.52 10.95-4.383-10.95-12.52 10.95-4.382-10.95-12.53 10.95-4.382-10.95-12.51 10.95-4.401-10.95-12.51 10.95-4.401-10.95-12.51 10.95-4.392-10.95-12.51 10.95-4.392-10.95-12.51 10.95-4.391-10.95-12.51 10.95-4.392-10.95-12.51 10.95-4.402-10.95-12.51 10.95-4.392-10.95-12.51 10.95-4.392-10.95-12.51 10.95-4.392-10.95-12.51 10.95-4.401-10.95-12.5 10.95-4.401-10.95-12.51 10.95-4.392-10.95-12.51 10.95-4.392-10.95-12.51 10.95-4.392-10.95-12.51 10.95-4.402-10.95-12.51 10.95-4.392-10.95-12.51c16.67-8.076 23.69-5.351 37.16-5.022 70.77 40.91 144.3 115.4 178 173.9zm-428.3-1589c-0.01-0.487-0.05-0.974-0.14-1.454-10-55.63-17.44-81.76-21.93-86.25-8.47-8.474-12.71-16.08-32.16-16.08-9.84 2.23-15.83 13.95-11.8 23.22 13.4 27.36 27.02 54.62 40.52 81.94 1.66 4.266 4.7 8.347 9.4 9.423 7.22 2.211 16.19-3.558 16.11-10.81z" color="#000000" fill="#ececec" overflow="visible" stroke="#221c24" stroke-linecap="round" stroke-linejoin="round"/><path id="path293" d="m4605 2232-15.04 18.66 8.65 22.36 23.68 3.68 15.03-18.66-8.64-22.36zm174.4-186.2-7.5 22.76 15.96 17.88 23.46-4.88 7.51-22.76-15.96-17.89zm187.5-63.22-8.27 22.49 15.35 18.42 23.62-4.09 8.28-22.49-15.35-18.42z" color="#000000" fill="#ececec" overflow="visible" stroke="#221c24" stroke-linecap="round" stroke-linejoin="round"/></g><g id="g305" color="#000000"><path id="path297" d="m1594 1680c2.34 0 3.42 2.03 4.23 4.22l45.84 125.2h0.06v86.9l-10.77 5.69c4.02 8.26 5.96 14.14 6.26 21.64 0.35 8.29-1.75 16.9-4.93 24.4l9.44 5.69v92.33l-60.79 25.61v-85.05h-12.74v87.88l-60.79-28.44v-92.33l9.43-5.69c-3.17-7.5-5.26-16.11-4.92-24.4 0.3-7.5 2.24-13.38 6.25-21.64l-10.76-5.69v-86.9h0.06l45.84-125.2c0.8-2.19 1.89-4.22 4.22-4.22h13.77v171.6h6.55v-171.6z" fill="#ececec" overflow="visible" stroke="#221c24" stroke-linecap="round" stroke-linejoin="round"/><path id="path299" d="m1650 2037c4.2-2.07 14.21 0.33 15.52 5.68 8.25 33.5 34.26 53.33 51.75 51.19 7.52-0.91 10.72 13.94 8.37 21.16-4.15 12.75-28.4 9.3-33.99 21.49-2.51 5.46 1.63 15.29 2.64 17.84 49.64 124.5 69.39 258.7 41.08 434.3-7.26 46.43 3.86 56.58-14.9 122.9-6.74 23.87-39.82 14.61-68.4 17.2-4.32 0.4-8.62-0.93-11.95-3.71-3.33-2.77-5.41-6.76-5.79-11.08l-6.89-75.9c-0.64-6.84 3.08-13.34 9.29-16.26 46.32-223.8 16.32-356.8-58.17-502.8-1.26-38.43-5.33-44.02 8.22-50.74z" fill="#453748" overflow="visible"/><path id="path301" d="m1504 2037c-4.2-2.07-14.2 0.33-15.51 5.68-8.25 33.5-34.27 53.33-51.75 51.19-7.53-0.91-10.73 13.94-8.38 21.16 4.15 12.75 28.4 9.3 33.99 21.49 2.51 5.46-1.63 15.29-2.64 17.84-49.64 124.5-69.38 258.7-41.08 434.3 7.27 46.43-3.85 56.58 14.91 122.9 6.74 23.87 39.81 14.61 68.39 17.2 4.32 0.4 8.62-0.93 11.95-3.71 3.33-2.77 5.41-6.76 5.8-11.08l6.88-75.9c0.64-6.84-3.08-13.34-9.29-16.26-46.32-223.8-16.32-356.8 58.17-502.8 1.26-38.43 5.33-44.02-8.22-50.74z" fill="#453748" overflow="visible"/><path id="path303" d="m1581 1767c18.05 8.43 30.98 23.36 31.2 43.33-1.6 23.26-11.78 33.64-31.2 43.32zm-6.67 1.52v83.92c-16.46-8.84-27.98-22.51-28.17-42.11 1.39-22.23 10.44-32.61 28.17-41.81z" fill="#ccc" overflow="visible"/></g><g id="g315" color="#000000"><path id="path307" d="m3039 1267 186.4 48.14s1.63 0.67 2.3 1.22c2.84 2.32 3.3 2.07 6.98 8.55 6.85 12 15.22 30.88 15.3 31.31 0.73 3.51-2 4.25-5.44 4.41l-157.4-3.68-8.84-8.32c-0.27-0.02-31.1-0.02-65.88-0.02v49.97l65.88 0.19c0.34 0 8.84-8.33 8.84-8.33l157.4-3.68c3.44 0.17 6.17 0.92 5.44 4.42-0.09 0.43-8.45 19.31-15.3 31.32-3.68 6.47-4.14 6.2-6.98 8.53-0.68 0.56-2.3 1.23-2.3 1.23l-186.4 48.14h-26.55v1210c0 3.46-2.79 6.25-6.25 6.25h-39.09v30.48c0 0.97-0.78 1.75-1.75 1.75h-6.93c-0.97 0-1.74-0.78-1.74-1.75v-30.48h-39.09c-1.66 0.01-3.26-0.65-4.43-1.82-1.18-1.18-1.84-2.77-1.84-4.43v-1210h-16.22c-0.34 0-0.61-1.2-0.61-1.2v-121c-8.88 0.27-18.81-0.4-29.14-2.14-6.36-1.08-13.25-3.21-20.24-5.96l-62.4-1.01s11.1-8.08 26.37-17.16c-15.27-9.07-26.37-17.15-26.37-17.15l62.4-0.99c6.99-2.76 13.88-4.88 20.24-5.96 10.33-1.74 20.26-2.42 29.13-2.15l0.01-37.51c0-0.67 0.27-1.2 0.61-1.2z" fill="#ececec" overflow="visible" stroke="#221c24" stroke-linecap="round" stroke-linejoin="round"/><path id="path309" d="m2958 1368c1.97 0 3.47 0.43 4.51 1.31 1.02 0.9 1.56 2.19 1.56 3.86 0 1.69-0.54 2.96-1.56 3.85-1.04 0.89-2.54 1.34-4.51 1.34s-3.47-0.45-4.51-1.34-1.55-2.16-1.55-3.85c0-1.67 0.51-2.96 1.55-3.86 1.04-0.88 2.54-1.31 4.51-1.31zm0 2.03c-1.61 0-2.81 0.25-3.61 0.78-0.79 0.51-1.25 1.42-1.2 2.36 0 1.06 0.39 1.85 1.2 2.38 0.8 0.52 2 0.79 3.61 0.79 1.6 0 2.8-0.27 3.61-0.79 0.8-0.52 1.26-1.43 1.21-2.38 0-1.04-0.42-1.84-1.21-2.36-0.81-0.53-2.01-0.78-3.61-0.78zm42.11 2.56v1.07h-26.9v-1.07zm-0.02 6.05v1.07h-16.77v-1.07zm0 6.07v1.05h-16.77v-1.05zm0 6.06v1.05h-16.77v-1.05zm0 6.05v1.07h-16.77v-1.07zm0 6.06v1.06h-16.77v-1.07h16.77zm0 6.06v1.05h-16.77v-1.06h16.77zm0 6.05v1.06h-16.77v-1.06zm0 6.06v1.05h-16.77v-1.05zm0 6.06v1.05h-16.77v-1.05zm-45.98 3.06-0.56 3.59h8.92v-3.31h1.33v8.6h-1.34v-3.28h-10.35v-2.03l0.56-3.57h1.45zm46 3.01v1.06h-26.9v-1.06zm-0.02 6.05v1.07h-16.77v-1.07zm0 6.06v1.07h-16.77v-1.07zm0 6.05v1.07h-16.77v-1.07zm0 6.07v1.07h-16.77v-1.07zm0 6.06v1.05h-16.77v-1.05zm0 6.05v1.07h-16.77v-1.07zm0 6.06v1.07h-16.77v-1.07zm0 6.06v1.06h-16.77v-1.07h16.77zm0 6.05v1.07h-16.77v-1.07zm-36.29 2.07v9.5h-1.34v-7.08l-3.03 3.78c-0.72 0.9-1.16 1.44-1.31 1.6-0.59 0.61-1.09 1.03-1.53 1.26-1.33 0.75-3.02 0.29-3.8-1.04-0.65-1.12-0.96-2.41-0.89-3.71 0-0.58 0.06-1.22 0.19-1.93 0.15-0.77 0.34-1.52 0.58-2.27h1.59c-0.35 0.81-0.61 1.53-0.78 2.23-0.16 0.66-0.25 1.34-0.25 2.03 0 0.89 0.19 1.63 0.58 2.18 0.33 0.52 0.9 0.84 1.52 0.83 0.42-0.01 0.83-0.14 1.17-0.38 0.53-0.39 1.02-0.85 1.44-1.36 0.29-0.34 0.97-1.17 2.02-2.49 0.83-1.06 1.66-2.11 2.5-3.15zm36.31 3.99v1.07h-26.9v-1.07zm-0.02 6.06v1.06h-16.77v-1.06zm0 6.05v1.07h-16.77v-1.07zm0 6.06v1.06h-16.77v-1.06zm0 6.06v1.06h-16.77v-1.06zm0 6.06v1.06h-16.77v-1.06zm0 6.06v1.06h-16.77v-1.06zm0 6.06v1.05h-16.77v-1.06h16.77zm0 6.05v1.06h-16.77v-1.06zm0 6.05v1.07h-16.77v-1.07zm-36.65 1.9c0.35 1.31 0.55 2.65 0.58 4.01 0 1.87-0.32 3.3-0.95 4.31-0.54 0.97-1.58 1.56-2.69 1.54-0.74 0-1.36-0.29-1.88-0.83-0.56-0.64-0.91-1.43-1.01-2.28-0.18 0.88-0.48 1.57-0.92 2.04-0.42 0.46-1.02 0.71-1.64 0.7-0.94 0-1.68-0.45-2.22-1.34-0.6-1.11-0.88-2.37-0.81-3.63 0-0.59 0.04-1.26 0.12-1.94 0.09-0.71 0.22-1.42 0.38-2.13h1.4c-0.19 0.77-0.35 1.47-0.44 2.1-0.09 0.64-0.13 1.23-0.13 1.79-0.05 0.8 0.12 1.61 0.48 2.33 0.27 0.51 0.8 0.83 1.38 0.82 0.57 0 1.09-0.31 1.35-0.81 0.34-0.71 0.5-1.49 0.45-2.27v-1.82h1.3v1.75c0 1.09 0.2 1.96 0.58 2.57 0.33 0.58 0.95 0.92 1.61 0.9 0.71 0.03 1.38-0.35 1.71-0.98 0.45-0.9 0.65-1.9 0.59-2.9 0-0.73-0.06-1.43-0.19-2.1-0.12-0.63-0.31-1.25-0.57-1.83zm36.67 4.16v1.06h-26.9v-1.06zm-0.02 6.05v1.07h-16.77v-1.07zm0 6.06v1.07h-16.77v-1.07zm0 6.06v1.07h-16.77v-1.07zm0 6.05v1.07h-16.77v-1.07zm0 6.07v1.05h-16.77v-1.05zm0 6.06v1.05h-16.77v-1.05zm0 6.05v1.07h-16.77v-1.07zm0 6.06v1.06h-16.77v-1.07h16.77zm0 6.06v1.06h-16.77v-1.07h16.77zm-39.07 1.09v6.73h2.78v2.04h-2.77v2.13h-1.31v-2.13h-7.61v-2.56l7.39-6.21h1.53zm-1.3 1.64-6.24 5.11h6.24v-5.1zm40.39 3.32v1.07h-26.9v-1.07zm-0.02 6.06v1.06h-16.77v-1.06zm0 6.06v1.05h-16.77v-1.05zm0 6.05v1.06h-16.77v-1.06zm0 6.06v1.06h-16.77v-1.06zm0 6.06v1.06h-16.77v-1.06zm0 6.06v1.06h-16.77v-1.06zm0 6.05v1.05h-16.77v-1.05zm0 6.06v1.06h-16.77v-1.07h16.77zm0 6.05v1.07h-16.77v-1.07zm-36.58 1.46c0.34 1.29 0.51 2.61 0.5 3.94 0 1.83-0.34 3.23-1.03 4.24-0.65 0.98-1.76 1.55-2.94 1.51-1.15 0.02-2.25-0.54-2.9-1.49-0.72-0.98-1.07-2.29-1.07-3.96 0-0.58 0.08-1.17 0.23-1.74h-2.87v6.05h-1.32v-7.92h5.86c-0.37 1.04-0.56 2.14-0.58 3.25 0 1.16 0.23 2.09 0.71 2.77 0.43 0.65 1.17 1.02 1.94 1 0.78 0.02 1.52-0.35 1.94-1 0.51-0.83 0.76-1.8 0.7-2.77 0.01-1.33-0.25-2.65-0.74-3.88zm36.6 4.6v1.06h-26.9v-1.07h26.9zm-0.02 6.06v1.06h-16.77v-1.06zm0 6.05v1.07h-16.77v-1.07zm0 6.06v1.06h-16.77v-1.06zm0 6.06v1.07h-16.77v-1.07zm0 6.05v1.07h-16.77v-1.07zm0 6.07v1.05h-16.77v-1.05zm0 6.05v1.07h-16.77v-1.07zm0 6.06v1.07h-16.77v-1.07zm0 6.06v1.05h-16.77v-1.06h16.77zm-42.13 1.07c1.96 0 3.46 0.45 4.5 1.36 1.04 0.92 1.55 2.27 1.55 4.01 0 1.5-0.35 2.69-1.08 3.6-0.68 0.89-1.76 1.4-2.89 1.37-1.12 0.04-2.2-0.45-2.9-1.32-0.77-1.03-1.14-2.29-1.07-3.57-0.01-0.67 0.12-1.34 0.37-1.97 0.22-0.56 0.58-1.06 1.04-1.45-1.43 0.1-2.49 0.49-3.18 1.19-0.71 0.71-1.07 1.74-1.07 3.07 0.03 1.05 0.22 2.09 0.57 3.08h-1.44c-0.16-0.55-0.27-1.12-0.35-1.65-0.09-0.5-0.1-1-0.1-1.51-0.09-1.67 0.51-3.31 1.64-4.54 1.17-1.15 2.77-1.75 4.41-1.67zm2.08 2.39c-0.84 0-1.51 0.26-1.99 0.79-0.43 0.47-0.68 1.07-0.73 1.83v0.36c-0.04 0.77 0.22 1.54 0.73 2.13 0.51 0.55 1.24 0.84 1.99 0.81 0.75 0.04 1.48-0.26 1.99-0.81 0.51-0.59 0.77-1.36 0.73-2.13 0-0.92-0.24-1.65-0.73-2.19-0.51-0.54-1.24-0.83-1.99-0.79zm40.07 2.59v1.06h-26.9v-1.06zm-0.02 6.06v1.06h-16.77v-1.06zm0 6.06v1.05h-16.77v-1.05zm0 6.05v1.06h-16.77v-1.06zm0 6.06v1.06h-16.77v-1.06zm0 6.06v1.06h-16.77v-1.06zm0 6.05v1.07h-16.77v-1.07zm0 6.06v1.07h-16.77v-1.07zm0 6.06v1.05h-16.77v-1.05zm0 6.05v1.07h-16.77v-1.07zm-46.66 1.1v7.17l10.37-5.09v2.12l-11.02 5.43h-0.68v-9.63zm46.68 4.96v1.07h-26.9v-1.07zm-0.02 6.06v1.06h-16.77v-1.07h16.77zm0 6.05v1.07h-16.77v-1.07zm0 6.06v1.07h-16.77v-1.07zm0 6.06v1.06h-16.77v-1.06zm0 6.05v1.07h-16.77v-1.07zm0 6.06v1.07h-16.77v-1.07zm0 6.06v1.06h-16.77v-1.06zm0 6.06v1.06h-16.77v-1.06zm0 6.06v1.06h-16.77v-1.06zm-39.59 0.58c1.05-0.05 2.04 0.46 2.62 1.33 0.6 0.89 0.9 2.13 0.9 3.78 0 1.66-0.3 2.93-0.9 3.81-0.61 0.88-1.49 1.35-2.62 1.35-0.72 0-1.41-0.31-1.89-0.85-0.56-0.64-0.92-1.42-1.04-2.27-0.16 0.88-0.48 1.56-0.96 2.04-0.43 0.47-1.05 0.72-1.68 0.71-0.94 0-1.68-0.39-2.22-1.24-0.6-1.08-0.88-2.31-0.81-3.54v-0.54c0.01-1.03 0.28-2.05 0.81-2.95 0.45-0.8 1.3-1.29 2.22-1.28 0.64-0.01 1.25 0.25 1.68 0.73 0.51 0.57 0.85 1.27 0.96 2.03 0.12-0.84 0.48-1.64 1.04-2.28 0.48-0.53 1.17-0.83 1.89-0.82zm0 2.03c-0.65-0.03-1.28 0.28-1.66 0.81-0.44 0.68-0.65 1.47-0.61 2.28 0 0.97 0.21 1.72 0.61 2.27 0.38 0.54 1 0.85 1.66 0.83 0.66 0.02 1.29-0.29 1.67-0.83 0.43-0.68 0.63-1.47 0.58-2.27 0-0.97-0.18-1.73-0.58-2.28-0.38-0.54-1.01-0.84-1.67-0.81zm-5.43 0.33c-0.61 0-1.07 0.23-1.41 0.71-0.34 0.49-0.51 1.17-0.51 2.04s0.17 1.55 0.51 2.04c0.3 0.49 0.84 0.77 1.41 0.76 0.57 0.01 1.1-0.28 1.41-0.76 0.37-0.61 0.56-1.32 0.52-2.03 0-0.87-0.18-1.55-0.52-2.05-0.32-0.46-0.85-0.73-1.41-0.71zm45.04 3.11v1.06h-26.9v-1.06zm-0.02 6.06v1.06h-16.77v-1.06zm0 6.06v1.06h-16.77v-1.06zm0 6.06v1.05h-16.77v-1.05zm0 6.04v1.07h-16.77v-1.07zm0 6.06v1.07h-16.77v-1.07zm0 6.06v1.07h-16.77v-1.07zm0 6.05v1.07h-16.77v-1.07zm0 6.07v1.07h-16.77v-1.07zm0 6.06v1.05h-16.77v-1.05zm-44.22 0.24c1.12-0.04 2.2 0.46 2.9 1.33 0.75 1.03 1.12 2.29 1.05 3.56 0 0.72-0.1 1.37-0.35 1.97-0.23 0.58-0.58 1.08-1.03 1.47 1.43-0.09 2.5-0.5 3.19-1.21 0.71-0.7 1.05-1.74 1.05-3.07 0.01-1.05-0.19-2.09-0.57-3.07h1.44c0.28 1.03 0.44 2.1 0.47 3.16 0.08 1.66-0.51 3.28-1.65 4.49-1.17 1.16-2.77 1.77-4.41 1.71-1.98 0-3.48-0.46-4.51-1.36-1.04-0.92-1.55-2.26-1.55-3.98-0.07-1.3 0.31-2.58 1.08-3.63 0.68-0.89 1.76-1.4 2.89-1.37zm0 2.04c-0.85 0-1.52 0.25-2 0.78-0.45 0.51-0.7 1.17-0.72 1.86v0.32c-0.05 0.78 0.21 1.55 0.72 2.14 0.51 0.55 1.24 0.85 2 0.81 0.75 0.04 1.48-0.26 1.99-0.81 0.51-0.59 0.77-1.36 0.73-2.14 0-0.91-0.24-1.64-0.73-2.17-0.48-0.54-1.15-0.78-1.99-0.78zm44.24 3.77v1.07h-26.9v-1.07zm-0.02 6.06v1.07h-16.77v-1.07zm0 6.06v1.06h-16.77v-1.07h16.77zm0 6.05v1.07h-16.77v-1.07zm0 6.06v1.07h-16.77v-1.07zm0 6.06v1.06h-16.77v-1.06zm0 6.05v1.06h-16.77v-1.06zm0 6.06v1.06h-16.77v-1.06zm0 6.06v1.06h-16.77v-1.06zm0 6.06v1.06h-16.77v-1.06zm-45.98 1-0.56 3.59h8.92v-3.31h1.33v8.62h-1.34v-3.3h-10.35v-2.04l0.56-3.56h1.45zm46 5.05v1.06h-26.9v-1.06zm-0.02 6.07v1.05h-16.77v-1.06h16.77zm-42.13 1.03c1.96 0 3.46 0.44 4.5 1.32 1.04 0.89 1.55 2.17 1.55 3.85 0 1.67-0.51 2.96-1.55 3.84-1.04 0.89-2.54 1.32-4.5 1.32-1.98 0-3.48-0.43-4.51-1.32-1.04-0.88-1.55-2.17-1.55-3.84 0-1.68 0.51-2.96 1.55-3.85 1.03-0.87 2.53-1.32 4.51-1.32zm0 2.03c-1.61 0-2.81 0.27-3.62 0.79-0.79 0.51-1.24 1.41-1.18 2.35 0 1.05 0.39 1.84 1.18 2.37 0.8 0.52 2.01 0.79 3.62 0.79 1.6 0 2.81-0.27 3.61-0.79 0.79-0.53 1.19-1.32 1.19-2.37 0.05-0.94-0.4-1.84-1.19-2.35-0.81-0.52-2.01-0.79-3.61-0.79zm42.13 2.98v1.07h-16.77v-1.07zm0 6.06v1.07h-16.77v-1.07zm0 6.06v1.06h-16.77v-1.06zm0 6.05v1.07h-16.77v-1.07zm0 6.06v1.07h-16.77v-1.07zm0 6.06v1.07h-16.77v-1.07zm0 6.05v1.07h-16.77v-1.07zm0 6.07v1.07h-16.77v-1.07zm-45.98 0.78-0.56 3.58h8.92v-3.29h1.33v8.6h-1.34v-3.3h-10.35v-2.04l0.56-3.55h1.45zm46 5.28v1.05h-26.9v-1.05zm-0.01 6.05v1.07h-16.78v-1.07h16.77zm-45.99 1.71-0.56 3.6h8.92v-3.32h1.33v8.63h-1.34v-3.31h-10.35v-2.02l0.56-3.58h1.45zm45.99 4.35v1.07h-16.78v-1.07h16.77zm0 6.06v1.06h-16.78v-1.07h16.77zm0 6.05v1.06h-16.78v-1.06h16.77zm0 6.06v1.06h-16.78v-1.06h16.77zm0 6.06v1.05h-16.78v-1.05h16.77zm0 6.05v1.06h-16.78v-1.06h16.77zm0 6.06v1.06h-16.78v-1.06h16.77zm0 6.06v1.06h-16.78v-1.06h16.77zm-45.99 0.55-0.56 3.59h8.92v-3.3h1.33v8.6h-1.34v-3.3h-10.35v-2.03l0.56-3.56h1.45zm46 5.5v1.07h-26.9v-1.07zm-0.01 6.06v1.07h-16.77v-1.07zm-36.3 0.74v9.5h-1.34v-7.06l-3.03 3.79c-0.72 0.89-1.16 1.42-1.31 1.59-0.59 0.61-1.09 1-1.53 1.23-1.32 0.77-3.02 0.32-3.8-1-0.65-1.13-0.96-2.42-0.89-3.72 0-0.58 0.06-1.25 0.19-1.95 0.15-0.77 0.34-1.53 0.58-2.27h1.59c-0.35 0.8-0.61 1.55-0.78 2.26-0.16 0.65-0.25 1.31-0.25 1.98 0 0.9 0.19 1.64 0.58 2.19 0.33 0.53 0.9 0.84 1.52 0.84 0.42-0.01 0.83-0.14 1.17-0.38 0.53-0.39 1.02-0.84 1.44-1.36 0.69-0.82 1.36-1.65 2.02-2.5 0.83-1.05 1.66-2.1 2.5-3.14zm36.3 5.32v1.06h-16.77v-1.07h16.77zm0 6.05v1.07h-16.77v-1.07zm0 6.06v1.07h-16.77v-1.07zm0 6.06v1.06h-16.77v-1.06zm0 6.05v1.07h-16.77v-1.07zm0 6.06v1.07h-16.77v-1.07zm0 6.06v1.07h-16.77v-1.07zm0 6.05v1.07h-16.77v-1.07zm-45.99 0.33-0.56 3.6h8.92v-3.32h1.33v8.62h-1.34v-3.3h-10.35v-2.04l0.56-3.56h1.45zm46 5.74v1.07h-26.9v-1.07zm-0.01 6.06v1.05h-16.77v-1.05zm-36.66 0.54c0.35 1.31 0.55 2.66 0.58 4.02 0 1.87-0.32 3.29-0.95 4.31s-1.53 1.55-2.69 1.55c-0.74 0-1.36-0.29-1.88-0.83-0.55-0.63-0.91-1.42-1.01-2.25-0.18 0.87-0.48 1.55-0.92 2.02-0.42 0.46-1.02 0.72-1.64 0.7-0.94 0-1.68-0.44-2.22-1.35-0.6-1.11-0.88-2.37-0.81-3.63 0-0.59 0.04-1.24 0.12-1.91 0.09-0.73 0.22-1.46 0.38-2.17h1.4c-0.19 0.75-0.35 1.48-0.44 2.11-0.09 0.64-0.13 1.23-0.13 1.78-0.05 0.8 0.12 1.6 0.48 2.31 0.32 0.54 0.78 0.84 1.38 0.84 0.56 0.01 1.08-0.29 1.35-0.78 0.34-0.71 0.5-1.5 0.45-2.29v-1.82h1.3v1.74c0 1.1 0.2 1.96 0.58 2.57 0.33 0.59 0.95 0.95 1.61 0.93 0.72 0.02 1.38-0.36 1.71-0.99 0.44-0.91 0.65-1.91 0.59-2.91 0-0.74-0.06-1.41-0.18-2.08-0.12-0.64-0.32-1.27-0.58-1.87zm36.66 5.51v1.06h-16.77v-1.06zm0 6.06v1.06h-16.77v-1.06zm0 6.06v1.05h-16.77v-1.06h16.77zm0 6.05v1.06h-16.77v-1.06zm0 6.06v1.06h-16.77v-1.06zm0 6.06v1.05h-16.77v-1.05zm0 6.04v1.07h-16.77v-1.07zm0 6.06v1.07h-16.77v-1.07zm-45.99 0.1-0.56 3.6h8.92v-3.32h1.33v8.62h-1.34v-3.3h-10.35v-2.03l0.56-3.56h1.45zm46 5.96v1.07h-26.9v-1.07zm-39.08 5.85v6.75h2.77v2.01h-2.77v2.15h-1.31v-2.15h-7.61v-2.55l7.39-6.2h1.53zm39.07 0.21v1.07h-16.77v-1.07zm-40.38 1.44-6.24 5.1h6.24zm40.38 4.62v1.05h-16.77v-1.05zm0 6.06v1.06h-16.77v-1.07h16.77zm0 6.05v1.07h-16.77v-1.07zm0 6.06v1.06h-16.77v-1.07h16.77zm0 6.06v1.06h-16.77v-1.06zm0 6.05v1.07h-16.77v-1.07zm0 6.06v1.06h-16.77v-1.06zm-45.99 5.92-0.56 3.6h8.92v-3.32h1.33v8.62h-1.34v-3.29h-10.35v-2.04l0.56-3.57h1.45zm45.99 0.14v1.07h-16.77v-1.07zm0.01 6.05v1.06h-26.9v-1.06zm-0.01 6.07v1.04h-16.77v-1.04zm-36.59 0.1c0.34 1.29 0.51 2.61 0.5 3.94 0 1.82-0.34 3.24-1.03 4.24-0.65 0.98-1.76 1.56-2.94 1.52-1.22 0-2.19-0.49-2.9-1.46-0.72-0.97-1.07-2.29-1.07-3.96 0-0.6 0.07-1.2 0.23-1.77h-2.87v6.08h-1.32v-7.92h5.86c-0.37 1.05-0.56 2.14-0.58 3.25 0 1.16 0.23 2.06 0.71 2.73 0.43 0.65 1.16 1.04 1.94 1.03 0.79 0.02 1.52-0.38 1.94-1.03 0.51-0.82 0.76-1.76 0.7-2.72 0-0.72-0.06-1.41-0.18-2.05-0.12-0.65-0.31-1.27-0.56-1.88zm36.59 5.96v1.04h-16.77v-1.04zm0 6.05v1.06h-16.77v-1.06zm0 6.06v1.05h-16.77v-1.06h16.77zm0 6.06v1.05h-16.77v-1.06h16.77zm0 6.04v1.07h-16.77v-1.07zm0 6.06v1.06h-16.77v-1.06zm-41.95 5.99c1.67-0.09 3.31 0.48 4.56 1.59 1.15 1.11 1.76 2.66 1.69 4.26 0.02 1.23-0.25 2.45-0.78 3.56h-1.79c0.6-1.01 0.92-2.17 0.91-3.35 0-1.26-0.4-2.24-1.2-2.94-0.96-0.76-2.17-1.14-3.4-1.07-1.44 0-2.56 0.36-3.37 1.07-0.83 0.75-1.27 1.83-1.21 2.95 0.03 1.17 0.34 2.32 0.91 3.35h-1.82c-0.51-1.07-0.76-2.25-0.75-3.43 0-1.86 0.55-3.33 1.67-4.39 1.11-1.07 2.65-1.6 4.58-1.6zm41.95 0.07v1.06h-16.77v-1.06zm0 6.05v1.07h-16.77v-1.07zm0.01 6.06v1.07h-26.9v-1.07zm-36.01 0.58v1.97h-6.73c-1.16 0-2.08 0.29-2.74 0.88-0.69 0.6-1.06 1.48-1.02 2.39 0 0.84 0.27 1.45 0.82 1.86s1.4 0.61 2.54 0.61h7.13v1.97h-6.73c-1.16 0-2.09 0.29-2.75 0.87-0.68 0.58-1.01 1.4-1.01 2.41 0 0.83 0.27 1.45 0.82 1.85 0.55 0.41 1.41 0.61 2.54 0.61h7.13v1.97h-7.19c-1.6 0-2.84-0.34-3.7-1.02-0.88-0.69-1.37-1.76-1.31-2.87-0.02-0.84 0.2-1.68 0.63-2.4 0.49-0.74 1.15-1.35 1.94-1.75-0.76-0.24-1.43-0.72-1.91-1.36-0.45-0.64-0.68-1.41-0.66-2.19-0.02-0.77 0.16-1.54 0.52-2.23 0.4-0.66 0.95-1.21 1.62-1.6h-1.85v-1.97zm36 5.48v1.07h-16.77v-1.07zm0 6.06v1.07h-16.77v-1.07zm0 6.06v1.05h-16.77v-1.05zm0 6.05v1.07h-16.77v-1.07zm0 6.06v1.07h-16.77v-1.07zm0 6.06v1.06h-16.77v-1.07h16.77zm0 6.05v1.07h-16.77v-1.07zm0 6.06v1.06h-16.77v-1.06zm0 6.06v1.05h-16.77v-1.05zm0.01 6.05v1.06h-26.9v-1.06zm-0.01 6.06v1.06h-16.77v-1.06zm0 6.07v1.04h-16.77v-1.04zm0 6.05v1.06h-16.77v-1.06zm0 6.05v1.07h-16.77v-1.07zm0 6.06v1.06h-16.77v-1.07h16.77zm0 6.05v1.07h-16.77v-1.07zm0 6.06v1.07h-16.77v-1.07zm0 6.06v1.06h-16.77v-1.06zm0 6.05v1.07h-16.77v-1.07zm0.01 6.06v1.07h-26.9v-1.07zm-0.01 6.06v1.07h-16.77v-1.07zm0 6.05v1.07h-16.77v-1.07zm0 6.07v1.07h-16.77v-1.07zm0 6.06v1.05h-16.77v-1.05zm0 6.05v1.07h-16.77v-1.07zm0 6.06v1.06h-16.77v-1.06zm0 6.06v1.05h-16.77v-1.06h16.77zm0 6.05v1.06h-16.77v-1.06zm0 6.06v1.06h-16.77v-1.06zm0.01 6.06v1.05h-26.9v-1.05zm-0.01 6.05v1.06h-16.77v-1.06zm0 6.06v1.06h-16.77v-1.06zm0 6.05v1.07h-16.77v-1.07zm0 6.06v1.07h-16.77v-1.07zm0 6.06v1.07h-16.77v-1.07zm0 6.06v1.06h-16.77v-1.07h16.77zm0 6.05v1.07h-16.77v-1.07zm0 6.06v1.07h-16.77v-1.07zm0 6.06v1.06h-16.77v-1.06zm0.01 6.05v1.07h-26.9v-1.07z" fill="#453748" font-family="Sans" font-weight="400" overflow="visible" style="text-indent:0;text-transform:none"/><path id="path311" d="m3041 1385c0.45 0 0.89 0.18 1.21 0.5s0.5 0.76 0.5 1.21v328.1c0 0.95-0.76 1.72-1.71 1.72h-48.49v-331.5zm-109.2 0v331.5h-43.96c-0.45 0-0.89-0.18-1.21-0.51-0.33-0.32-0.5-0.76-0.5-1.22v-328.1c0-0.95 0.77-1.72 1.71-1.72z" fill="#ccc" overflow="visible"/><path id="path313" d="m2989 2660c3.5 0 6.73 1.87 8.48 4.9s1.75 6.76 0 9.79-4.98 4.89-8.48 4.89-6.73-1.86-8.48-4.89-1.75-6.76 0-9.79 4.98-4.9 8.48-4.9zm-55 0.95c3.5 0 6.73 1.87 8.48 4.9s1.75 6.76 0 9.79-4.98 4.89-8.48 4.89-6.73-1.86-8.48-4.89-1.75-6.76 0-9.79 4.98-4.9 8.48-4.9zm94.79-979.2c2.67 0 5.13 1.43 6.47 3.74 1.33 2.31 1.33 5.15 0 7.46-1.34 2.31-3.8 3.73-6.47 3.73-4.12 0-7.46-3.34-7.46-7.46s3.34-7.47 7.46-7.47zm-130 0.72c2.67 0 5.14 1.43 6.47 3.74s1.33 5.16 0 7.47-3.8 3.73-6.47 3.73-5.13-1.42-6.46-3.73c-1.34-2.31-1.34-5.16 0-7.47 1.33-2.31 3.79-3.73 6.46-3.73zm130-138c2.67 0 5.14 1.42 6.47 3.73s1.33 5.16 0 7.47-3.8 3.74-6.47 3.74-5.13-1.43-6.47-3.74c-1.33-2.31-1.33-5.16 0-7.47 1.34-2.31 3.8-3.73 6.47-3.73zm-130 0.72c2.67 0 5.13 1.43 6.47 3.73 1.33 2.31 1.33 5.16 0 7.47-1.34 2.31-3.8 3.73-6.47 3.73s-5.13-1.42-6.46-3.73c-1.34-2.31-1.34-5.16 0-7.47 1.33-2.3 3.79-3.73 6.46-3.73zm130-143.8c2.67 0 5.14 1.42 6.47 3.73s1.33 5.16 0 7.47-3.8 3.74-6.47 3.74-5.13-1.43-6.47-3.74c-1.33-2.31-1.33-5.16 0-7.47 1.34-2.31 3.8-3.73 6.47-3.73zm-130 0.72c2.67 0 5.13 1.43 6.47 3.74 1.33 2.3 1.33 5.15 0 7.46-1.34 2.31-3.8 3.73-6.47 3.73s-5.13-1.42-6.46-3.73c-1.34-2.31-1.34-5.16 0-7.46 1.33-2.31 3.79-3.74 6.46-3.74zm146 236c8.94 0 17.12 5.02 21.17 13 4.04 7.98 3.25 17.55-2.04 24.76s-14.19 10.83-23.01 9.37v-46.82c1.28-0.21 2.58-0.31 3.88-0.31zm-169.7-131.8c0.73 0 1.32 0.77 1.32 1.71v14.64h9.78c0.67 0 1.21 0.27 1.21 0.61v8.02c0 0.34-0.54 0.62-1.21 0.62h-9.78v14.63c0 0.95-0.59 1.72-1.32 1.72h-17.33c-0.73 0-1.32-0.77-1.32-1.72 0 0-3.58-12.73-3.58-19.25 0-6.54 3.58-19.27 3.58-19.27 0.18-0.93 0.58-1.71 1.32-1.71z" fill="#453748" overflow="visible"/></g></g></svg>
