<svg xmlns="http://www.w3.org/2000/svg" height="240" width="300" version="1.1" viewBox="0 0 79.374998 63.499999"><g transform="translate(-45 -78.619)"><path style="color-rendering:auto;text-decoration-color:#000000;color:#000000;font-variant-numeric:normal;shape-rendering:auto;font-variant-ligatures:normal;text-decoration-line:none;font-variant-position:normal;mix-blend-mode:normal;solid-color:#000000;font-feature-settings:normal;shape-padding:0;font-variant-alternates:normal;text-indent:0;dominant-baseline:auto;font-variant-caps:normal;image-rendering:auto;white-space:normal;text-decoration-style:solid;text-orientation:mixed;isolation:auto;paint-order:markers fill stroke;text-transform:none" d="m84.686 83.911c-14.602 0.000088-26.458 11.856-26.458 26.458 0.000122 14.602 11.856 26.459 26.458 26.459 14.602-0.00017 26.459-11.857 26.459-26.459 0.01-14.603-11.852-26.459-26.454-26.459zm0 1.8404c13.606 0.000349 24.617 11.011 24.617 24.617-0.00011 13.606-11.011 24.616-24.617 24.617-13.606 0-24.617-11.01-24.617-24.61 0-13.608 11.011-24.619 24.617-24.619zm0 2.8585c-12.006 0-21.759 9.7527-21.759 21.759 0.000052 12.006 9.7527 21.758 21.759 21.758 12.006-0.00022 21.758-9.7524 21.758-21.758-0.00005-12.006-9.7524-21.759-21.758-21.759zm0 1.8422c11.011 0.000345 19.916 8.906 19.916 19.917-0.00003 11.011-8.9055 19.918-19.916 19.918-11.011-0.00009-19.917-8.9071-19.917-19.918 0.000027-11.011 8.9058-19.917 19.917-19.917zm-4.3014 8.5776a0.92099 0.92099 0 0 0 -0.93482 0.92096v20.837a0.92099 0.92099 0 0 0 1.4533 0.75092l14.734-10.418a0.92099 0.92099 0 0 0 0 -1.504l-14.734-10.423a0.92099 0.92099 0 0 0 -0.51846 -0.1682zm0.9074 2.7002 12.218 8.6388-12.218 8.6383z" fill="#ccc"/></g></svg>
