<svg xmlns="http://www.w3.org/2000/svg" height="240" width="300" version="1.1" viewBox="0 0 79.374998 63.499999"><g transform="translate(-45 -78.619)"><path style="color-rendering:auto;text-decoration-color:#000000;color:#000000;font-variant-numeric:normal;shape-rendering:auto;font-variant-ligatures:normal;text-decoration-line:none;font-variant-position:normal;mix-blend-mode:normal;solid-color:#000000;font-feature-settings:normal;shape-padding:0;font-variant-alternates:normal;text-indent:0;dominant-baseline:auto;font-variant-caps:normal;image-rendering:auto;white-space:normal;text-decoration-style:solid;text-orientation:mixed;isolation:auto;text-transform:none" d="m59.666 83.911c-0.61795 0.01057-1.1115 0.51753-1.1021 1.1355v23.071h-3.4947c-0.61769 0-1.1184 0.50073-1.1185 1.1184v4.4756c0.0011 0.61675 0.50164 1.1162 1.1185 1.1162h3.4947v20.836c-0.0032 1.4951 2.2409 1.4951 2.2375 0v-20.836h3.2156c0.61705 0.00028 1.1178-0.49925 1.119-1.1162v-4.4756c-0.000063-0.61793-0.50112-1.1188-1.119-1.1184h-3.215v-23.074c0.0095-0.63104-0.50442-1.145-1.1354-1.1355zm12.618 0c-0.61708 0.01057-1.1093 0.51838-1.0999 1.1355v32.37h-3.321c-0.6179-0.00022-1.119 0.50061-1.119 1.1184v4.4751c0.000853 0.6173 0.50175 1.1171 1.119 1.1169h3.321v11.536c-0.02589 0.63515 0.4817 1.1644 1.1174 1.1644 0.63568 0 1.1439-0.52925 1.1179-1.1644v-11.536h3.3915c0.61706-0.00012 1.1175-0.49979 1.1185-1.1169v-4.4751c-0.000052-0.61759-0.50078-1.1184-1.1185-1.1184h-3.391v-32.374c0.0095-0.63104-0.50442-1.145-1.1354-1.1355zm12.62 0c-0.61793 0.01057-1.1115 0.51753-1.1021 1.1355v19.716h-3.2839c-0.61812-0.00021-1.1192 0.50094-1.119 1.119v4.4728c0.000053 0.61792 0.50112 1.1188 1.119 1.1186h3.2839v24.19c-0.0032 1.4948 2.2406 1.4948 2.2375 0v-24.19h3.4243c0.61791 0.00021 1.119-0.50063 1.119-1.1186v-4.4728c0.000235-0.61803-0.50091-1.1192-1.119-1.119h-3.4243v-19.714c0.0096-0.63104-0.50441-1.145-1.1354-1.1355zm12.62 0c-0.61794 0.01057-1.1115 0.51753-1.1021 1.1355v8.18h-3.2511c-0.6179 0-1.1187 0.50104-1.1185 1.119v4.4728c-0.000235 0.61793 0.50057 1.119 1.1185 1.1191h3.2511v35.726c-0.0027 1.4948 2.2405 1.4948 2.2375 0v-35.723h3.4598c0.61791-0.0001 1.1187-0.50115 1.1185-1.1191v-4.4728c0.00024-0.61794-0.50058-1.119-1.1185-1.119h-3.4598v-8.18c0.0096-0.63104-0.50442-1.145-1.1354-1.1355zm12.618 0c-0.61816 0.01057-1.112 0.51732-1.1026 1.1355v14.878h-3.6804c-0.61792 0-1.1187 0.50116-1.1185 1.119v4.4728c0.00006 0.61773 0.50079 1.1184 1.1185 1.1186h3.6804v29.028c-0.003 1.4948 2.2406 1.4948 2.2375 0v-29.028h3.0283c0.6177-0.00011 1.1184-0.50082 1.1185-1.1186v-4.4728c0.00023-0.61782-0.50058-1.119-1.1185-1.119h-3.0283v-14.875c0.01-0.63082-0.50408-1.1447-1.1349-1.1355zm-15.851 11.553h6.7104v2.2358h-6.7104zm12.186 6.6983h6.7125v2.2353h-6.7125zm-24.841 4.836h6.7125v2.2375h-6.718zm-25.447 3.3565h6.7103v2.2375h-6.7103zm12.793 9.2991h6.7103v2.2375h-6.7103z" fill="#ccc"/></g></svg>
