<svg xmlns="http://www.w3.org/2000/svg" height="240" width="300" version="1.1" viewBox="0 0 79.374998 63.499999"><g transform="translate(-45 -78.619)"><path style="color-rendering:auto;text-decoration-color:#000000;color:#000000;font-variant-numeric:normal;shape-rendering:auto;font-variant-ligatures:normal;text-decoration-line:none;font-variant-position:normal;mix-blend-mode:normal;solid-color:#000000;font-feature-settings:normal;shape-padding:0;font-variant-alternates:normal;text-indent:0;dominant-baseline:auto;font-variant-caps:normal;image-rendering:auto;white-space:normal;text-decoration-style:solid;text-orientation:mixed;isolation:auto;text-transform:none" d="m66.769 83.911a1.1199 1.1199 0 0 0 -1.1182 1.1204v50.677a1.1199 1.1199 0 0 0 1.1182 1.1198h35.831a1.1199 1.1199 0 0 0 1.1204 -1.1198v-50.679a1.1199 1.1199 0 0 0 -1.1204 -1.1204zm1.1204 2.2402h33.591v48.439h-33.59zm13.399 0.8415a1.1201 1.1201 0 0 0 0 2.2401h6.7965a1.1201 1.1201 0 0 0 0 -2.2401zm-11.874 2.8a1.1395 1.1395 0 0 0 -1.1406 1.1389v36.022a1.1395 1.1395 0 0 0 1.1406 1.1411h30.546a1.1395 1.1395 0 0 0 1.139 -1.1411v-36.019a1.1395 1.1395 0 0 0 -1.14 -1.139zm1.1389 2.2773h8.5068l-8.5068 4.9111zm12.987 0h11.605l-24.592 14.201v-6.8796a1.1204 1.1204 0 0 0 0.5681 -0.14927zm15.282 0.46421v6.8632a1.1199 1.1199 0 0 0 -0.55279 0.15804l-27.716 16.006v-6.8642a1.1199 1.1199 0 0 0 0.5681 -0.16567zm0 9.287v6.8654a1.1199 1.1199 0 0 0 -0.55279 0.15584l-27.716 16.003v-6.8806a1.1204 1.1204 0 0 0 0.5681 -0.14928zm0 9.2892v6.8632a1.1199 1.1199 0 0 0 -0.55279 0.158l-13.309 7.6833h-11.609zm0 9.287v5.4175h-9.3827zm-15.512 8.8168a0.86165 0.86165 0 0 0 -0.86172 0.86009v2.7563a0.86165 0.86165 0 0 0 0.86172 0.86228h2.7552a0.86165 0.86165 0 0 0 0.86118 -0.86228v-2.7563a0.86165 0.86165 0 0 0 -0.86118 -0.86009zm0.86009 1.7218h1.0334v1.0329h-1.0334z" fill="#ccc"/></g></svg>
