<svg xmlns="http://www.w3.org/2000/svg" height="140.55mm" width="367.07mm" version="1.1" viewBox="0 0 367.07014 140.55103"><g transform="matrix(0 -.39646 .39646 0 315.86 741.97)"><g fill="#ccc" transform="matrix(1.0569 0 0 1.0569 -1051.4 18.982)"><g fill="#ccc" transform="translate(31.922,-80)"><g fill-rule="evenodd" fill="#ccc"><path d="m2663.2 184.27c-1.6132 0-3.2232-0.59818-4.45-1.825-2.4536-2.4536-2.4536-6.4714 0-8.925 1.2268-1.2268 2.836-1.825 4.45-1.825 0.6838 0 1.3742 0.10404 2.025 0.325l24.025-24.05c-0.4623-1.3879-0.449-2.9288 0.15-4.375 0.61-1.4725 1.7169-2.5775 3.05-3.225v-100.7c-2.9457-1.4554-4.3239-4.9993-3.05-8.075 0.996-2.4044 3.3203-3.8542 5.775-3.875 0.6716-0.0057 1.3803 0.08192 2.05 0.3l24-24.05c-0.4621-1.388-0.4484-2.9285 0.15-4.375 0.6094-1.4728 1.7167-2.5777 3.05-3.225l-0.05-84.725c-2.0741-1.0286-3.5-3.1606-3.5-5.625 0.0001-3.4692 2.8051-6.297 6.275-6.3s6.325 2.805 6.325 6.275c0 2.464-1.435 4.6117-3.5 5.65l0.075 84.75c2.9087 1.4671 4.2405 4.9413 2.975 8-1.2806 3.0952-4.7511 4.6391-7.875 3.55l-24 23.975c0.4922 1.4078 0.4895 2.9913-0.125 4.475-0.5994 1.4471-1.6758 2.563-2.975 3.225v100.78c2.9084 1.4681 4.2416 4.9418 2.975 8-1.2819 3.0947-4.7515 4.6401-7.875 3.55l-24.025 24.025c0.74 2.1979 0.2467 4.7284-1.5 6.475-1.2268 1.2268-2.8368 1.825-4.45 1.825z"/><path d="m2423.3 184.1c-3.4699 0-6.325-2.8551-6.325-6.325 0-2.4539 1.4403-4.5662 3.5-5.6v-52.7c-0.6136-0.29771-1.1916-0.69163-1.7-1.2-1.7466-1.7466-2.265-4.2771-1.525-6.475l-8-8c-0.2192 0.0737-0.4503 0.12606-0.675 0.175-0.049 0.0102-0.1001 0.016-0.15 0.025-1.9863 0.38338-4.1165-0.19148-5.65-1.725-2.4536-2.4536-2.4536-6.4464 0-8.9 0.1534-0.15335 0.3099-0.29072 0.475-0.425 0.013-0.01118 0.037-0.01394 0.05-0.025 0.1514-0.12093 0.2902-0.24496 0.45-0.35 0.2261-0.15299 0.4794-0.27674 0.725-0.4v-20.75c-2.0633-1.0417-3.5-3.1934-3.5-5.65 0-3.4699 2.8551-6.275 6.325-6.275 3.47 0 6.3 2.8051 6.3 6.275 0 2.4644-1.4259 4.6121-3.5 5.65v20.725c2.076 1.0281 3.5 3.1592 3.5 5.625 0 0.74518-0.1347 1.4596-0.375 2.125l7.975 7.975c0.6592-0.23302 1.363-0.375 2.1-0.375 3.47 0 6.3 2.8051 6.3 6.275 0 1.9518-0.8954 3.7144-2.3 4.875-0.036 0.0307-0.088 0.0453-0.125 0.075-0.163 0.12839-0.3248 0.23783-0.5 0.35-0.1906 0.12565-0.3746 0.24723-0.575 0.35v52.725c2.076 1.0281 3.5 3.1592 3.5 5.625 0 3.4699-2.83 6.325-6.3 6.325z"/><path d="m2471.3 184.1c-3.4699 0-6.325-2.8551-6.325-6.325 0-2.4539 1.4403-4.5662 3.5-5.6v-20.7c-0.6136-0.29771-1.1916-0.69163-1.7-1.2-2.4536-2.4536-2.4536-6.4464 0-8.9 0.5084-0.50837 1.0834-0.90158 1.7-1.2v-100.56c-0.6123-0.29755-1.1926-0.66754-1.7-1.175-1.8402-1.8402-2.3201-4.5501-1.4-6.825 0.8888-2.4053 3.2141-4.125 5.925-4.125 0.737 0 1.4408 0.14198 2.1 0.375l7.85-7.85c-0.4882-1.432-0.4446-2.9918 0.125-4.4 0.5556-1.5038 1.6774-2.736 3.1-3.45v-20.75c-2.0633-1.0417-3.5-3.1934-3.5-5.65 0-3.4699 2.8551-6.275 6.325-6.275 3.47 0 6.3 2.8051 6.3 6.275-0.0001 2.4644-1.4259 4.6121-3.5 5.65v20.73c2.076 1.0281 3.5 3.1592 3.5 5.625 0 0.86749-0.1793 1.6956-0.5 2.45-0.01 0.01738-0.018 0.03266-0.025 0.05-0.011 0.02443-0.014 0.05073-0.025 0.075-0.3067 0.75829-0.7616 1.4866-1.375 2.1-1.7466 1.7466-4.2771 2.24-6.475 1.5l-7.9 7.9c0.2002 0.61114 0.3 1.2476 0.3 1.925 0 0.86749-0.1793 1.6956-0.5 2.45-0.01 0.01738-0.018 0.03266-0.025 0.05-0.011 0.02443-0.014 0.05073-0.025 0.075-0.3067 0.75829-0.7616 1.4866-1.375 2.1-0.474 0.47399-1.0079 0.83414-1.575 1.125v100.65c0.5644 0.29156 1.1008 0.67577 1.575 1.15 1.7467 1.7466 2.24 4.2771 1.5 6.475l8.025 8.025c0.6573-0.22096 1.3412-0.35 2.025-0.35 1.6139 0 3.2232 0.62319 4.45 1.85 2.4537 2.4536 2.4537 6.4464 0 8.9-2.4536 2.4536-6.4464 2.4536-8.9 0-1.7466-1.7466-2.265-4.2771-1.525-6.475l-7.15-7.15v19.5c2.076 1.0281 3.5 3.1592 3.5 5.625 0 3.4699-2.83 6.325-6.3 6.325z"/><path d="m2583.3 184.1c-3.4699 0-6.325-2.8551-6.325-6.325 0-2.4539 1.4403-4.5662 3.5-5.6v-20.55c-0.6123-0.29755-1.1926-0.66754-1.7-1.175-1.8402-1.8402-2.3201-4.5501-1.4-6.825 0.8888-2.4053 3.2141-4.125 5.925-4.125 0.737 0 1.4408 0.14198 2.1 0.375l23.875-23.9c-0.4623-1.3879-0.449-2.9288 0.15-4.375 0.61-1.4725 1.7169-2.5775 3.05-3.225v-100.7c-2.7704-1.3688-4.1544-4.5882-3.25-7.525 0.4745-1.7351 1.6685-3.1813 3.25-3.975v-100.75c-2.0633-1.0417-3.5-3.1934-3.5-5.65 0-3.4699 2.8551-6.275 6.325-6.275 3.47 0 6.3 2.8051 6.3 6.275 0 2.4644-1.4259 4.6121-3.5 5.65v99.75l23.175-23.2c-0.4623-1.3879-0.449-2.9288 0.15-4.375 0.61-1.4725 1.7169-2.5775 3.05-3.225v-68.75c-2.058-1.0344-3.5-3.1474-3.5-5.6 0-3.4699 2.8551-6.3 6.325-6.3 3.47 0 6.3 2.8301 6.3 6.3 0 2.4644-1.4259 4.5962-3.5 5.625v68.75c2.9084 1.4681 4.2416 4.9418 2.975 8-1.2819 3.0947-4.7515 4.6401-7.875 3.55l-23.9 23.875c0.2047 0.61732 0.3 1.2647 0.3 1.95 0 0.43374-0.041 0.86519-0.125 1.275 0 0.01716-0.022 0.032848-0.025 0.05-0.01 0.03204 0.01 0.068136 0 0.1-0.079 0.41016-0.209 0.79927-0.375 1.2-0.5994 1.4471-1.6758 2.563-2.975 3.225v100.78c2.9084 1.4681 4.2416 4.9418 2.975 8-1.2819 3.0947-4.7515 4.6401-7.875 3.55l-23.9 23.9c0.2002 0.61114 0.3 1.2476 0.3 1.925 0 0.86749-0.1793 1.6956-0.5 2.45-0.01 0.0174-0.018 0.0327-0.025 0.05-0.011 0.0244-0.014 0.0507-0.025 0.075-0.3067 0.75829-0.7616 1.4866-1.375 2.1-0.474 0.474-1.0079 0.83414-1.575 1.125v20.575c2.076 1.0281 3.5 3.1592 3.5 5.625 0 3.4699-2.83 6.325-6.3 6.325z"/><path d="m2615.3 184.1c-3.4699 0-6.325-2.8551-6.325-6.325 0-2.4539 1.4403-4.5662 3.5-5.6v-20.58c-0.5845-0.29367-1.1381-0.66305-1.625-1.15-1.0796-1.0796-1.6704-2.4603-1.8-3.875-0.033-0.2604-0.075-0.53102-0.075-0.8 0-3.4699 2.8551-6.275 6.325-6.275 0.7534 0 1.4784 0.132 2.15 0.375l23.925-23.925c-0.4521-1.3806-0.4467-2.9095 0.15-4.35 0.6103-1.4733 1.716-2.5777 3.05-3.225v-100.7c-2.9574-1.4491-4.3269-4.9922-3.05-8.075 0.996-2.4044 3.3204-3.8542 5.775-3.875 0.6744-0.00573 1.3351 0.10498 2 0.325l24.075-24.1c-0.4482-1.3827-0.4455-2.9107 0.15-4.35 0.6096-1.4735 1.7158-2.5778 3.05-3.225l-0.05-84.7c-2.0811-1.0228-3.5-3.1737-3.5-5.65 0-0.73495 0.1181-1.4425 0.35-2.1l-24-23.98c-0.2681 0.0903-0.549 0.17173-0.825 0.225-0.4098 0.0836-0.8412 0.15-1.275 0.15-3.4699 0-6.325-2.8301-6.325-6.3 0-0.0431-0.0009-0.0821 0-0.125-0.0008-0.0413 0-0.0835 0-0.125 0-2.4539 1.4403-4.5662 3.5-5.6v-68.6c-2.1117-1.0243-3.575-3.183-3.575-5.675 0-3.4699 2.8301-6.3 6.3-6.3s6.275 2.8301 6.275 6.3c0 2.425-1.3636 4.5439-3.375 5.6v68.65c1.6124 0.79852 2.8328 2.2802 3.3 4.05 0.3674 1.245 0.3402 2.567-0.075 3.8l24.025 24.025c0.024-0.008 0.051-0.0171 0.075-0.025 0.017-0.005 0.033-0.0197 0.05-0.025 0.039-0.0123 0.086-0.0134 0.125-0.025 0.1405-0.0397 0.2807-0.0701 0.425-0.1 0.4499-0.0988 0.9179-0.15 1.375-0.15 1.614 0 3.1982 0.59819 4.425 1.825 2.4536 2.4536 2.4536 6.4714 0 8.925-0.46 0.46006-0.9767 0.81246-1.525 1.1-0.065 0.0355-0.1336 0.0668-0.2 0.1l0.075 84.75c2.9077 1.4686 4.2647 4.9432 3 8-1.2778 3.0886-4.7791 4.6504-7.9 3.575l-24 24c0.4762 1.3964 0.4829 2.9574-0.125 4.425-0.5963 1.4396-1.6849 2.5617-2.975 3.225v100.78c2.9047 1.4697 4.2409 4.9437 2.975 8-1.2823 3.0956-4.7757 4.667-7.9 3.575l-23.925 23.95c0.1457 0.46411 0.217 0.94659 0.25 1.45 0.013 0.13404 0.021 0.26551 0.025 0.4 0 0.21687 0 0.43857-0.025 0.65-0.1005 1.465-0.6837 2.9087-1.8 4.025-0.5004 0.5004-1.0723 0.8787-1.675 1.175v20.525c2.076 1.0281 3.5 3.1592 3.5 5.625 0 3.4699-2.83 6.325-6.3 6.325z"/><path d="m2519.2 168.12c-1.6132 0-3.2232-0.62318-4.45-1.85-1.7466-1.7466-2.265-4.2771-1.525-6.475l-7.85-7.85c-0.6577 0.23187-1.3649 0.375-2.1 0.375-2.6953 0-5-1.7164-5.9-4.1 0-0.0103-0.021-0.0147-0.025-0.025-0.037-0.0999-0.068-0.19783-0.1-0.3-0.766-2.2101-0.2606-4.7644 1.5-6.525 0.5084-0.50837 1.0834-0.90158 1.7-1.2v-68.56c-0.057-0.02779-0.1185-0.04538-0.175-0.075-0.1828-0.09585-0.3755-0.18498-0.55-0.3-0.349-0.23002-0.6683-0.4933-0.975-0.8-2.4536-2.4536-2.4536-6.4714 0-8.925 1.2268-1.2268 2.836-1.825 4.45-1.825 0.4549 0 0.9057 0.05213 1.35 0.15 0.1527 0.03148 0.3015 0.05762 0.45 0.1 0.05 0.01499 0.1 0.03372 0.15 0.05 0.025 0.0079 0.05 0.01679 0.075 0.025l8-8c-0.751-2.2031-0.2275-4.7474 1.525-6.5 0.5084-0.50837 1.0834-0.90158 1.7-1.2v-68.7c-1.408-0.70769-2.5147-1.916-3.075-3.4 0-0.01032-0.021-0.01466-0.025-0.025-0.037-0.09986-0.068-0.19783-0.1-0.3-0.4584-1.3225-0.4714-2.7742-0.025-4.1l-24-24c-2.1971 0.73834-4.7293 0.2207-6.475-1.525-2.4536-2.4536-2.4536-6.4464 0-8.9 1.2268-1.2268 2.836-1.85 4.45-1.85 1.6139 0 3.2232 0.62319 4.45 1.85 1.7467 1.7466 2.24 4.2771 1.5 6.475l24.025 24.025c0.6573-0.22096 1.3412-0.35 2.025-0.35 1.6139 0 3.2232 0.62318 4.45 1.85 0.4942 0.49419 0.8799 1.0557 1.175 1.65 0.088 0.1623 0.1507 0.32961 0.225 0.5 0.01 0.01734 0.018 0.03262 0.025 0.05 0.3207 0.75445 0.5 1.5825 0.5 2.45 0 2.4644-1.4259 4.5962-3.5 5.625v68.725c0.017 0.0087 0.033 0.01612 0.05 0.025 0.016 0.0084 0.034 0.01647 0.05 0.025 0.1654 0.08919 0.3414 0.19487 0.5 0.3 0.04 0.02672 0.085 0.04725 0.125 0.075 0.1318 0.09186 0.2489 0.19687 0.375 0.3 0.032 0.02624 0.068 0.04803 0.1 0.075 0.1305 0.11104 0.2516 0.22661 0.375 0.35 1.1819 1.1491 1.925 2.7329 1.925 4.5 0 3.4699-2.83 6.3-6.3 6.3-0.4337 0-0.8652-0.06635-1.275-0.15-0.276-0.05327-0.5569-0.13471-0.825-0.225l-7.975 7.975c0.2352 0.65918 0.375 1.363 0.375 2.1 0 2.4644-1.4259 4.5962-3.5 5.625v68.575c0.5644 0.29156 1.1008 0.67577 1.575 1.15 0.4942 0.49419 0.8799 1.0557 1.175 1.65 0.076 0.13903 0.1346 0.27999 0.2 0.425 0.017 0.0419 0.034 0.0828 0.05 0.125 0.3207 0.75445 0.5 1.5825 0.5 2.45 0 0.67834-0.099 1.3381-0.3 1.95l7.9 7.9c0.6573-0.22096 1.3412-0.35 2.025-0.35 1.6139 0 3.2232 0.62319 4.45 1.85 2.4537 2.4536 2.4537 6.4464 0 8.9-1.2268 1.2268-2.8368 1.85-4.45 1.85z"/><path d="m2727.3 152.32c-3.4699 0-6.325-2.8301-6.325-6.3 0-2.4539 1.4403-4.5821 3.5-5.625v-100.78c-2.058-1.0344-3.5-3.1474-3.5-5.6 0-3.4699 2.8551-6.3 6.325-6.3 3.47 0 6.3 2.8301 6.3 6.3 0 2.4644-1.4259 4.5962-3.5 5.625v100.72c2.076 1.0373 3.5 3.1842 3.5 5.65 0 3.4699-2.83 6.3-6.3 6.3z"/><path d="m2535.2 136.22c-3.4699 0-6.3-2.8551-6.3-6.325s2.8301-6.3 6.3-6.3c2.4644 0 4.5962 1.4259 5.625 3.5h21.85c1.0288-2.0741 3.1606-3.5 5.625-3.5 3.47 0 6.3 2.8301 6.3 6.3s-2.83 6.325-6.3 6.325c-2.4526 0-4.5656-1.442-5.6-3.5h-21.9c-1.0344 2.058-3.1474 3.5-5.6 3.5z"/><path d="m2439.3 104.32c-3.4699 0-6.325-2.8301-6.325-6.3 0-2.4539 1.4403-4.5821 3.5-5.625v-20.775c-2.058-1.0344-3.5-3.1474-3.5-5.6 0-0.7435 0.1358-1.4609 0.375-2.125l-24-23.925c-3.1237 1.0853-6.6191-0.48262-7.9-3.575-1.2623-3.0477 0.062-6.4981 2.95-7.975v-68.75c-2.9457-1.4554-4.3239-4.9993-3.05-8.075 0.996-2.4044 3.3203-3.8542 5.775-3.875 0.6716-0.0057 1.3803 0.08192 2.05 0.3l24.025-24.05c-0.1527-0.45846-0.2548-0.94071-0.3-1.425-0.2135-1.8469 0.3877-3.7627 1.8-5.175 0.5084-0.50837 1.0834-0.90158 1.7-1.2v-148.55c-1.5727-0.79046-2.7714-2.2016-3.25-3.925-0.3888-1.2589-0.3662-2.6231 0.05-3.875l-8.025-8.025c-2.1971 0.73834-4.7293 0.2207-6.475-1.525-2.4536-2.4536-2.4536-6.4464 0-8.9 0.5084-0.50837 1.0834-0.90158 1.7-1.2v-53.475c-0.4324-0.24414-0.8568-0.55682-1.225-0.925-1.4643-1.4643-1.9227-3.5321-1.425-5.4l-9.15-9.15c-1.8679 0.49767-3.9607 0.0143-5.425-1.45-2.1858-2.1858-2.1858-5.7142 0-7.9 0.2732-0.27322 0.5895-0.52008 0.9-0.725 0.1034-0.0704 0.2169-0.11151 0.325-0.175v-22.35c-1.6571-0.97286-2.775-2.7658-2.775-4.825 0-3.0912 2.5088-5.6 5.6-5.6s5.6 2.5088 5.6 5.6c0 2.0718-1.1261 3.8814-2.8 4.85v22.3c1.6739 0.9686 2.8 2.7782 2.8 4.85 0 0.5427-0.081 1.0536-0.225 1.55l9.075 9.075c0.4913-0.14107 1.0135-0.225 1.55-0.225 3.0912 0 5.6 2.5088 5.6 5.6 0 2.0718-1.1261 3.8814-2.8 4.85v53.575c0.5644 0.29156 1.1008 0.67577 1.575 1.15 1.7467 1.7466 2.24 4.2771 1.5 6.475l8.025 8.025c0.6613-0.22396 1.3615-0.35 2.05-0.35 1.6139 0 3.1982 0.62319 4.425 1.85 0.4942 0.49419 0.8799 1.0557 1.175 1.65 0.088 0.1623 0.1507 0.32961 0.225 0.5 0.01 0.0173 0.018 0.0326 0.025 0.05 0.3207 0.75445 0.5 1.5825 0.5 2.45 0 2.4644-1.4259 4.5962-3.5 5.625v148.58c0.5644 0.29156 1.1008 0.67577 1.575 1.15 0.7984 0.79833 1.3212 1.7559 1.6 2.775 0.047 0.15298 0.09 0.31862 0.125 0.475 0.01 0.04176 0.018 0.08311 0.025 0.125 0.2112 1.0311 0.1665 2.1179-0.175 3.175l23.95 23.95c0.6573-0.22096 1.3412-0.35 2.025-0.35 1.6139 0 3.2232 0.62318 4.45 1.85 2.4537 2.4536 2.4537 6.4464 0 8.9-2.4536 2.4536-6.4464 2.4536-8.9 0-1.7466-1.7466-2.265-4.2771-1.525-6.475l-23.875-23.875c-1.3133 0.47652-2.7744 0.51385-4.175 0.025l-24 23.975c0.4922 1.4078 0.4895 2.9913-0.125 4.475-0.5994 1.4471-1.6758 2.563-2.975 3.225v68.75c1.334 0.64732 2.4648 1.7517 3.075 3.225 0.6025 1.4546 0.6134 3.006 0.15 4.4l24.025 24.025c0.024-0.0082 0.051-0.0171 0.075-0.025 0.017-0.0054 0.032-0.0197 0.05-0.025 0.039-0.01235 0.086-0.01342 0.125-0.025 0.1409-0.03962 0.2804-0.07018 0.425-0.1 0.4499-0.09879 0.9179-0.15 1.375-0.15 1.614 0 3.1982 0.59818 4.425 1.825 2.3002 2.3003 2.4377 5.955 0.425 8.425-0.023 0.02796-0.052 0.04743-0.075 0.075-0.1152 0.1367-0.2214 0.29635-0.35 0.425-0.3121 0.31207-0.6443 0.56731-1 0.8-0.2291 0.1539-0.4761 0.27654-0.725 0.4v20.725c2.076 1.0373 3.5 3.1842 3.5 5.65 0 3.4699-2.83 6.3-6.3 6.3z"/><path d="m2535.2 104.22c-3.4699 0-6.3-2.8551-6.3-6.325s2.8301-6.3 6.3-6.3c2.4644 0 4.5962 1.4259 5.625 3.5h21.85c1.0288-2.0741 3.1606-3.5 5.625-3.5 3.47 0 6.3 2.8301 6.3 6.3s-2.83 6.325-6.3 6.325c-2.4526 0-4.5656-1.442-5.6-3.5h-21.9c-1.0344 2.058-3.1474 3.5-5.6 3.5z"/><path d="m2599.3 72.324c-3.4699 0-6.325-2.8301-6.325-6.3 0-2.4539 1.4403-4.5821 3.5-5.625v-20.775c-2.058-1.0344-3.5-3.1474-3.5-5.6 0-0.7435 0.1358-1.4609 0.375-2.125l-8.125-8.125c-0.6076 0.19622-1.2546 0.325-1.925 0.325-1.563 0-2.9941-0.574-4.1-1.525-0.2941-0.20635-0.5875-0.43746-0.85-0.7-2.4537-2.4536-2.4537-6.4464 0-8.9 0.6192-0.61919 1.3548-1.0674 2.125-1.375v-116.15c-1.3285-0.65176-2.4428-1.7593-3.05-3.225-0.5997-1.4479-0.614-3.0109-0.15-4.4l-8.025-8.025c-2.1971 0.73834-4.7293 0.2207-6.475-1.525-2.4536-2.4536-2.4536-6.4464 0-8.9 1.2268-1.2268 2.836-1.85 4.45-1.85 1.6139 0 3.2232 0.62319 4.45 1.85 1.7467 1.7466 2.24 4.2771 1.5 6.475l8 8c0.6999-0.24618 1.414-0.35608 2.125-0.35 2.4547 0.0208 4.779 1.4956 5.775 3.9 1.2666 3.0582-0.067 6.5569-2.975 8.025v116.65c0.249 0.1537 0.5195 0.30827 0.75 0.5 1.6704 1.1301 2.75 3.0387 2.75 5.2 0 0.73701-0.1398 1.4408-0.375 2.1l8.125 8.15c0.025-0.0086 0.05-0.01678 0.075-0.025 0.017-0.0054 0.032-0.0197 0.05-0.025 0.041-0.01286 0.084-0.01298 0.125-0.025 0.1409-0.03962 0.2804-0.07018 0.425-0.1 0.4499-0.09879 0.9179-0.15 1.375-0.15 1.614-0.000008 3.1982 0.59819 4.425 1.825 2.3002 2.3003 2.4377 5.9549 0.425 8.425-0.023 0.02796-0.052 0.04743-0.075 0.075-0.1152 0.1367-0.2214 0.29635-0.35 0.425-0.3121 0.31207-0.6443 0.56731-1 0.8-0.2291 0.1539-0.4761 0.27654-0.725 0.4v20.725c2.076 1.0373 3.5 3.1842 3.5 5.65 0 3.4699-2.83 6.3-6.3 6.3z"/><path d="m2535.2 72.224c-2.3856 0-4.4773-1.3577-5.55-3.325-0.195-0.35769-0.3515-0.7304-0.475-1.125-0.1853-0.5919-0.275-1.2244-0.275-1.875 0-3.4699 2.8301-6.3 6.3-6.3 0.2169 0 0.4388 0.0033 0.65 0.025 2.1888 0.22454 4.0367 1.5834 4.975 3.475h21.85c0.033-0.06637 0.065-0.13497 0.1-0.2 1.0634-1.9673 3.1394-3.3 5.525-3.3 0.2169 0 0.4386 0.0033 0.65 0.025 2.1143 0.21666 3.9248 1.4866 4.9 3.275 0.195 0.35769 0.3515 0.7304 0.475 1.125 0.1853 0.5919 0.275 1.2244 0.275 1.875 0 0.65062-0.09 1.2831-0.275 1.875-0.8028 2.5649-3.2056 4.45-6.025 4.45-0.2169 0-0.4388-0.02834-0.65-0.05-2.1773-0.22336-4.0071-1.574-4.95-3.45h-21.9c-1.0344 2.058-3.1474 3.5-5.6 3.5z"/><path d="m2535.2 40.224c-3.4699 0-6.3-2.8551-6.3-6.325s2.8301-6.3 6.3-6.3c2.4644 0 4.5962 1.4259 5.625 3.5h20.725c1.0373-2.0759 3.1842-3.5 5.65-3.5 3.4699 0 6.275 2.8301 6.275 6.3s-2.8051 6.325-6.275 6.325c-2.4539 0-4.5821-1.4402-5.625-3.5h-20.7c-1.0344 2.058-3.1474 3.5-5.6 3.5z"/><path d="m2663.3 24.274c-1.6132 0-3.2482-0.59819-4.475-1.825-2.4537-2.4536-2.4537-6.4714 0-8.925 1.2268-1.2268 2.8361-1.825 4.45-1.825 0.6838 0 1.3677 0.10404 2.025 0.325l24.05-24.075c-0.4483-1.3826-0.446-2.911 0.15-4.35 0.6103-1.4733 1.716-2.5777 3.05-3.225 0-33.553-0.044-67.115-0.05-100.68-2.99-1.4348-4.3612-5.0004-3.075-8.1 0.9974-2.4037 3.3203-3.8557 5.775-3.875 0.6744-0.005 1.3602 0.10494 2.025 0.325l24.125-24.1c-0.4486-1.3824-0.447-2.9113 0.15-4.35 0.6112-1.4729 1.7163-2.5775 3.05-3.225v-68.75c-2.058-1.0344-3.5-3.1474-3.5-5.6 0-3.4699 2.8551-6.3 6.325-6.3s6.275 2.8301 6.275 6.3c0.0001 2.4644-1.435 4.5962-3.5 5.625v68.75c2.9042 1.4739 4.2429 4.9944 2.975 8.05-1.2852 3.0973-4.7746 4.6007-7.9 3.5l-24.05 23.975c0.4972 1.4182 0.4924 3.037-0.125 4.525-0.5969 1.4386-1.6788 2.5183-2.975 3.175 0.01 33.589 0.07 67.18 0.075 100.78 2.9047 1.4697 4.2409 4.9437 2.975 8-1.2823 3.0956-4.7757 4.667-7.9 3.575l-23.975 23.975c0.751 2.2031 0.2525 4.7474-1.5 6.5-1.2268 1.2268-2.8368 1.825-4.45 1.825z"/><path d="m2423.4 24.224c-3.4699 0-6.325-2.8551-6.325-6.325s2.8551-6.3 6.325-6.3c2.4658 0 4.5969 1.4241 5.625 3.5h20.725c1.0379-2.0741 3.1856-3.5 5.65-3.5 3.47 0 6.275 2.8301 6.275 6.3s-2.805 6.325-6.275 6.325c-2.4526 0-4.5815-1.442-5.625-3.5h-20.7c-1.0338 2.0598-3.146 3.5-5.6 3.5z"/><path d="m2535.3 8.3239c-3.4699 0-6.325-2.8301-6.325-6.3 0-2.4539 1.4403-4.5821 3.5-5.625v-52.775c-2.058-1.0344-3.5-3.1474-3.5-5.6 0-0.7435 0.1358-1.4609 0.375-2.125l-23.95-23.95c-2.1979 0.74002-4.7283 0.2466-6.475-1.5-0.5612-0.56123-0.9955-1.214-1.3-1.9-0.4142-0.83875-0.65-1.7813-0.65-2.775 0-2.4539 1.4403-4.5662 3.5-5.6v-20.75c-2.0633-1.0417-3.5-3.1934-3.5-5.65 0-3.4699 2.8551-6.275 6.325-6.275 3.47 0 6.3 2.8051 6.3 6.275 0 2.4644-1.4259 4.6121-3.5 5.65v20.725c1.7108 0.84728 2.9791 2.4591 3.375 4.375 0.2725 1.1491 0.2287 2.3502-0.15 3.475l24.025 24.025c0.058-0.0189 0.1165-0.03274 0.175-0.05 0.024-0.0075 0.05-0.01778 0.075-0.025 0.1409-0.03962 0.2804-0.07018 0.425-0.1 0.4499-0.09879 0.9179-0.15 1.375-0.15 1.614 0 3.1982 0.59819 4.425 1.825 2.3002 2.3003 2.4377 5.955 0.425 8.425-0.023 0.02796-0.052 0.04743-0.075 0.075-0.1152 0.1367-0.2214 0.29635-0.35 0.425-0.3121 0.31207-0.6443 0.56731-1 0.8-0.168 0.11286-0.3462 0.20332-0.525 0.3-0.067 0.03486-0.1326 0.06768-0.2 0.1v52.725c2.076 1.0373 3.5 3.1842 3.5 5.65-0.0001 3.4699-2.83 6.3-6.3 6.3z"/><path d="m2567.3 8.3239c-3.4699 0-6.325-2.8301-6.325-6.3 0-2.4539 1.4403-4.5821 3.5-5.625v-84.775c-2.058-1.0344-3.5-3.1474-3.5-5.6 0-0.7435 0.1358-1.4609 0.375-2.125l-23.95-23.95c-2.1979 0.74002-4.7283 0.24661-6.475-1.5-0.6134-0.6134-1.0683-1.3417-1.375-2.1-0.3574-0.78966-0.575-1.6563-0.575-2.575 0-2.4539 1.4403-4.5662 3.5-5.6v-100.75c-2.0633-1.0417-3.5-3.1934-3.5-5.65 0-3.4699 2.8551-6.275 6.325-6.275 3.47 0 6.3 2.8051 6.3 6.275 0 2.4644-1.4259 4.6121-3.5 5.65v100.72c1.7108 0.84728 2.9791 2.4591 3.375 4.375 0.2725 1.1491 0.2287 2.3502-0.15 3.475l24.025 24.025c0.058-0.0189 0.1165-0.03274 0.175-0.05 0.024-0.008 0.05-0.0178 0.075-0.025 0.1409-0.0396 0.2804-0.0702 0.425-0.1 0.4499-0.0988 0.9179-0.15 1.375-0.15 1.614 0 3.1982 0.59819 4.425 1.825 2.3002 2.3003 2.4377 5.955 0.425 8.425-0.023 0.02796-0.052 0.04743-0.075 0.075-0.1152 0.1367-0.2214 0.29635-0.35 0.425-0.3121 0.31207-0.6443 0.56731-1 0.8-0.168 0.11286-0.3462 0.20332-0.525 0.3-0.067 0.03486-0.1326 0.06768-0.2 0.1v84.725c2.076 1.0373 3.5 3.1842 3.5 5.65-0.0001 3.4699-2.83 6.3-6.3 6.3z"/><path d="m2439.3-7.9011c-3.4699 0-6.325-2.8551-6.325-6.325 0-2.4539 1.4403-4.5662 3.5-5.6v-20.75c-2.0633-1.0417-3.5-3.1934-3.5-5.65 0-3.4699 2.8551-6.275 6.325-6.275 3.47 0 6.3 2.8051 6.3 6.275 0 2.4644-1.4259 4.6121-3.5 5.65v20.725c2.076 1.0281 3.5 3.1592 3.5 5.625-0.0001 3.4699-2.83 6.325-6.3 6.325z"/><path d="m2404.5-69.001c-1.6132 0-3.2232-0.62318-4.45-1.85-2.4536-2.4536-2.4536-6.4464 0-8.9 1.2269-1.2268 2.861-1.85 4.475-1.85 0.676 0 1.331 0.13406 1.975 0.35l10.775-10.775c-0.4623-1.3879-0.449-2.9288 0.15-4.375 0.61-1.4725 1.7169-2.5775 3.05-3.225v-52.75c-1.408-0.70769-2.5147-1.916-3.075-3.4 0-0.0103-0.021-0.0147-0.025-0.025-0.037-0.0999-0.068-0.19783-0.1-0.3-0.4584-1.3225-0.4714-2.7742-0.025-4.1l-7.85-7.85c-0.6577 0.23187-1.3649 0.375-2.1 0.375-2.6953 0-5-1.7164-5.9-4.1 0-0.0103-0.021-0.0147-0.025-0.025-0.037-0.0999-0.068-0.19783-0.1-0.3-0.766-2.2101-0.2606-4.7644 1.5-6.525 0.5084-0.50837 1.0834-0.90158 1.7-1.2v-52.55c-2.058-1.0344-3.5-3.1474-3.5-5.6 0-3.4699 2.8551-6.3 6.325-6.3 3.47 0 6.3 2.8301 6.3 6.3 0 2.4644-1.4259 4.5962-3.5 5.625v52.575c0.5644 0.29156 1.1008 0.67577 1.575 1.15 0.4942 0.49419 0.8799 1.0557 1.175 1.65 0.027 0.0488 0.05 0.10047 0.075 0.15 0.043 0.0932 0.087 0.18022 0.125 0.275 0.3574 0.78966 0.55 1.6563 0.55 2.575 0 0.67878-0.099 1.3377-0.3 1.95l7.9 7.9c0.6573-0.22096 1.3412-0.35 2.025-0.35 1.6139 0 3.2232 0.62319 4.45 1.85 0.4942 0.49419 0.8799 1.0557 1.175 1.65 0.088 0.1623 0.1507 0.32961 0.225 0.5 0.01 0.0173 0.018 0.0326 0.025 0.05 0.3207 0.75445 0.5 1.5825 0.5 2.45 0 2.4644-1.4259 4.5962-3.5 5.625v52.75c2.9084 1.4681 4.2416 4.9418 2.975 8-1.2819 3.0947-4.7515 4.6401-7.875 3.55l-10.75 10.75c0.7291 2.1927 0.2406 4.7094-1.5 6.45-1.2268 1.2268-2.8368 1.85-4.45 1.85z"/><path d="m2454.1-87.776c-3.4699 0-6.3-2.8551-6.3-6.325s2.8301-6.3 6.3-6.3c2.4644 0 4.5962 1.4259 5.625 3.5h21.85c1.0373-2.0759 3.1842-3.5 5.65-3.5 3.4699 0 6.275 2.8301 6.275 6.3s-2.8051 6.325-6.275 6.325c-2.4539 0-4.5821-1.4402-5.625-3.5h-21.875c-1.0325 2.0634-3.1685 3.5-5.625 3.5z"/><path d="m2455.3-135.68c-3.4699 0-6.325-2.8301-6.325-6.3 0-2.4539 1.4403-4.5821 3.5-5.625v-52.775c-2.058-1.0344-3.5-3.1474-3.5-5.6 0-3.4699 2.8551-6.3 6.325-6.3 3.47 0 6.3 2.8301 6.3 6.3 0 2.4644-1.4259 4.5962-3.5 5.625v52.725c2.076 1.0373 3.5 3.1842 3.5 5.65 0 3.4699-2.83 6.3-6.3 6.3z"/><path d="m2503.3-135.68c-3.4699 0-6.325-2.8301-6.325-6.3 0-2.4539 1.4403-4.5821 3.5-5.625v-84.775c-2.058-1.0344-3.5-3.1474-3.5-5.6 0-3.4699 2.8551-6.3 6.325-6.3 3.47 0 6.3 2.8301 6.3 6.3 0 2.4644-1.4259 4.5962-3.5 5.625v84.725c2.076 1.0373 3.5 3.1842 3.5 5.65 0 3.4699-2.83 6.3-6.3 6.3z"/><path d="m2615.3-135.68c-3.4699 0-6.325-2.8301-6.325-6.3 0-2.4539 1.4403-4.5821 3.5-5.625v-100.78c-2.058-1.0344-3.5-3.1474-3.5-5.6 0-2.4539 1.4403-4.5821 3.5-5.625v-21.575c-0.4032-0.23638-0.7792-0.52922-1.125-0.875-1.1124-1.1124-1.6698-2.5911-1.65-4.05-0.0006-0.0334 0-0.0665 0-0.1 0-3.0912 2.5088-5.6 5.6-5.6 0.561 0 1.1139 0.0712 1.625 0.225l25-25.025c-0.2924-1.1347-0.2326-2.3598 0.25-3.525 0.4971-1.2001 1.3498-2.1314 2.4-2.725v-102.28c-2.4209-1.3746-3.4926-4.3622-2.4-7 1.0823-2.6129 3.9131-3.9686 6.575-3.275l25.175-25.2c-0.2929-1.1346-0.2322-2.3596 0.25-3.525 0.4966-1.2003 1.35-2.1309 2.4-2.725l-0.05-86.275c-1.6775-0.96648-2.8233-2.7761-2.825-4.85 0-0.53592 0.084-1.059 0.225-1.55l-25.075-25.075c-0.4909 0.14072-1.014 0.22496-1.55 0.22496-3.0912 0-5.6-2.5088-5.6-5.6 0-0.0335-0.0006-0.0666 0-0.1-0.0009-0.0417 0-0.083 0-0.12496 0-0.11664 0.013-0.23536 0.025-0.35008 0.1183-1.9118 1.1876-3.5578 2.75-4.475v-70.175c-1.7192-0.9564-2.875-2.7945-2.875-4.9 0-3.0912 2.5088-5.6 5.6-5.6s5.6 2.5087 5.6 5.6c0 2.0226-1.0915 3.7906-2.7 4.775v70.275c0.973 0.56304 1.7605 1.4073 2.25 2.425 0.6629 1.2621 0.7914 2.7233 0.425 4.075l25.15 25.15c0.2611-0.0663 0.5257-0.12192 0.8-0.15008 1.6462-0.1956 3.3627 0.31272 4.625 1.575 2.1858 2.1858 2.1858 5.7392 0 7.925-0.3821 0.38208-0.7992 0.70152-1.25 0.95008l0.075 86.275c2.3743 1.3905 3.4315 4.3611 2.35 6.975-1.0944 2.6452-4.0099 4.0018-6.7 3.25l-25.1 25.125c0.3221 1.1617 0.2717 2.4257-0.225 3.625-0.4845 1.1696-1.3106 2.0796-2.325 2.675v102.35c2.3738 1.3914 3.4075 4.3616 2.325 6.975-1.0956 2.6448-3.9852 4.0029-6.675 3.25l-25.1 25.1c0.1 0.41822 0.175 0.85135 0.175 1.3 0 0.034-0.0005 0.066 0 0.1 0 0.159-0.01 0.31949-0.025 0.475-0.09 1.3005-0.6315 2.5815-1.625 3.575-0.3512 0.35117-0.7398 0.63666-1.15 0.875v21.55c2.076 1.0373 3.5 3.1842 3.5 5.65 0 2.4644-1.4259 4.5962-3.5 5.625v100.72c2.076 1.0373 3.5 3.1842 3.5 5.65 0 3.4699-2.83 6.3-6.3 6.3z"/><path d="m2487.2-135.78c-3.4699 0-6.3-2.8551-6.3-6.325 0-2.494 1.4606-4.6517 3.575-5.675v-52.6c-2.058-1.0344-3.5-3.1474-3.5-5.6 0-0.0431-0.0009-0.0821 0-0.125-0.0008-0.0413 0-0.0835 0-0.125 0-0.67772 0.1246-1.3136 0.325-1.925l-23.9-23.9c-2.1979 0.74002-4.7283 0.24661-6.475-1.5-2.4536-2.4536-2.4536-6.4714 0-8.925 1.2269-1.2268 2.861-1.825 4.475-1.825s3.1982 0.59819 4.425 1.825c1.7466 1.7466 2.24 4.2771 1.5 6.475l23.875 23.875c0.6592-0.23302 1.363-0.375 2.1-0.375 3.0362 0 5.5835 2.1623 6.175 5.025 0.4413 1.8609 0.042 3.8707-1.225 5.425-0.023 0.028-0.052 0.0474-0.075 0.075-0.1152 0.1367-0.2214 0.29635-0.35 0.425-0.3121 0.31207-0.6443 0.56731-1 0.8-0.168 0.11286-0.3462 0.20332-0.525 0.3-0.067 0.0349-0.1326 0.0677-0.2 0.1v52.65c2.0123 1.0558 3.375 3.1743 3.375 5.6 0 3.4699-2.8051 6.325-6.275 6.325z"/><path d="m2583.3-167.68c-3.4699 0-6.325-2.8301-6.325-6.3 0-2.4539 1.4403-4.5821 3.5-5.625v-68.775c-2.058-1.0344-3.5-3.1474-3.5-5.6 0-2.4539 1.4403-4.5821 3.5-5.625v-21.525c-0.4324-0.24414-0.8318-0.55682-1.2-0.925-1.776-1.776-2.11-4.4618-1-6.575 0.9057-1.8743 2.805-3.175 5.025-3.175 0.5365 0 1.0587 0.0839 1.55 0.225l25-25.025c-0.2924-1.1347-0.2576-2.3598 0.225-3.525 0.4923-1.1885 1.3635-2.1056 2.4-2.7v-102.3c-2.2445-1.2857-3.3216-3.9855-2.575-6.475 0.3762-1.4583 1.3073-2.6808 2.575-3.425v-102.35c-1.6571-0.97288-2.775-2.7658-2.775-4.825 0-3.0912 2.5088-5.6 5.6-5.6s5.6 2.5087 5.6 5.6c0 2.0718-1.1261 3.8814-2.8 4.8499v100.53l23.75-23.775c-0.2924-1.1347-0.2576-2.3598 0.225-3.525 0.4923-1.1885 1.3635-2.1056 2.4-2.7v-70.325c-1.6593-0.97232-2.775-2.7642-2.775-4.825 0-3.0912 2.5088-5.6 5.6-5.6s5.6 2.5088 5.6 5.6c0 2.0732-1.1242 3.8819-2.8 4.85v70.3c2.3738 1.3914 3.4075 4.3616 2.325 6.975-1.0956 2.6448-3.9852 4.0029-6.675 3.25l-25.025 25c0.1152 0.44722 0.175 0.917 0.175 1.4 0 0.4423-0.053 0.86219-0.15 1.275-0.01 0.0413-0.016 0.0838-0.025 0.125-0.022 0.0854-0.049 0.1662-0.075 0.25-0.063 0.23854-0.128 0.46575-0.225 0.7-0.4845 1.1696-1.3106 2.0796-2.325 2.675v102.35c2.3738 1.3914 3.4075 4.3616 2.325 6.975-1.0956 2.6448-3.9852 4.0029-6.675 3.25l-25.025 25.025c0.1109 0.43942 0.175 0.9013 0.175 1.375 0 0.62589-0.1103 1.2128-0.3 1.775-0.01 0.0173-0.02 0.0327-0.025 0.05-0.04 0.11426-0.078 0.23923-0.125 0.35-0.2723 0.71767-0.6973 1.3973-1.275 1.975-0.3319 0.3319-0.6898 0.6189-1.075 0.85v21.575c2.076 1.0373 3.5 3.1842 3.5 5.65 0 2.4644-1.4259 4.5962-3.5 5.625v68.725c2.076 1.0373 3.5 3.1842 3.5 5.65 0 3.4699-2.83 6.3-6.3 6.3z"/><path d="m2663.3-183.9c-3.4699 0-6.325-2.8551-6.325-6.325 0-2.4539 1.4403-4.5662 3.5-5.6v-52.75c-2.0633-1.0417-3.5-3.1934-3.5-5.65 0-3.4699 2.8551-6.275 6.325-6.275 0.737 0 1.4408 0.14198 2.1 0.375l24.45-24.45c-0.2993-1.1412-0.2609-2.3768 0.225-3.55 0.4971-1.2001 1.3748-2.1314 2.425-2.725v-102.28c-2.4209-1.3746-3.5176-4.3622-2.425-7 1.0823-2.6129 3.9381-3.9686 6.6-3.275l25.175-25.175c-0.2998-1.141-0.2605-2.3766 0.225-3.55 0.4966-1.2003 1.375-2.1309 2.425-2.725l-0.075-86.275c-1.6747-0.9672-2.7983-2.7782-2.8-4.85 0-3.0912 2.5088-5.5975 5.6-5.6 3.0912-0.003 5.5975 2.5088 5.6 5.6 0 2.0732-1.1255 3.8806-2.8 4.85l0.1 86.325c2.3533 1.3978 3.3769 4.3471 2.3 6.95-1.0944 2.6452-3.9849 4.0018-6.675 3.25l-25.1 25.1c0.3293 1.168 0.2751 2.4427-0.225 3.65-0.4815 1.1624-1.2941 2.0793-2.3 2.675v102.38c2.3527 1.3987 3.3779 4.3475 2.3 6.95-1.0956 2.6448-3.9852 4.0029-6.675 3.25l-24.45 24.45c0.2002 0.61114 0.3 1.2476 0.3 1.925 0 2.4644-1.4259 4.6121-3.5 5.65v52.725c2.076 1.0281 3.5 3.1592 3.5 5.625 0 3.4699-2.83 6.325-6.3 6.325z"/><path d="m2711.3-183.9c-3.4699 0-6.325-2.8551-6.325-6.325 0-2.4539 1.4403-4.5662 3.5-5.6v-36.75c-2.0633-1.0417-3.5-3.1934-3.5-5.65 0-3.4699 2.8551-6.275 6.325-6.275 3.47 0 6.3 2.8051 6.3 6.275 0 2.4644-1.4259 4.6121-3.5 5.65v36.725c2.076 1.0281 3.5 3.1592 3.5 5.625 0 3.4699-2.83 6.325-6.3 6.325z"/><path d="m2471.3-248.6c-3.0912 0-5.6-2.5088-5.6-5.6 0-2.0718 1.1261-3.8814 2.8-4.85v-22.25c-0.4395-0.24587-0.8764-0.55144-1.25-0.925-2.1858-2.1858-2.1858-5.7142 0-7.9 0.3736-0.37356 0.8105-0.67913 1.25-0.925v-102.08c-0.4395-0.24587-0.8764-0.55144-1.25-0.925-1.776-1.776-2.085-4.4618-0.975-6.575 0.9057-1.8743 2.805-3.175 5.025-3.175 0.5365 0 1.0587 0.0839 1.55 0.225l8.975-8.975c-0.3664-1.3517-0.2129-2.8129 0.45-4.075 0.4847-1.003 1.244-1.8387 2.2-2.4v-22.35c-1.6571-0.97286-2.775-2.7658-2.775-4.825 0-3.0912 2.5088-5.6 5.6-5.6s5.6 2.5088 5.6 5.6c0 2.0718-1.1261 3.8814-2.8 4.85v22.3c1.6739 0.9686 2.8 2.7782 2.8 4.85 0 0.62589-0.1103 1.2128-0.3 1.775-0.042 0.14164-0.1217 0.28639-0.175 0.425-0.013 0.0309-0.011 0.0694-0.025 0.1-0.2732 0.67415-0.6786 1.3036-1.225 1.85-1.4643 1.4643-3.5321 1.9227-5.4 1.425l-9.05 9.05c0.1114 0.44036 0.175 0.90018 0.175 1.375 0 0.82303-0.1807 1.5959-0.5 2.3-0.034 0.0827-0.062 0.16866-0.1 0.25-0.021 0.0419-0.053 0.0837-0.075 0.125-0.2635 0.5327-0.6066 1.0316-1.05 1.475-0.3234 0.32339-0.6758 0.5973-1.05 0.825v102.28c0.3742 0.2277 0.7266 0.50161 1.05 0.825 1.4705 1.4705 1.958 3.551 1.45 5.425l9.125 9.125c1.874-0.50805 3.9545-0.0205 5.425 1.45 2.1858 2.1858 2.1858 5.7142 0 7.9s-5.7392 2.1858-7.925 0c-1.4643-1.4643-1.9227-3.5321-1.425-5.4l-7.7-7.7v20.3c1.6571 0.97286 2.775 2.7658 2.775 4.825 0 3.0912-2.5088 5.6-5.6 5.6z"/><path d="m2519.2-264.58c-1.4334 0-2.8821-0.5571-3.975-1.65-1.4643-1.4643-1.9227-3.5321-1.425-5.4l-8.975-8.975c-0.4909 0.14079-1.014 0.225-1.55 0.225-2.3567 0-4.3739-1.4623-5.2-3.525-0.9145-2.0565-0.5358-4.5392 1.15-6.225 0.3736-0.37356 0.8105-0.67913 1.25-0.925v-70.075c-0.1181-0.066-0.236-0.12475-0.35-0.2-0.3105-0.20492-0.6268-0.45178-0.9-0.725-0.1366-0.13662-0.2555-0.27841-0.375-0.425-1.6735-2.0522-1.6735-5.0227 0-7.075 0.1195-0.14659 0.2384-0.28838 0.375-0.425s0.2784-0.25546 0.425-0.375c1.1685-0.95937 2.6485-1.3553 4.075-1.225 0.01 0.00076 0.017-0.0008 0.025 0 0.034 0.003 0.065 0.0211 0.1 0.025 0.145 0.0147 0.2834 0.0244 0.425 0.05 0.018 0.003 0.032 0.0214 0.05 0.025 0.05 0.0101 0.1007 0.0136 0.15 0.025 0.059 0.0137 0.1163 0.0344 0.175 0.05l9.15-9.15c-0.4608-1.6999-0.1171-3.5687 1.05-5 0.1195-0.14659 0.2384-0.28838 0.375-0.425s0.2784-0.25546 0.425-0.375c0.2586-0.21228 0.5409-0.39107 0.825-0.55v-70.225c-1.082-0.6251-1.9308-1.6033-2.4-2.775-0.5232-1.1764-0.6027-2.4949-0.275-3.725l-25.15-25.15c-1.8679 0.49767-3.9357 0.0143-5.4-1.45-2.1858-2.1858-2.1858-5.7142 0-7.9s5.7142-2.1858 7.9 0c1.4705 1.4705 1.958 3.551 1.45 5.425l25.125 25.125c1.874-0.50805 3.9545-0.0205 5.425 1.45 0.4434 0.44335 0.7865 0.9423 1.05 1.475 0.022 0.0413 0.054 0.0831 0.075 0.125 0.038 0.0813 0.066 0.1673 0.1 0.25 0.3193 0.7041 0.5 1.477 0.5 2.3 0 2.0608-1.1157 3.8527-2.775 4.825v70.35c0.058 0.0353 0.118 0.0624 0.175 0.1 0.039 0.026 0.086 0.0479 0.125 0.075 1.4897 1.0067 2.475 2.718 2.475 4.65 0 3.0912-2.5088 5.6-5.6 5.6-0.5427 0-1.0536-0.0808-1.55-0.225l-9.075 9.075c0.1411 0.49134 0.225 1.0135 0.225 1.55 0 2.0608-1.1157 3.8527-2.775 4.825v70.2c0.3742 0.2277 0.7266 0.50161 1.05 0.825 0.4434 0.44335 0.7865 0.9423 1.05 1.475 0.022 0.0413 0.054 0.0831 0.075 0.125 0.038 0.0813 0.066 0.1673 0.1 0.25 0.3193 0.7041 0.5 1.477 0.5 2.3 0 0.47874-0.062 0.93134-0.175 1.375l9.025 9.025c1.874-0.50805 3.9545-0.0205 5.425 1.45 2.1858 2.1858 2.1858 5.7142 0 7.9-1.0929 1.0929-2.5166 1.65-3.95 1.65z"/><path d="m2727.3-280.38c-3.0912 0-5.6-2.5088-5.6-5.6 0-2.0592 1.1179-3.8521 2.775-4.825v-102.35c-1.6593-0.97233-2.775-2.7642-2.775-4.825 0-3.0912 2.5088-5.6 5.6-5.6s5.6 2.5088 5.6 5.6c0 2.0732-1.1242 3.8819-2.8 4.85v102.3c1.6739 0.9686 2.8 2.7782 2.8 4.85 0 3.0912-2.5088 5.6-5.6 5.6z"/><path d="m2535.2-296.5c-3.0912 0-5.6-2.5088-5.6-5.6s2.5088-5.6 5.6-5.6c2.0632 0 3.8535 1.1375 4.825 2.8h23.45c0.9705-1.6666 2.7587-2.8 4.825-2.8 3.0912 0 5.6 2.5088 5.6 5.6s-2.5088 5.6-5.6 5.6c-2.0592 0-3.8271-1.1179-4.8-2.775h-23.475c-0.9723 1.6593-2.7642 2.775-4.825 2.775z"/><path d="m2439.3-328.38c-3.0912 0-5.6-2.5088-5.6-5.6 0-2.0592 1.1179-3.8521 2.775-4.825v-22.35c-1.6593-0.97233-2.775-2.7642-2.775-4.825 0-0.53595 0.084-1.0591 0.225-1.55l-25.075-25.075c-2.6898 0.75294-5.5794-0.60521-6.675-3.25-1.0779-2.6025-0.053-5.5513 2.3-6.95v-70.325c-2.4079-1.3793-3.4898-4.3689-2.4-7 1.0844-2.6179 3.9336-3.9778 6.6-3.275l25.175-25.2c-0.028-0.10799-0.054-0.21534-0.075-0.325-0.4125-1.8146 0.088-3.7878 1.5-5.2 0.3682-0.36818 0.7676-0.68086 1.2-0.925v-150.1c-0.961-0.56312-1.715-1.4161-2.2-2.425-0.054-0.11216-0.1285-0.20888-0.175-0.32496-0.062-0.13872-0.1002-0.28272-0.15-0.42504-0.373-1.0647-0.4141-2.2149-0.125-3.3l-9.15-9.15c-1.8679 0.49768-3.9607 0.0143-5.425-1.45-2.1858-2.1858-2.1858-5.7142 0-7.9s5.7392-2.1858 7.925 0c1.4705 1.4705 1.958 3.551 1.45 5.425l9.125 9.125c1.874-0.50808 3.9545-0.0205 5.425 1.45 0.4434 0.44336 0.7865 0.94232 1.05 1.475 0.1509 0.27776 0.2722 0.57152 0.375 0.87504 0.1909 0.56368 0.3 1.1721 0.3 1.8 0 2.0732-1.1242 3.8819-2.8 4.85v150.15c0.3852 0.2311 0.7431 0.5181 1.075 0.85 0.7215 0.72146 1.2048 1.5797 1.45 2.5 0.038 0.12326 0.071 0.24922 0.1 0.375 0.01 0.0483 0.017 0.10148 0.025 0.15 0.1622 0.79355 0.1269 1.6299-0.075 2.45l25.075 25.075c1.874-0.50805 3.9545-0.0205 5.425 1.45 2.1858 2.1858 2.1858 5.7142 0 7.9s-5.7142 2.1858-7.9 0c-1.4643-1.4643-1.9477-3.5321-1.45-5.4l-24.975-24.975c-0.9906 0.29313-2.0799 0.29747-3.125 0l-25.075 25.075c0.3365 1.1742 0.2784 2.4596-0.225 3.675-0.4845 1.1696-1.3106 2.0796-2.325 2.675v70.325c1.0502 0.59364 1.9279 1.5249 2.425 2.725 0.4859 1.1732 0.5243 2.4088 0.225 3.55l25.175 25.175c0.082-0.0207 0.1666-0.0579 0.25-0.075 0.041-0.009 0.083-0.017 0.125-0.025 0.1416-0.0256 0.28-0.0353 0.425-0.05 1.6444-0.19373 3.3642 0.31417 4.625 1.575 2.1858 2.1858 2.1858 5.7392 0 7.925-0.1366 0.13662-0.2784 0.25546-0.425 0.375-0.014 0.0115-0.036 0.0136-0.05 0.025-0.2431 0.19436-0.5099 0.37706-0.775 0.525v22.3c1.6739 0.9686 2.8 2.7782 2.8 4.85 0 3.0912-2.5088 5.6-5.6 5.6z"/><path d="m2535.2-328.5c-3.0912 0-5.6-2.5088-5.6-5.6s2.5088-5.6 5.6-5.6c2.0632 0 3.8535 1.1375 4.825 2.8h23.45c0.9705-1.6666 2.7587-2.8 4.825-2.8 3.0912 0 5.6 2.5088 5.6 5.6s-2.5088 5.6-5.6 5.6c-2.0592 0-3.8271-1.1179-4.8-2.775h-23.475c-0.9723 1.6593-2.7642 2.775-4.825 2.775z"/><path d="m2599.3-360.38c-3.0912 0-5.6-2.5088-5.6-5.6 0-2.0718 1.1261-3.8814 2.8-4.85v-22.3c-1.6758-0.96812-2.8-2.7768-2.8-4.85 0-0.53595 0.084-1.0591 0.225-1.55l-9.25-9.25c-0.4394 0.1109-0.9013 0.175-1.375 0.175-1.4086 0-2.6905-0.51536-3.675-1.375-0.2661-0.18588-0.5125-0.41252-0.75-0.65-2.1858-2.1858-2.1858-5.7142 0-7.9 0.4863-0.48634 1.0338-0.88008 1.625-1.15v-117.65c-1.0502-0.59368-1.9279-1.5249-2.425-2.725-0.4893-1.1812-0.5313-2.4274-0.225-3.575l-9.15-9.15c-1.874 0.50808-3.9545 0.0205-5.425-1.45-2.1858-2.1858-2.1858-5.7142 0-7.9s5.7142-2.1858 7.9 0c1.4705 1.4705 1.958 3.551 1.45 5.425l9.1 9.1c2.6965-0.76752 5.6012 0.59744 6.7 3.2499 1.0772 2.6008 0.049 5.5502-2.3 6.9501v118.32c0.1009 0.0744 0.2032 0.14302 0.3 0.225 1.4897 1.0067 2.475 2.718 2.475 4.65 0 0.53464-0.085 1.0352-0.225 1.525l9.25 9.275c0.2646-0.0675 0.5219-0.12173 0.8-0.15 1.6462-0.19566 3.3627 0.3127 4.625 1.575 2.1858 2.1858 2.1858 5.7392 0 7.925-0.1366 0.13662-0.2784 0.25546-0.425 0.375-0.013 0.0113-0.037 0.0138-0.05 0.025-0.2416 0.19314-0.4867 0.37769-0.75 0.525v22.325c1.6571 0.97286 2.775 2.7658 2.775 4.825 0 3.0912-2.5088 5.6-5.6 5.6z"/><path d="m2535.2-360.5c-2.3184 0-4.3245-1.4153-5.175-3.425-0.071-0.16747-0.1204-0.32468-0.175-0.5-0.1637-0.52595-0.25-1.0954-0.25-1.675 0-3.0912 2.5088-5.6 5.6-5.6 2.0632 0 3.8535 1.1375 4.825 2.8h23.45c0.063-0.1083 0.13-0.22146 0.2-0.325 1.0067-1.4897 2.693-2.475 4.625-2.475 3.0912 0 5.6 2.5088 5.6 5.6s-2.5088 5.6-5.6 5.6c-0.1932 0-0.3618-0.006-0.55-0.025-1.8175-0.18476-3.3684-1.2483-4.25-2.75h-23.475c-0.9723 1.6593-2.7642 2.775-4.825 2.775z"/><path d="m2535.2-392.5c-3.0912 0-5.6-2.5088-5.6-5.6s2.5088-5.6 5.6-5.6c2.0632 0 3.8535 1.1375 4.825 2.8h22.325c0.9705-1.6666 2.7837-2.8 4.85-2.8 3.0912 0 5.6 2.5088 5.6 5.6s-2.5088 5.6-5.6 5.6c-2.0592 0-3.8521-1.1179-4.825-2.775h-22.35c-0.9723 1.6593-2.7642 2.775-4.825 2.775z"/><path d="m2663.3-408.43c-1.4334 0-2.8571-0.5321-3.95-1.625-2.1858-2.1858-2.1858-5.7392 0-7.925 1.4643-1.4643 3.5321-1.9227 5.4-1.425l25.175-25.2c-0.2924-1.1347-0.2326-2.3598 0.25-3.525 0.4971-1.2001 1.3498-2.1314 2.4-2.725 0-34.086-0.045-68.182-0.05-102.28-2.4401-1.3686-3.5235-4.3526-2.425-7 1.0839-2.6122 3.9135-3.9702 6.575-3.275l25.25-25.2c-0.2917-1.135-0.2333-2.3602 0.25-3.525 0.4957-1.1947 1.3554-2.1316 2.4-2.725v-70.3c-1.6625-0.97144-2.8-2.7618-2.8-4.825 0-3.0912 2.5088-5.6 5.6-5.6s5.6 2.5088 5.6 5.6c0 2.0732-1.1242 3.8819-2.8 4.85v70.3c2.3729 1.3929 3.4091 4.3622 2.325 6.975-1.0971 2.6442-3.9856 4.0046-6.675 3.2501l-25.175 25.075c0.3358 1.1745 0.2792 2.4599-0.225 3.675-0.4836 1.1655-1.3148 2.0801-2.325 2.675 0 34.113 0.07 68.23 0.075 102.35 2.3738 1.3914 3.4075 4.3616 2.325 6.975-1.0956 2.6448-3.9852 4.0029-6.675 3.25l-25.125 25.125c0.508 1.874 0.021 3.9545-1.45 5.425-1.0929 1.0929-2.5166 1.625-3.95 1.625z"/><path d="m2423.4-408.5c-3.0912 0-5.6-2.5088-5.6-5.6s2.5088-5.6 5.6-5.6c2.0632 0 3.8535 1.1375 4.825 2.8h22.325c0.9705-1.6666 2.7837-2.8 4.85-2.8 3.0912 0 5.6 2.5088 5.6 5.6s-2.5088 5.6-5.6 5.6c-2.0592 0-3.8521-1.1179-4.825-2.775h-22.35c-0.9723 1.6593-2.7642 2.775-4.825 2.775z"/><path d="m2535.3-424.38c-3.0912 0-5.6-2.5088-5.6-5.6 0-2.0718 1.1261-3.8814 2.8-4.85v-54.3c-1.6758-0.96812-2.8-2.7768-2.8-4.85 0-0.53595 0.084-1.0591 0.225-1.55l-25.1-25.1c-1.8679 0.49768-3.9357 0.0394-5.4-1.425-0.5713-0.57128-0.9773-1.2411-1.25-1.9499-0.2916-0.678-0.475-1.4156-0.475-2.2 0-2.0718 1.1261-3.8814 2.8-4.8501v-22.3c-1.6739-0.96856-2.8-2.7782-2.8-4.8499 0-3.0912 2.5088-5.6 5.6-5.6s5.6 2.5087 5.6 5.6c0 2.0592-1.1179 3.8521-2.775 4.825v22.35c0.9575 0.56208 1.7405 1.395 2.225 2.4 0.044 0.0828 0.086 0.1656 0.125 0.25 0.071 0.16744 0.1204 0.32472 0.175 0.5 0.3792 1.0754 0.422 2.2294 0.125 3.325l25.15 25.15c0.059-0.0156 0.1159-0.0363 0.175-0.05 0.026-0.006 0.049-0.0196 0.075-0.025 0.041-0.009 0.083-0.0169 0.125-0.025 0.1416-0.0256 0.28-0.0353 0.425-0.05 1.6444-0.19373 3.3642 0.31417 4.625 1.575 2.1858 2.1858 2.1858 5.7392 0 7.925-0.1366 0.13662-0.2784 0.25546-0.425 0.375-0.013 0.0113-0.037 0.0138-0.05 0.025-0.2328 0.18622-0.4969 0.35635-0.75 0.5v54.35c1.6571 0.97286 2.775 2.7658 2.775 4.825 0 3.0912-2.5088 5.6-5.6 5.6z"/><path d="m2567.3-424.38c-3.0912 0-5.6-2.5088-5.6-5.6 0-2.0592 1.1179-3.8521 2.775-4.825v-86.35c-1.6593-0.97232-2.775-2.7642-2.775-4.825 0-0.53592 0.084-1.0591 0.225-1.55l-25.1-25.1c-1.8679 0.49768-3.9357 0.0394-5.4-1.425-0.5713-0.57128-0.9773-1.2411-1.25-1.9499 0-0.0101-0.021-0.015-0.025-0.025-0.049-0.12912-0.111-0.26832-0.15-0.4-0.1897-0.56216-0.3-1.1491-0.3-1.775 0-2.0718 1.1261-3.8814 2.8-4.8501v-102.3c-1.6739-0.96856-2.8-2.7782-2.8-4.8499 0-3.0912 2.5088-5.6 5.6-5.6s5.6 2.5087 5.6 5.6c0 2.0592-1.1179 3.8521-2.775 4.825v102.35c0.9575 0.56208 1.7405 1.395 2.225 2.4 0.044 0.0828 0.086 0.1656 0.125 0.25 0.071 0.16744 0.1204 0.32472 0.175 0.5 0.3792 1.0754 0.422 2.2294 0.125 3.325l25.15 25.15c0.059-0.0157 0.1159-0.0363 0.175-0.0501 0.025-0.005 0.05-0.0198 0.075-0.025 0.041-0.009 0.083-0.017 0.125-0.025 0.1416-0.0257 0.28-0.0353 0.425-0.0501 1.6444-0.19368 3.3642 0.31424 4.625 1.575 2.1858 2.1858 2.1858 5.7392 0 7.925-0.1366 0.13664-0.2784 0.25552-0.425 0.37504-0.014 0.0115-0.036 0.0136-0.05 0.025-0.242 0.1936-0.5112 0.37744-0.775 0.52504v86.3c1.6739 0.9686 2.8 2.7782 2.8 4.85 0 3.0912-2.5088 5.6-5.6 5.6z"/><path d="m2439.3-440.6c-3.0912 0-5.6-2.5088-5.6-5.6 0-2.0718 1.1261-3.8814 2.8-4.85v-22.3c-1.6739-0.9686-2.8-2.7782-2.8-4.85 0-3.0912 2.5088-5.6 5.6-5.6s5.6 2.5088 5.6 5.6c0 2.0592-1.1179 3.8521-2.775 4.825v22.35c1.6571 0.97286 2.775 2.7658 2.775 4.825 0 3.0912-2.5088 5.6-5.6 5.6z"/><path d="m2404.5-501.7c-1.4334 0-2.8571-0.53209-3.95-1.625-2.1858-2.1858-2.1858-5.7392 0-7.925 1.4705-1.4705 3.551-1.9581 5.425-1.45l11.875-11.875c-0.2993-1.1412-0.2359-2.3768 0.25-3.55 0.4971-1.2001 1.3498-2.1314 2.4-2.725v-54.275c-1.082-0.62512-1.9308-1.6034-2.4-2.775-0.5232-1.1764-0.6027-2.495-0.275-3.725l-8.975-8.975c-0.4909 0.14072-1.014 0.22496-1.55 0.22496-2.3567 0-4.3739-1.4623-5.2-3.525-0.9145-2.0566-0.5358-4.5393 1.15-6.225 0.3736-0.3736 0.8105-0.67912 1.25-0.92504v-54.075c-1.6758-0.96808-2.8-2.7768-2.8-4.85 0-3.0912 2.5088-5.6 5.6-5.6s5.6 2.5088 5.6 5.6c0 2.0608-1.1157 3.8526-2.775 4.825v54.2c0.3742 0.22776 0.7266 0.50168 1.05 0.82504 0.4434 0.44336 0.7865 0.94232 1.05 1.475 0.022 0.0413 0.054 0.0832 0.075 0.12504 0.038 0.0814 0.066 0.16728 0.1 0.25 0.3193 0.70408 0.5 1.477 0.5 2.3 0 0.47872-0.062 0.93136-0.175 1.375l9.025 9.025c1.874-0.50808 3.9545-0.0205 5.425 1.45 0.4434 0.44336 0.7865 0.94232 1.05 1.475 0.022 0.0413 0.054 0.0832 0.075 0.12504 0.038 0.0814 0.066 0.16728 0.1 0.25 0.3193 0.70408 0.5 1.477 0.5 2.3 0 2.0608-1.1157 3.8526-2.775 4.825v54.35c2.3527 1.3987 3.3779 4.3475 2.3 6.9499-1.0956 2.6448-3.9852 4.003-6.675 3.2501l-11.85 11.85c0.4977 1.8679 0.039 3.9607-1.425 5.425-1.0929 1.0929-2.5416 1.625-3.975 1.625z"/><path d="m2454.1-520.5c-3.0912 0-5.6-2.5088-5.6-5.6s2.5088-5.6 5.6-5.6c2.0663 0 3.8795 1.1334 4.85 2.8h23.425c0.9705-1.6666 2.7837-2.8 4.85-2.8 3.0912 0 5.6 2.5087 5.6 5.6 0 3.0911-2.5088 5.5999-5.6 5.6-2.0592 0-3.8521-1.1179-4.825-2.775h-23.475c-0.9729 1.6571-2.7658 2.775-4.825 2.775z"/><path d="m2455.3-568.38c-3.0912 0-5.6-2.5088-5.6-5.6 0-2.0718 1.1261-3.8814 2.8-4.85v-54.3c-1.6758-0.96808-2.8-2.7768-2.8-4.85 0-3.0912 2.5088-5.6 5.6-5.6s5.6 2.5088 5.6 5.6c0 2.0608-1.1157 3.8526-2.775 4.825v54.35c1.6571 0.9728 2.775 2.7658 2.775 4.825 0 3.0912-2.5088 5.6-5.6 5.6z"/><path d="m2503.3-568.38c-3.0912 0-5.6-2.5088-5.6-5.6 0-2.0718 1.1261-3.8814 2.8-4.85v-86.3c-1.6758-0.96808-2.8-2.7768-2.8-4.85 0-3.0912 2.5088-5.6 5.6-5.6s5.6 2.5088 5.6 5.6c0 2.0608-1.1157 3.8526-2.775 4.825v86.35c1.6571 0.9728 2.775 2.7658 2.775 4.825 0 3.0912-2.5088 5.6-5.6 5.6z"/><path d="m2615.3-568.38c-3.0912 0-5.6-2.5088-5.6-5.6 0-2.0592 1.1179-3.8522 2.775-4.825v-102.35c-1.6593-0.97232-2.775-2.7642-2.775-4.825 0-3.0912 2.5088-5.6 5.6-5.6s5.6 2.5088 5.6 5.6c0 2.0732-1.1242 3.8819-2.8 4.85v102.3c1.6739 0.96856 2.8 2.7782 2.8 4.85 0 3.0912-2.5088 5.6-5.6 5.6z"/><path d="m2487.2-568.5c-3.0912 0-5.6-2.5088-5.6-5.6 0-2.1129 1.1711-3.9465 2.9-4.9v-54.125c-1.6758-0.96808-2.8-2.7768-2.8-4.85 0-0.0335-0.0006-0.0666 0-0.1-0.0009-0.0417 0-0.083 0-0.12496 0-0.11664 0.013-0.23536 0.025-0.35008 0.022-0.35048 0.067-0.6948 0.15-1.025l-25.05-25.05c-1.8679 0.49768-3.9357 0.0394-5.4-1.425-2.1858-2.1858-2.1858-5.7391 0-7.925 2.1858-2.1858 5.7392-2.1858 7.925 0 1.4705 1.4705 1.933 3.551 1.425 5.425l24.975 24.975c0.4967-0.14448 1.0069-0.22496 1.55-0.22496 2.2218 0 4.1452 1.2982 5.05 3.175 0.044 0.0828 0.086 0.1656 0.125 0.25 0.071 0.16744 0.1204 0.32472 0.175 0.5 0.6947 1.9702 0.2749 4.2501-1.3 5.825-0.1366 0.13664-0.2784 0.25552-0.425 0.37504-0.013 0.0113-0.037 0.0138-0.05 0.025-0.2416 0.1932-0.4867 0.37776-0.75 0.52504v54.275c1.596 0.98704 2.675 2.737 2.675 4.7501 0 3.0911-2.5088 5.6-5.6 5.6z"/><path d="m2583.3-600.38c-3.0912 0-5.6-2.5088-5.6-5.6 0-2.0718 1.1261-3.8814 2.8-4.85v-70.3c-1.6758-0.96808-2.8-2.7768-2.8-4.85 0-3.0912 2.5088-5.6 5.6-5.6s5.6 2.5088 5.6 5.6c0 2.0608-1.1157 3.8526-2.775 4.825v70.35c1.6571 0.9728 2.775 2.7658 2.775 4.825 0 3.0912-2.5088 5.6-5.6 5.6z"/><path d="m2663.3-616.6c-3.0912 0-5.6-2.5089-5.6-5.6 0-2.0593 1.1179-3.8522 2.775-4.825v-54.35c-1.6571-0.97288-2.775-2.7658-2.775-4.825 0-3.0912 2.5088-5.6 5.6-5.6s5.6 2.5087 5.6 5.6c0 2.0718-1.1261 3.8814-2.8 4.8499v54.3c1.6739 0.96864 2.8 2.7782 2.8 4.8501 0 3.0912-2.5088 5.6-5.6 5.6z"/><path d="m2711.3-616.6c-3.0912 0-5.6-2.5089-5.6-5.6 0-2.0593 1.1179-3.8522 2.775-4.825v-38.35c-1.6571-0.97288-2.775-2.7658-2.775-4.825 0-3.0912 2.5088-5.6 5.6-5.6s5.6 2.5087 5.6 5.6c0 2.0718-1.1261 3.8814-2.8 4.8499v38.3c1.6739 0.96864 2.8 2.7782 2.8 4.8501 0 3.0912-2.5088 5.6-5.6 5.6z"/></g></g></g></g></svg>
